<svg xmlns="http://www.w3.org/2000/svg" width="1000" height="760" viewBox="0 0 1000 760">
  <rect width="100%" height="100%" fill="#ffffff"/>
  <text x="56" y="42" font-family="Arial, sans-serif" font-size="26" font-weight="700" fill="#111827">INSANE Navigation Fusion Replay</text>
  <text x="56" y="72" font-family="Arial, sans-serif" font-size="15" fill="#4b5563">Fused RMSE 27.59 m | GNSS 122.41 m | VIO 31.41 m</text>
  <text x="56" y="724" font-family="Arial, sans-serif" font-size="13" fill="#6b7280">Bounds: x -25.1..281.8 m, y -203.2..5.5 m</text>
  <g stroke="#e5e7eb" stroke-width="1">
    <line x1="100" y1="100" x2="100" y2="690"/><line x1="200" y1="100" x2="200" y2="690"/><line x1="300" y1="100" x2="300" y2="690"/><line x1="400" y1="100" x2="400" y2="690"/><line x1="500" y1="100" x2="500" y2="690"/><line x1="600" y1="100" x2="600" y2="690"/><line x1="700" y1="100" x2="700" y2="690"/><line x1="800" y1="100" x2="800" y2="690"/><line x1="900" y1="100" x2="900" y2="690"/>
    <line x1="56" y1="120" x2="944" y2="120"/><line x1="56" y1="200" x2="944" y2="200"/><line x1="56" y1="280" x2="944" y2="280"/><line x1="56" y1="360" x2="944" y2="360"/><line x1="56" y1="440" x2="944" y2="440"/><line x1="56" y1="520" x2="944" y2="520"/><line x1="56" y1="600" x2="944" y2="600"/><line x1="56" y1="680" x2="944" y2="680"/>
  </g>
  <polyline points="107.71,111.16 107.69,111.16 107.67,111.16 107.65,111.16 107.62,111.16 107.59,111.16 107.57,111.16 107.55,111.12 107.54,111.09 107.54,111.07 107.53,111.06 107.52,111.06 107.50,111.06 107.49,111.06 107.48,111.06 107.46,111.08 107.45,111.09 107.43,111.09 107.43,111.09 107.43,111.09 107.42,111.09 107.41,111.08 107.41,111.06 107.41,111.02 107.40,111.00 107.39,111.00 107.40,111.01 107.41,111.03 107.43,111.05 107.43,111.06 107.43,111.06 107.46,111.04 107.48,111.03 107.48,111.03 107.46,111.03 107.45,111.03 107.44,111.03 107.43,111.05 107.42,111.08 107.41,111.11 107.42,111.14 107.43,111.18 107.42,111.19 107.41,111.19 107.39,111.21 107.39,111.22 107.39,111.22 107.39,111.22 107.39,111.22 107.41,111.22 107.41,111.22 107.41,111.22 107.41,111.22 107.41,111.23 107.41,111.25 107.40,111.25 107.39,111.26 107.39,111.28 107.39,111.32 107.39,111.36 107.39,111.40 107.39,111.41 107.39,111.41 107.37,111.41 107.37,111.41 107.37,111.41 107.34,111.43 107.32,111.45 107.32,111.45 107.31,111.45 107.30,111.45 107.30,111.45 107.29,111.44 107.28,111.42 107.25,111.40 107.23,111.37 107.22,111.33 107.21,111.33 107.21,111.35 107.21,111.39 107.21,111.42 107.22,111.44 107.23,111.46 107.23,111.49 107.25,111.55 107.25,111.61 107.25,111.67 107.25,111.67 107.25,111.66 107.24,111.64 107.21,111.62 107.19,111.61 107.17,111.63 107.17,111.60 107.17,111.54 107.15,111.52 107.12,111.50 107.10,111.48 107.10,111.48 107.10,111.48 107.10,111.48 107.10,111.49 107.10,111.51 107.11,111.51 107.12,111.51 107.12,111.51 107.10,111.51 107.07,111.52 107.06,111.54 107.06,111.57 107.08,111.61 107.11,111.63 107.13,111.66 107.16,111.70 107.17,111.72 107.17,111.74 107.17,111.74 107.16,111.72 107.14,111.70 107.13,111.70 107.12,111.70 107.12,111.70 107.11,111.69 107.09,111.66 107.07,111.60 107.05,111.55 107.03,111.51 107.03,111.49 107.03,111.49 107.03,111.51 107.02,111.53 107.01,111.54 107.01,111.52 107.01,111.49 107.01,111.45 107.01,111.45 107.01,111.44 107.01,111.42 107.00,111.41 106.99,111.40 106.99,111.36 106.98,111.35 106.97,111.35 106.97,111.37 106.97,111.41 106.99,111.47 106.99,111.49 106.99,111.51 107.01,111.51 107.02,111.51 107.03,111.51 107.03,111.49 107.03,111.47 107.03,111.45 107.04,111.45 107.06,111.45 107.07,111.47 107.09,111.50 107.10,111.54 107.11,111.58 107.13,111.62 107.14,111.66 107.15,111.74 107.17,111.81 107.18,111.90 107.20,111.99 107.21,112.09 107.22,112.17 107.25,112.25 107.29,112.33 107.32,112.41 107.35,112.49 107.38,112.55 107.40,112.58 107.43,112.60 107.46,112.62 107.49,112.65 107.51,112.69 107.54,112.75 107.57,112.81 107.58,112.87 107.60,112.93 107.61,112.99 107.62,113.03 107.64,113.07 107.67,113.10 107.70,113.13 107.72,113.16 107.74,113.18 107.74,113.20 107.74,113.22 107.73,113.24 107.73,113.26 107.74,113.28 107.74,113.26 107.75,113.25 107.78,113.25 107.80,113.27 107.83,113.31 107.86,113.35 107.88,113.38 107.89,113.38 107.91,113.38 107.92,113.39 107.94,113.42 107.95,113.45 107.96,113.47 107.98,113.47 108.00,113.47 108.02,113.47 108.04,113.46 108.06,113.44 108.09,113.44 108.11,113.44 108.14,113.44 108.17,113.44 108.19,113.44 108.20,113.44 108.23,113.44 108.26,113.45 108.29,113.49 108.30,113.53 108.32,113.57 108.35,113.59 108.37,113.63 108.38,113.69 108.38,113.74 108.40,113.80 108.48,113.87 108.59,113.88 108.72,113.86 108.82,113.88 108.91,113.92 108.98,113.97 109.08,114.08 109.18,114.22 109.27,114.47 109.37,114.72 109.47,114.97 109.52,115.36 109.54,115.74 109.50,116.09 109.41,116.34 109.31,116.53 109.25,116.55 109.27,116.49 109.34,116.37 109.38,116.14 109.36,115.92 109.27,115.71 109.09,115.52 108.90,115.36 108.78,115.27 108.77,115.24 108.83,115.24 109.01,115.36 109.16,115.49 109.29,115.63 109.38,115.88 109.45,116.16 109.45,116.44 109.43,116.68 109.40,116.88 109.42,116.98 109.47,117.00 109.57,116.90 109.65,116.72 109.72,116.52 109.78,116.28 109.84,116.13 109.89,116.05 109.91,116.14 109.91,116.25 109.91,116.35 109.92,116.42 109.94,116.47 109.99,116.51 110.06,116.61 110.16,116.75 110.35,116.92 110.57,117.12 110.80,117.38 111.00,117.69 111.18,117.99 111.31,118.19 111.41,118.32 111.49,118.40 111.56,118.43 111.62,118.47 111.68,118.51 111.72,118.54 111.76,118.55 111.77,118.53 111.78,118.52 111.80,118.52 111.84,118.54 111.88,118.57 111.92,118.61 111.95,118.70 111.98,118.80 112.01,118.90 112.06,118.99 112.13,119.07 112.18,119.09 112.24,119.10 112.29,119.10 112.34,119.15 112.38,119.21 112.39,119.29 112.42,119.37 112.46,119.45 112.49,119.47 112.51,119.49 112.52,119.51 112.55,119.53 112.57,119.55 112.57,119.53 112.59,119.52 112.62,119.52 112.62,119.50 112.62,119.48 112.62,119.46 112.61,119.44 112.60,119.42 112.61,119.42 112.62,119.41 112.62,119.39 112.63,119.39 112.63,119.37 112.62,119.33 112.61,119.31 112.60,119.29 112.60,119.29 112.59,119.28 112.57,119.26 112.59,119.26 112.61,119.27 112.63,119.29 112.66,119.28 112.69,119.25 112.70,119.21 112.71,119.17 112.73,119.13 112.71,119.09 112.70,119.06 112.69,119.04 112.69,119.05 112.71,119.07 112.72,119.07 112.75,119.08 112.77,119.10 112.79,119.08 112.79,119.06 112.78,119.04 112.76,119.02 112.75,118.99 112.75,118.93 112.76,118.86 112.77,118.78 112.80,118.76 112.83,118.74 112.86,118.72 112.86,118.71 112.86,118.71 112.86,118.67 112.86,118.63 112.86,118.59 112.86,118.59 112.86,118.58 112.86,118.56 112.87,118.54 112.88,118.52 112.88,118.52 112.88,118.50 112.88,118.46 112.90,118.46 112.90,118.46 112.89,118.46 112.88,118.46 112.88,118.46 112.88,118.46 112.88,118.45 112.88,118.43 112.90,118.40 112.92,118.39 112.94,118.37 112.97,118.35 112.99,118.33 113.02,118.33 113.05,118.32 113.08,118.30 113.10,118.28 113.13,118.26 113.16,118.26 113.18,118.26 113.21,118.26 113.22,118.25 113.22,118.22 113.22,118.18 113.23,118.15 113.24,118.13 113.24,118.09 113.25,118.05 113.26,118.01 113.26,118.03 113.27,118.04 113.30,118.04 113.31,118.05 113.33,118.07 113.34,118.03 113.35,117.98 113.35,117.91 113.38,117.81 113.42,117.72 113.49,117.61 113.60,117.48 113.73,117.33 113.92,117.14 114.13,116.96 114.36,116.79 114.57,116.73 114.78,116.70 114.97,116.74 115.13,116.82 115.28,116.91 115.43,117.04 115.60,117.21 115.78,117.39 115.97,117.53 116.18,117.66 116.40,117.76 116.60,117.91 116.79,118.08 116.94,118.30 117.10,118.57 117.28,118.89 117.43,119.16 117.59,119.42 117.76,119.68 117.91,119.88 118.06,120.08 118.21,120.27 118.37,120.46 118.55,120.64 118.75,120.83 118.95,121.01 119.16,121.19 119.35,121.31 119.54,121.42 119.72,121.52 119.87,121.62 120.03,121.73 120.19,121.83 120.35,121.93 120.50,122.02 120.67,122.14 120.84,122.27 121.00,122.41 121.13,122.57 121.24,122.73 121.37,122.87 121.50,123.00 121.64,123.12 121.78,123.24 121.91,123.36 122.05,123.48 122.18,123.62 122.30,123.76 122.41,123.90 122.49,124.04 122.55,124.18 122.59,124.34 122.65,124.51 122.75,124.67 122.84,124.80 122.92,124.92 122.98,125.06 123.04,125.19 123.08,125.30 123.09,125.41 123.13,125.53 123.19,125.68 123.23,125.83 123.25,125.98 123.24,126.12 123.21,126.28 123.17,126.44 123.11,126.64 123.03,126.82 122.91,126.97 122.79,127.15 122.68,127.34 122.55,127.55 122.42,127.78 122.29,128.03 122.16,128.26 122.01,128.48 121.83,128.70 121.63,128.91 121.42,129.10 121.21,129.24 121.00,129.34 120.78,129.42 120.58,129.49 120.39,129.53 120.21,129.55 120.05,129.55 119.90,129.56 119.75,129.60 119.59,129.67 119.44,129.75 119.32,129.83 119.19,129.92 119.05,130.04 118.92,130.13 118.80,130.21 118.67,130.29 118.58,130.40 118.51,130.52 118.44,130.62 118.36,130.70 118.27,130.74 118.16,130.74 118.04,130.74 117.90,130.74 117.75,130.74 117.59,130.74 117.39,130.74 117.18,130.76 116.95,130.79 116.72,130.82 116.50,130.86 116.30,130.93 116.12,131.00 115.97,131.06 115.79,131.11 115.61,131.16 115.44,131.24 115.20,131.34 114.95,131.44 114.68,131.52 114.39,131.61 114.10,131.71 113.79,131.77 113.48,131.82 113.15,131.86 112.83,131.90 112.52,131.95 112.23,132.03 111.92,132.13 111.61,132.25 111.30,132.39 111.01,132.54 110.75,132.70 110.53,132.90 110.30,133.10 110.05,133.30 109.80,133.48 109.54,133.64 109.25,133.82 108.95,134.01 108.65,134.21 108.33,134.39 108.02,134.56 107.70,134.71 107.38,134.90 107.06,135.15 106.75,135.45 106.45,135.77 106.16,136.11 105.87,136.46 105.57,136.83 105.23,137.21 104.89,137.61 104.54,138.03 104.22,138.51 103.91,138.98 103.63,139.44 103.35,139.88 103.08,140.32 102.82,140.79 102.57,141.26 102.32,141.73 102.08,142.10 101.86,142.47 101.68,142.83 101.46,143.26 101.24,143.71 101.09,144.11 100.96,144.52 100.85,144.92 100.74,145.32 100.62,145.70 100.50,146.04 100.33,146.37 100.15,146.68 99.94,146.98 99.74,147.32 99.56,147.68 99.40,147.99 99.23,148.31 99.07,148.64 98.86,149.02 98.63,149.40 98.37,149.76 98.13,150.12 97.91,150.49 97.67,150.89 97.43,151.31 97.18,151.78 96.92,152.27 96.67,152.77 96.42,153.26 96.16,153.76 95.90,154.26 95.59,154.79 95.29,155.31 94.99,155.82 94.70,156.35 94.42,156.87 94.16,157.37 93.92,157.89 93.69,158.41 93.45,158.93 93.21,159.44 92.94,159.92 92.67,160.41 92.40,160.90 92.12,161.37 91.82,161.86 91.52,162.36 91.21,162.83 90.92,163.26 90.66,163.66 90.38,164.07 90.08,164.46 89.77,164.81 89.46,165.14 89.14,165.47 88.79,165.90 88.50,166.28 88.27,166.59 88.03,166.90 87.78,167.22 87.52,167.52 87.24,167.83 86.95,168.15 86.67,168.46 86.38,168.77 86.10,169.08 85.82,169.40 85.55,169.72 85.29,170.02 85.06,170.33 84.85,170.65 84.66,170.97 84.48,171.29 84.35,171.61 84.23,171.92 84.11,172.23 83.99,172.56 83.88,172.84 83.79,173.09 83.72,173.37 83.67,173.67 83.65,173.99 83.65,174.30 83.66,174.59 83.68,174.88 83.73,175.21 83.78,175.57 83.88,175.91 83.98,176.26 84.09,176.59 84.19,176.96 84.29,177.34 84.38,177.70 84.48,178.04 84.58,178.37 84.65,178.56 84.73,178.72 84.81,178.86 84.93,178.95 85.05,179.02 85.18,179.04 85.33,179.11 85.49,179.21 85.66,179.39 85.84,179.57 86.05,179.75 86.20,179.86 86.33,179.95 86.50,180.07 86.68,180.17 86.88,180.23 87.09,180.27 87.31,180.32 87.53,180.38 87.73,180.41 87.93,180.43 88.10,180.47 88.25,180.54 88.40,180.64 88.53,180.74 88.66,180.83 88.76,180.89 88.80,180.97 88.82,181.05 88.90,181.09 88.97,181.14 89.04,181.18 89.13,181.22 89.20,181.26 89.27,181.30 89.33,181.34 89.39,181.37 89.46,181.37 89.53,181.35 89.61,181.33 89.61,181.35 89.60,181.37 89.57,181.40 89.54,181.38 89.50,181.34 89.42,181.29 89.29,181.21 89.13,181.13 88.92,181.05 88.70,181.02 88.47,181.04 88.17,181.10 87.85,181.16 87.47,181.24 87.09,181.30 86.71,181.33 86.33,181.31 85.99,181.27 85.68,181.22 85.41,181.10 85.16,180.95 84.93,180.71 84.73,180.53 84.55,180.39 84.40,180.18 84.30,180.03 84.22,179.93 84.16,179.81 84.12,179.69 84.12,179.55 84.15,179.46 84.21,179.40 84.31,179.40 84.41,179.39 84.50,179.37 84.59,179.44 84.66,179.49 84.70,179.47 84.77,179.44 84.86,179.39 84.95,179.27 85.05,179.26 85.15,179.36 85.22,179.48 85.29,179.63 85.34,179.86 85.39,180.15 85.43,180.46 85.50,180.79 85.58,181.05 85.66,181.24 85.75,181.30 85.86,181.33 86.03,181.31 86.18,181.37 86.32,181.46 86.48,181.46 86.62,181.55 86.75,181.72 86.80,181.96 86.83,182.20 86.86,182.40 86.85,182.60 86.82,182.80 86.76,183.05 86.65,183.26 86.49,183.45 86.31,183.55 86.12,183.61 85.89,183.59 85.70,183.52 85.52,183.43 85.37,183.45 85.25,183.42 85.15,183.34 84.99,183.33 84.81,183.34 84.61,183.40 84.41,183.48 84.21,183.55 84.04,183.51 83.86,183.48 83.68,183.46 83.52,183.35 83.36,183.30 83.22,183.44 83.09,183.54 82.97,183.61 82.88,183.59 82.77,183.67 82.66,183.83 82.57,184.07 82.45,184.25 82.26,184.23 82.16,184.14 82.10,184.07 82.07,184.33 82.05,184.79 82.04,185.43 82.02,186.31 82.02,187.07 82.03,187.46 81.97,187.71 81.86,187.91 81.70,188.09 81.55,188.11 81.43,187.95 81.31,187.98 81.20,188.06 81.09,188.15 81.01,188.27 80.92,188.39 80.72,188.47 80.55,188.52 80.41,188.54 80.23,188.54 80.06,188.57 79.89,188.69 79.74,188.78 79.59,188.86 79.49,188.90 79.43,188.98 79.41,189.09 79.39,189.20 79.40,189.25 79.50,189.15 79.58,189.10 79.64,189.08 79.61,189.04 79.53,189.07 79.41,189.17 79.31,189.18 79.22,189.16 79.14,189.08 79.09,189.00 79.06,188.94 79.02,189.10 78.98,189.10 78.93,188.94 78.88,188.85 78.83,188.83 78.79,188.95 78.71,189.11 78.62,189.29 78.55,189.41 78.46,189.53 78.37,189.65 78.31,189.53 78.26,189.37 78.21,189.25 78.20,189.18 78.20,189.14 78.21,189.08 78.24,189.05 78.28,189.05 78.28,189.02 78.26,189.00 78.25,189.07 78.21,189.04 78.18,189.00 78.15,189.20 78.10,189.38 78.01,189.54 77.95,189.81 77.89,190.07 77.82,190.27 77.73,190.43 77.62,190.55 77.58,190.41 77.52,190.39 77.45,190.49 77.47,190.52 77.49,190.59 77.51,190.81 77.49,190.99 77.47,191.16 77.45,191.34 77.43,191.49 77.41,191.61 77.34,191.84 77.27,192.03 77.22,192.09 77.18,192.01 77.16,191.90 77.16,192.07 77.16,192.30 77.16,192.60 77.10,193.01 77.05,193.38 77.05,193.56 77.09,193.41 77.13,193.14 77.12,193.18 77.11,193.27 77.11,193.41 77.05,193.57 76.99,193.69 76.95,193.71 76.89,193.98 76.82,194.34 76.75,194.46 76.65,194.70 76.51,195.08 76.21,195.72 75.85,196.41 75.42,197.12 75.17,197.83 75.01,198.57 74.78,199.48 74.56,200.33 74.35,201.13 74.15,201.96 73.93,202.71 73.70,203.29 73.39,204.01 73.03,204.82 72.68,205.77 72.46,206.99 72.36,208.48 72.36,210.03 72.37,211.58 72.37,213.13 72.72,214.37 73.22,215.48 73.71,216.58 74.29,217.95 74.94,219.54 75.63,221.09 76.14,222.43 76.24,223.19 76.20,223.58 76.10,223.70 75.85,222.58 75.91,221.90 76.24,221.63 76.25,221.86 76.18,222.15 76.04,222.45 75.87,222.75 75.72,223.06 75.73,223.45 75.81,223.88 75.95,224.35 76.44,224.45 76.96,224.43 77.41,224.23 80.08,233.40 83.13,244.41 83.68,246.30 84.25,248.21 84.84,250.14 85.77,251.66 86.79,253.07 87.90,254.34 89.03,255.45 90.16,256.51 91.10,257.53 92.05,258.51 93.02,259.44 94.42,260.27 95.90,261.06 97.46,261.81 99.08,262.48 100.73,263.11 102.50,263.68 104.17,264.20 105.76,264.66 107.46,265.09 109.45,265.19 112.22,264.38 112.27,270.88 111.67,278.81 112.96,280.42 114.24,282.01 115.52,283.58 116.87,285.05 118.25,286.53 119.67,288.00 121.12,289.47 122.54,290.97 123.69,292.64 124.94,294.24 126.25,295.79 127.58,297.34 128.98,298.83 130.52,300.21 131.71,301.88 132.76,303.64 133.72,305.41 134.65,307.17 135.55,308.94 136.62,310.70 137.69,312.44 138.74,314.13 140.90,310.29 143.21,306.14 144.66,307.45 146.18,308.81 147.74,310.20 149.30,311.61 150.85,313.00 152.38,314.37 153.94,315.77 155.51,317.17 157.04,318.55 158.57,319.92 160.09,321.29 161.63,322.67 163.18,324.07 164.76,325.48 166.30,326.87 167.84,328.25 169.38,329.63 170.93,331.02 172.51,332.43 174.09,333.86 175.65,335.25 177.16,336.61 185.68,343.04 194.49,349.68 196.56,351.44 198.65,353.21 200.73,355.00 202.89,356.84 205.02,358.65 207.09,360.42 209.20,362.21 211.32,364.01 213.46,365.84 215.57,367.64 217.65,369.41 219.78,371.23 221.90,373.04 224.02,374.83 226.10,376.61 228.19,378.41 230.43,380.29 232.51,382.07 234.50,383.78 236.58,385.55 238.68,387.33 240.82,389.16 249.25,382.78 258.61,375.29 261.53,376.79 264.45,378.28 267.37,379.77 270.36,381.28 273.35,382.79 276.32,384.30 279.29,385.81 282.26,387.32 285.30,388.86 288.31,390.38 291.29,391.89 294.30,393.41 297.33,394.95 300.38,396.50 303.31,397.98 306.23,399.46 309.20,400.97 312.12,402.45 314.98,403.90 317.94,405.40 320.91,406.90 323.90,408.42 338.47,404.94 355.20,400.61 359.14,402.30 363.12,404.01 367.14,405.73 371.18,407.47 375.21,409.20 379.21,410.91 383.23,412.63 387.25,414.36 391.20,416.05 395.27,417.80 399.47,419.63 403.52,421.36 407.57,423.11 411.69,424.87 415.65,426.57 419.57,428.25 423.61,429.98 427.63,431.70 431.64,433.42 435.67,435.15 439.69,436.88 443.70,438.60 452.54,447.23 462.35,457.11 466.93,458.76 471.57,460.45 476.25,462.16 481.01,463.89 485.79,465.62 490.61,467.36 495.42,469.11 501.46,472.81 513.39,485.70 524.63,497.66 535.22,508.72 545.33,519.04 554.83,528.54 563.24,536.67 571.01,544.02 578.51,551.04 585.62,557.57 592.98,567.94 600.57,582.07 608.09,589.59 615.39,596.08 622.23,601.97 628.29,607.88 633.77,613.04 638.07,614.29 641.93,615.42 645.67,616.52 649.60,617.69 653.41,618.80 657.13,619.88 660.93,621.00 664.73,622.12 668.52,623.22 672.34,624.34 676.16,625.47 679.93,626.58 683.74,627.70 687.56,628.81 691.36,629.93 695.16,631.05 699.01,632.16 702.84,633.28 706.66,634.41 710.45,635.51 714.16,636.60 717.81,637.67 721.76,638.84 725.73,640.01 729.62,641.13 733.38,642.24 737.11,643.34 740.94,644.45 744.78,645.58 748.62,646.71 752.44,647.84 756.25,648.96 760.06,650.06 763.87,651.18 767.70,652.31 771.51,653.41 775.31,654.53 779.09,655.64 782.87,656.76 786.65,657.87 790.46,658.98 794.24,660.09 798.02,661.20 801.95,662.34 805.86,663.49 809.77,664.64 813.48,665.74 817.21,666.84 821.00,667.94 824.82,669.06 828.65,670.19 832.47,671.30 836.30,672.42 840.12,673.54 843.93,674.67 847.74,675.79 851.55,676.89 855.36,678.01 859.17,679.13 862.96,680.23 866.74,681.34 870.51,682.45 874.37,683.58 878.22,684.70 882.05,685.83 885.92,686.98 889.78,688.11 893.50,689.19 897.28,690.30 901.13,691.44 904.90,692.53 908.68,693.63 912.49,694.76 916.28,695.87 920.06,696.99 923.91,698.10 927.71,699.22 931.48,700.33 935.29,701.44 939.11,702.56 942.96,703.69 944.00,704.00 944.00,704.00 944.00,704.00 944.00,704.00 944.00,704.00 944.00,704.00 944.00,704.00 944.00,704.00 944.00,704.00 944.00,704.00 944.00,704.00 944.00,704.00 944.00,704.00 944.00,704.00 944.00,704.00 944.00,704.00 944.00,704.00 944.00,704.00 944.00,704.00 944.00,704.00 944.00,704.00 944.00,704.00 944.00,704.00 944.00,704.00 944.00,704.00 944.00,704.00 944.00,704.00 944.00,704.00 944.00,704.00 944.00,704.00 944.00,704.00 944.00,704.00 944.00,704.00 944.00,704.00 944.00,704.00 944.00,704.00 944.00,704.00 944.00,704.00 944.00,704.00 944.00,704.00 944.00,704.00 944.00,704.00 944.00,704.00 944.00,704.00 944.00,704.00 944.00,704.00 944.00,704.00 944.00,704.00 944.00,704.00 944.00,704.00 944.00,704.00 944.00,704.00 944.00,704.00 944.00,704.00 944.00,704.00 944.00,704.00 944.00,704.00 944.00,704.00 944.00,704.00 944.00,704.00 944.00,704.00 944.00,704.00 944.00,704.00 944.00,704.00 944.00,704.00 944.00,704.00 944.00,704.00 944.00,704.00 944.00,704.00 944.00,704.00 944.00,704.00 944.00,704.00 944.00,704.00 944.00,704.00 944.00,704.00 944.00,704.00 944.00,704.00 944.00,704.00 944.00,704.00 944.00,704.00 944.00,704.00 944.00,704.00 944.00,704.00 944.00,704.00 944.00,704.00 944.00,704.00 944.00,704.00 944.00,704.00 944.00,704.00 944.00,704.00 944.00,704.00 944.00,704.00 944.00,704.00 944.00,704.00 944.00,704.00 944.00,704.00 944.00,704.00 944.00,704.00 944.00,704.00 944.00,704.00 944.00,704.00 944.00,704.00 944.00,704.00 944.00,704.00 944.00,704.00 944.00,704.00 944.00,704.00 944.00,704.00 944.00,704.00 944.00,704.00 944.00,704.00 944.00,704.00 944.00,704.00 944.00,704.00 944.00,704.00 944.00,704.00 944.00,704.00 944.00,704.00 944.00,704.00 944.00,704.00 944.00,704.00 944.00,704.00 944.00,704.00 944.00,704.00 944.00,704.00 944.00,704.00 944.00,704.00 944.00,704.00 944.00,704.00 944.00,704.00 944.00,704.00 944.00,704.00 944.00,704.00 944.00,704.00 944.00,704.00 944.00,704.00 944.00,704.00 944.00,704.00 944.00,704.00 944.00,704.00 944.00,704.00 944.00,704.00 944.00,704.00 944.00,704.00 944.00,704.00 944.00,704.00 944.00,704.00 944.00,704.00 944.00,704.00 944.00,704.00 944.00,704.00 944.00,704.00 944.00,704.00 944.00,704.00 944.00,704.00 944.00,704.00 944.00,704.00 944.00,704.00 944.00,704.00 944.00,704.00 944.00,704.00 944.00,704.00 944.00,704.00 944.00,704.00 944.00,704.00 944.00,704.00 944.00,704.00 944.00,704.00 944.00,704.00 944.00,704.00 944.00,704.00 944.00,704.00 944.00,704.00 944.00,704.00 944.00,704.00 944.00,704.00 944.00,704.00 944.00,704.00 944.00,704.00 944.00,704.00 944.00,704.00 944.00,704.00 944.00,704.00 944.00,704.00 944.00,704.00 944.00,704.00 944.00,704.00 944.00,704.00 944.00,704.00 944.00,704.00 944.00,704.00 944.00,704.00 944.00,704.00 944.00,704.00 944.00,704.00 944.00,704.00 944.00,704.00 944.00,704.00 944.00,704.00 944.00,704.00 944.00,704.00 944.00,704.00 944.00,704.00 944.00,704.00 944.00,704.00 944.00,704.00 944.00,704.00 944.00,704.00 327.47,399.24 67.16,256.41 66.42,225.16 67.59,218.64 68.34,213.87 68.36,212.23 66.62,210.83 64.17,209.29 61.14,205.73 58.44,202.24 56.00,198.80 65.99,188.63 73.96,180.45 77.37,176.47 77.49,181.26 76.61,188.58 76.51,192.93 76.58,197.97 76.78,203.54 76.57,207.68 76.48,211.50 76.64,214.68 77.34,215.84 78.26,216.12 79.23,216.02 80.04,215.16 80.70,213.57 81.08,211.59 81.35,209.74 81.41,208.30 81.73,206.69 82.16,205.10 82.50,204.48 82.81,203.55 83.07,202.29 83.10,200.85 83.12,199.40 83.19,197.98 83.44,197.04 83.76,196.31 84.05,195.67 84.24,195.37 84.31,195.47 84.44,195.54 84.57,195.58 84.66,195.58 84.77,195.47 84.86,195.30 84.81,195.08 84.75,194.96 84.70,194.94 84.60,194.47 84.45,194.06 84.15,194.04 83.95,193.91 84.03,192.10 86.52,173.74 87.80,163.34 87.49,163.38 88.84,151.19 90.62,136.88 92.84,121.31 93.47,116.86" fill="none" stroke="#f97316" stroke-width="2" opacity="0.65"/>
  <polyline points="119.61,102.43 119.61,102.43 119.61,102.43 119.61,102.43 119.61,102.43 119.61,102.43 119.61,102.43 119.61,102.43 119.61,102.43 119.61,102.43 119.61,102.43 119.61,102.43 119.61,102.43 119.61,102.43 119.61,102.43 119.61,102.43 119.61,102.43 119.61,102.43 119.61,102.43 119.61,102.43 119.61,102.43 119.61,102.43 119.61,102.43 119.61,102.43 119.61,102.43 119.61,102.43 119.61,102.43 119.61,102.43 119.61,102.43 119.61,102.43 119.61,102.43 119.61,102.43 119.61,102.43 119.61,102.43 119.61,102.43 119.61,102.43 119.61,102.43 119.61,102.43 119.61,102.43 119.61,102.43 119.61,102.43 119.61,102.43 119.61,102.43 119.61,102.43 119.61,102.43 119.61,102.43 119.61,102.43 119.61,102.43 119.61,102.43 119.61,102.43 119.61,102.43 119.61,102.43 119.61,102.43 119.61,102.43 119.61,102.43 119.61,102.43 119.61,102.43 119.61,102.43 119.61,102.43 119.61,102.43 119.61,102.43 119.61,102.43 119.61,102.43 119.61,102.43 119.61,102.43 119.61,102.43 119.61,102.43 119.61,102.43 119.61,102.43 119.61,102.43 119.61,102.43 119.61,102.43 119.61,102.43 119.61,102.43 119.61,102.43 119.61,102.43 119.61,102.43 119.61,102.43 119.61,102.43 119.61,102.43 119.61,102.43 119.61,102.43 119.61,102.43 119.61,102.43 119.61,102.43 119.61,102.43 119.61,102.43 119.61,102.43 119.61,102.43 119.61,102.43 119.61,102.43 119.61,102.43 119.61,102.43 119.61,102.43 119.61,102.43 119.61,102.43 119.61,102.43 119.61,102.43 119.61,102.43 119.61,102.43 119.61,102.43 119.61,102.43 119.61,102.43 119.61,102.43 119.61,102.43 119.61,102.43 119.61,102.43 119.61,102.43 119.61,102.43 119.61,102.43 119.61,102.43 119.61,102.43 119.61,102.43 119.61,102.43 119.61,102.43 119.61,102.43 119.61,102.43 119.61,102.43 119.61,102.43 119.61,102.43 119.61,102.43 119.61,102.43 119.61,102.43 119.61,102.43 119.61,102.43 119.61,102.43 119.61,102.43 119.61,102.42 119.53,102.36 119.17,102.17 118.46,101.87 117.47,101.69 116.37,101.75 115.40,101.89 114.77,102.10 114.48,102.29 114.25,102.42 114.27,102.50 114.77,102.56 115.49,102.75 116.20,103.12 116.66,103.66 116.60,104.24 115.75,104.70 115.27,104.88 114.89,104.78 114.78,104.51 115.07,104.19 115.50,103.86 115.68,103.63 115.50,103.45 115.14,103.46 114.67,103.52 114.19,103.52 113.83,103.45 113.73,103.39 114.03,103.30 114.73,103.25 115.47,103.39 115.84,103.70 115.98,104.14 116.00,104.65 116.11,105.14 116.18,105.33 116.26,105.11 116.15,104.83 116.06,104.55 116.11,104.23 116.05,103.93 115.75,103.67 115.46,103.48 115.33,103.35 115.22,103.40 115.21,103.53 115.28,103.67 115.34,103.80 115.39,103.83 115.41,103.85 115.38,103.82 115.46,103.81 115.72,103.86 116.19,103.97 116.90,104.08 117.85,104.17 118.81,104.17 119.78,104.11 120.67,104.06 121.45,103.95 122.12,103.82 122.62,103.70 122.97,103.64 123.23,103.55 123.41,103.56 123.47,103.60 123.50,103.60 123.51,103.61 123.46,103.60 123.46,103.59 123.43,103.58 123.43,103.62 123.40,103.65 123.38,103.68 123.36,103.68 123.37,103.70 123.35,103.67 123.35,103.67 123.34,103.68 123.33,103.67 123.32,103.68 123.31,103.69 123.30,103.68 123.30,103.68 123.29,103.69 123.29,103.68 123.30,103.65 123.31,103.64 123.30,103.64 123.31,103.63 123.31,103.62 123.31,103.62 123.31,103.62 123.31,103.61 123.31,103.61 123.32,103.60 123.32,103.60 123.32,103.60 123.32,103.60 123.32,103.59 123.32,103.59 123.32,103.59 123.32,103.59 123.32,103.58 123.32,103.58 123.33,103.58 123.33,103.57 123.33,103.57 123.33,103.57 123.33,103.57 123.33,103.57 123.33,103.57 123.33,103.57 123.33,103.57 123.33,103.57 123.33,103.57 123.33,103.56 123.33,103.56 123.33,103.56 123.33,103.56 123.33,103.56 123.33,103.56 123.34,103.56 123.34,103.55 123.34,103.55 123.34,103.55 123.34,103.55 123.34,103.55 123.34,103.54 123.34,103.54 123.34,103.54 123.34,103.54 123.34,103.54 123.34,103.54 123.35,103.54 123.35,103.53 123.35,103.53 123.35,103.53 123.35,103.53 123.35,103.53 123.35,103.53 123.35,103.53 123.35,103.53 123.35,103.53 123.36,103.53 123.36,103.53 123.35,103.53 123.35,103.52 123.35,103.53 123.35,103.52 123.36,103.52 123.36,103.52 123.36,103.52 123.36,103.52 123.35,103.52 123.35,103.52 123.36,103.52 123.36,103.52 123.36,103.52 123.36,103.52 123.36,103.52 123.36,103.53 123.36,103.52 123.36,103.52 123.36,103.52 123.36,103.52 123.35,103.53 123.36,103.52 123.36,103.52 123.36,103.52 123.35,103.52 123.36,103.52 123.36,103.53 123.36,103.52 123.35,103.52 123.40,103.56 123.50,103.57 123.79,103.65 124.07,103.71 124.40,103.83 124.56,103.98 124.49,103.89 124.03,103.56 123.64,103.39 123.31,103.18 122.97,102.78 122.89,102.46 123.31,102.14 124.18,101.84 125.15,101.60 125.94,101.34 126.46,101.13 127.04,100.90 127.68,100.65 128.26,100.42 128.85,100.22 129.30,100.21 129.77,100.30 129.74,100.45 129.29,100.83 128.70,101.01 128.70,100.81 128.88,100.72 129.03,100.66 129.14,100.60 129.13,100.52 129.16,100.51 129.24,100.51 129.34,100.52 129.49,100.59 129.70,100.66 129.94,100.61 130.02,100.48 130.00,100.50 130.00,100.60 129.96,100.69 129.94,100.76 129.89,100.82 129.87,100.79 129.82,100.79 129.76,100.81 129.74,100.84 129.71,100.83 129.72,100.80 129.73,100.75 129.72,100.70 129.71,100.64 129.68,100.61 129.65,100.54 129.64,100.53 129.64,100.54 129.59,100.55 129.50,100.55 129.40,100.59 129.30,100.61 129.19,100.64 129.10,100.72 128.91,100.79 128.73,100.86 128.59,100.96 128.39,101.04 128.26,101.15 128.10,101.27 127.97,101.38 127.84,101.49 127.69,101.61 127.53,101.77 127.43,101.90 127.38,102.08 127.34,102.25 127.26,102.43 127.14,102.64 127.05,102.82 126.97,103.03 126.88,103.28 126.83,103.51 126.79,103.81 126.76,104.10 126.71,104.40 126.70,104.71 126.68,105.05 126.70,105.44 126.70,105.86 126.70,106.32 126.69,106.79 126.65,107.32 126.64,107.84 126.61,108.39 126.61,108.93 126.67,109.53 126.74,110.05 126.65,110.56 126.55,111.04 126.50,111.47 126.41,111.87 126.30,112.23 126.25,112.61 126.12,112.98 125.99,113.31 125.86,113.57 125.86,113.87 125.85,114.20 125.83,114.55 125.80,114.93 125.72,115.31 125.63,115.64 125.53,116.00 125.46,116.36 125.42,116.69 125.31,117.07 125.14,117.43 124.81,117.78 124.49,118.09 124.04,118.41 123.57,118.76 123.02,119.02 122.36,119.27 121.74,119.58 121.05,119.90 120.31,120.22 119.56,120.60 118.84,121.05 118.12,121.47 117.37,121.82 116.63,122.24 115.85,122.67 115.01,123.17 114.11,123.72 113.18,124.33 112.24,124.92 111.25,125.55 110.30,126.19 109.40,126.79 108.47,127.45 107.52,128.08 106.70,128.69 105.75,129.37 104.88,130.01 103.96,130.69 103.11,131.39 102.27,132.13 101.51,132.90 100.86,133.71 100.10,134.52 99.39,135.28 98.77,135.96 98.23,136.52 97.69,137.15 97.11,137.79 96.50,138.50 96.06,139.24 95.58,139.96 95.02,140.60 94.55,141.28 94.10,141.97 93.76,142.76 93.41,143.52 93.22,144.30 92.97,145.07 92.71,145.85 92.53,146.71 92.29,147.67 92.11,148.63 91.90,149.64 91.64,150.68 91.39,151.71 91.09,152.77 90.82,153.79 90.50,154.83 90.29,155.90 89.98,156.98 89.69,158.02 89.42,159.06 89.09,160.09 88.83,161.16 88.49,162.21 88.04,163.25 87.65,164.31 87.26,165.35 86.87,166.27 86.54,167.13 86.27,167.96 86.00,168.84 85.64,169.65 85.41,170.48 85.17,171.32 84.89,172.13 84.54,172.95 84.16,173.76 83.75,174.60 83.31,175.40 83.01,176.18 82.77,176.90 82.52,177.64 82.31,178.36 82.12,179.16 81.92,180.09 81.73,181.07 81.62,182.06 81.50,183.09 81.46,184.08 81.39,185.09 81.41,185.99 81.44,187.05 81.49,188.17 81.52,189.39 81.60,190.58 81.73,191.70 81.92,192.79 82.08,193.91 82.30,194.99 82.49,196.09 82.71,197.18 83.14,198.11 83.44,199.13 83.48,200.20 83.43,201.28 83.36,202.44 83.36,203.67 83.17,204.88 82.97,206.11 82.81,207.29 82.57,208.43 82.27,209.46 81.92,210.52 81.58,211.58 81.23,212.64 80.83,213.76 80.48,214.89 80.12,215.93 79.78,216.95 79.41,218.03 78.98,219.04 78.56,219.98 78.24,220.77 77.92,221.68 77.52,222.63 77.13,223.55 76.76,224.46 76.45,225.31 76.11,226.18 75.71,227.06 75.29,227.87 75.02,228.58 74.81,229.19 74.57,229.83 74.35,230.41 74.06,231.11 73.78,231.76 73.52,232.42 73.26,233.00 72.96,233.62 72.76,234.15 72.49,234.69 72.22,235.18 72.03,235.61 71.77,236.03 71.48,236.53 71.21,237.03 70.88,237.56 70.57,238.01 70.24,238.41 69.98,238.76 69.73,239.19 69.58,239.55 69.48,239.97 69.30,240.42 69.18,240.81 69.39,241.07 69.45,241.49 69.69,241.78 69.98,242.07 70.59,242.17 71.06,242.29 71.55,242.26 72.23,242.03 72.89,241.90 73.70,241.68 74.46,241.51 75.31,241.30 76.27,241.10 77.08,240.96 77.91,240.77 78.77,240.49 79.71,240.07 80.68,239.66 81.74,239.16 82.87,238.79 84.09,238.39 85.42,237.97 86.77,237.57 88.07,237.24 89.42,236.91 90.76,236.68 92.11,236.47 93.47,236.17 94.76,235.93 95.96,235.83 97.08,235.58 98.28,235.40 99.47,235.14 100.64,234.97 101.77,234.68 102.90,234.57 103.99,234.41 105.07,234.26 106.22,234.07 107.38,233.82 108.43,233.64 109.42,233.52 110.31,233.42 111.25,233.37 112.15,233.31 113.03,233.30 113.85,233.29 114.64,233.39 115.41,233.47 116.09,233.60 116.69,233.70 117.24,233.98 117.90,234.19 118.55,234.45 119.06,234.73 119.43,235.07 119.80,235.55 120.08,236.01 120.56,236.89 120.95,237.58 121.22,238.09 121.50,238.50 121.83,238.71 122.20,238.81 122.54,238.89 122.83,238.88 123.15,239.10 123.58,239.16 123.98,239.26 124.37,239.27 124.82,239.23 125.31,239.13 125.84,239.08 126.38,239.01 126.93,238.90 127.56,238.72 128.24,238.51 128.97,238.34 129.64,238.17 130.33,238.10 131.08,238.11 131.83,238.06 132.60,238.00 133.43,237.90 134.31,237.78 135.16,237.70 136.02,237.64 136.90,237.56 137.78,237.44 138.66,237.39 139.55,237.32 140.49,237.26 141.46,237.19 142.37,237.13 143.31,237.05 144.18,236.94 145.00,236.88 145.79,236.84 146.62,236.73 147.43,236.57 148.15,236.49 148.81,236.45 149.44,236.42 150.10,236.41 150.75,236.38 151.41,236.37 152.03,236.36 152.66,236.40 153.24,236.64 153.81,236.91 154.21,237.20 154.28,237.44 154.58,237.57 154.94,237.72 155.26,237.81 155.50,237.94 155.77,238.02 155.89,238.09 155.93,238.17 155.96,238.28 155.98,238.47 156.06,238.66 156.14,238.88 156.24,239.06 156.36,239.27 156.53,239.47 156.71,239.71 156.95,239.96 157.21,240.15 157.48,240.34 157.79,240.52 158.16,240.69 158.56,240.84 158.96,240.99 159.35,241.12 159.73,241.19 160.04,241.21 160.44,241.11 160.89,241.03 161.31,240.97 161.69,240.97 162.03,241.04 162.34,241.16 162.60,241.35 162.84,241.53 163.10,241.74 163.40,241.95 163.69,242.16 164.02,242.43 164.35,242.69 164.70,242.97 165.00,243.19 165.34,243.39 165.64,243.56 165.93,243.73 166.19,243.95 166.40,244.18 166.59,244.43 166.77,244.69 166.90,244.94 167.03,245.13 167.23,245.22 167.45,245.25 167.67,245.26 167.91,245.23 168.17,245.20 168.48,245.17 168.77,245.16 169.04,245.16 169.33,245.18 169.62,245.23 169.91,245.32 170.17,245.47 170.42,245.68 170.67,245.89 170.91,246.10 171.16,246.30 171.39,246.45 171.65,246.61 171.90,246.72 172.15,246.86 172.33,247.04 172.50,247.20 172.68,247.39 172.88,247.56 173.07,247.76 173.28,247.97 173.49,248.20 173.66,248.43 173.78,248.65 173.88,248.82 173.97,248.98 174.06,249.10 174.12,249.19 174.18,249.27 174.30,249.32 174.41,249.39 174.49,249.47 174.61,249.56 174.74,249.64 174.88,249.76 175.02,249.89 175.17,250.03 175.33,250.21 175.49,250.40 175.63,250.61 175.81,250.87 175.95,251.18 176.09,251.52 176.19,251.91 176.25,252.29 176.28,252.66 176.38,252.93 176.51,253.17 176.63,253.40 176.72,253.60 176.84,253.78 176.98,253.95 177.09,254.15 177.12,254.41 177.11,254.65 177.13,254.89 177.16,255.14 177.17,255.41 177.21,255.71 177.23,256.00 177.24,256.34 177.27,256.62 177.38,256.91 177.54,257.16 177.73,257.44 177.93,257.72 178.09,257.97 178.34,258.21 178.54,258.46 178.77,258.80 178.92,259.18 179.10,259.64 179.19,260.12 179.37,260.54 179.73,260.92 180.06,261.29 180.31,261.66 180.60,262.00 180.84,262.41 181.06,262.83 181.27,263.34 181.44,263.87 181.68,264.40 181.92,264.96 182.16,265.53 182.36,266.08 182.55,266.64 182.71,267.22 182.78,267.81 182.78,268.42 182.76,268.98 182.73,269.44 182.79,269.75 182.91,269.94 183.00,270.05 183.04,270.12 183.10,270.19 183.14,270.27 183.21,270.33 183.44,270.35 183.64,270.44 183.60,270.54 183.48,270.61 183.56,270.65 183.70,270.67 183.73,270.77 183.65,270.83 183.65,270.84 183.65,270.85 183.70,270.80 183.81,270.77 183.90,270.75 183.97,270.76 183.99,270.80 184.07,270.84 184.15,270.89 184.20,270.99 184.18,271.09 184.13,271.20 184.15,271.27 184.13,271.35 184.07,271.41 183.99,271.47 183.89,271.54 183.78,271.58 183.63,271.63 183.50,271.65 183.43,271.69 183.36,271.75 183.32,271.85 183.32,271.93 183.39,272.05 183.51,272.19 183.61,272.39 183.73,272.61 183.86,272.83 184.04,273.03 184.21,273.20 184.42,273.33 184.66,273.44 184.96,273.51 185.21,273.62 185.43,273.66 185.64,273.68 185.84,273.69 186.03,273.71 186.20,273.73 186.41,273.76 186.60,273.85 186.66,274.08 186.64,274.32 186.66,274.51 186.68,274.69 186.64,274.83 186.54,274.97 186.43,275.08 186.23,275.15 186.02,275.27 185.74,275.33 185.54,275.37 185.34,275.39 185.17,275.44 185.00,275.47 184.86,275.58 184.74,275.65 184.64,275.74 184.61,275.85 184.63,275.94 184.72,276.05 184.88,276.14 185.01,276.34 185.10,276.55 185.24,276.73 185.40,276.91 185.56,277.09 185.70,277.28 185.83,277.49 185.95,277.71 186.07,277.95 186.22,278.21 186.36,278.48 186.53,278.75 186.69,279.05 186.85,279.35 187.03,279.66 187.19,279.98 187.32,280.30 187.46,280.62 187.69,280.88 187.85,281.21 187.98,281.50 188.08,281.76 188.21,282.00 188.33,282.24 188.36,282.46 188.39,282.68 188.40,282.88 188.43,283.07 188.46,283.22 188.50,283.37 188.53,283.50 188.56,283.63 188.59,283.75 188.58,283.88 188.55,284.01 188.55,284.11 188.60,284.26 188.66,284.39 188.76,284.52 188.87,284.69 188.97,284.82 189.11,284.93 189.30,285.01 189.49,285.08 189.70,285.14 189.96,285.20 190.26,285.31 190.55,285.46 190.80,285.65 191.05,285.86 191.33,286.08 191.62,286.31 191.86,286.54 192.13,286.74 192.39,286.97 192.60,287.18 192.83,287.35 193.09,287.52 193.26,287.72 193.46,287.91 193.68,288.08 193.87,288.29 194.05,288.47 194.22,288.66 194.39,288.89 194.56,289.09 194.74,289.30 194.90,289.47 195.09,289.64 195.24,289.79 195.37,289.91 195.51,290.00 195.64,290.10 195.75,290.18 195.84,290.25 195.89,290.31 195.91,290.35 195.98,290.45 196.07,290.61 196.12,290.76 196.19,290.95 196.23,291.09 196.28,291.22 196.31,291.35 196.31,291.47 196.33,291.59 196.36,291.67 196.41,291.70 196.48,291.70 196.59,291.67 196.72,291.61 196.91,291.53 197.11,291.44 197.35,291.34 197.67,291.26 197.94,291.18 198.25,291.08 198.62,291.02 198.97,290.98 199.33,290.95 199.70,290.92 200.08,290.88 200.42,290.85 200.79,290.82 201.21,290.80 201.61,290.80 201.99,290.82 202.28,290.85 202.57,290.89 202.92,290.93 203.27,290.97 203.60,290.99 203.93,290.99 204.26,290.98 204.60,290.96 204.93,290.93 205.20,290.87 205.54,290.85 205.56,290.82 205.50,290.77 205.53,290.72 205.52,290.74 205.48,290.75 205.43,290.77 205.37,290.78 205.34,290.79 205.31,290.80 205.28,290.81 205.24,290.82 205.22,290.83 205.20,290.83 205.16,290.85 205.12,290.85 205.12,290.86 205.08,290.86 205.09,290.87 205.05,290.87 205.06,290.87 205.04,290.88 205.02,290.88 205.02,290.88 205.00,290.89 205.00,290.90 204.94,290.90 204.86,290.91 204.74,290.95 204.61,290.99 204.51,291.10 204.35,291.20 204.22,291.23 204.12,291.15 204.00,290.96 203.86,290.68 203.68,290.38 203.55,290.08 203.35,289.82 203.18,289.59 202.96,289.37 202.78,289.19 202.56,289.02 202.36,288.89 202.13,288.77 201.92,288.67 201.68,288.60 201.45,288.53 201.22,288.45 201.01,288.37 200.76,288.28 200.50,288.16 200.26,288.05 200.01,287.93 199.74,287.82 199.45,287.70 199.14,287.54 198.64,287.35 198.21,287.12 197.77,286.89 197.31,286.71 196.93,286.57 196.45,286.44 196.05,286.37 195.61,286.32 195.19,286.30 194.82,286.34 194.44,286.39 194.13,286.47 193.85,286.56 193.55,286.62 193.34,286.71 193.18,286.80 193.09,286.91 193.04,287.03 193.08,287.18 193.17,287.33 193.29,287.49 193.47,287.70 193.68,287.92 193.89,288.14 194.14,288.39 194.40,288.68 194.65,288.99 194.83,289.29 194.99,289.60 195.08,289.92 195.15,290.25 195.18,290.59 195.23,290.92 195.29,291.24 195.28,291.48 195.18,291.64 195.14,291.72 195.06,291.71 195.04,291.65 195.02,291.54 195.00,291.37 195.00,291.17 194.92,290.91 194.88,290.60 194.76,290.27 194.66,289.95 194.56,289.64 194.43,289.38 194.29,289.14 194.14,288.93 193.97,288.75 193.78,288.56 193.64,288.41 193.47,288.25 193.29,288.07 193.17,287.86 193.17,287.66 193.04,287.43 192.95,287.15 192.86,286.86 192.71,286.54 192.56,286.25 192.43,285.99 192.36,285.77 192.29,285.60 192.22,285.47 192.13,285.35 192.06,285.26 191.99,285.19 191.85,285.10 191.76,285.05 191.64,284.99 191.52,284.93 191.41,284.88 191.27,284.80 191.21,284.73 191.03,284.60 190.80,284.42 190.51,284.21 190.24,283.99 190.02,283.77 189.88,283.62 189.64,283.50 189.49,283.46 189.36,283.45 189.23,283.47 189.10,283.50 188.95,283.54 188.85,283.60 188.76,283.69 188.65,283.78 188.55,283.87 188.46,283.95 188.34,284.01 188.21,284.07 188.01,284.11 187.86,284.17 187.70,284.20 187.55,284.22 187.44,284.23 187.31,284.22 187.15,284.19 187.02,284.16 186.89,284.13 186.75,284.09 186.62,284.07 186.41,284.05 186.26,284.03 186.13,284.01 186.02,283.97 185.90,283.89 185.84,283.79 185.80,283.66 185.78,283.48 185.78,283.26 185.83,283.02 185.87,282.74 185.87,282.42 185.89,282.14 185.89,281.88 185.82,281.64 185.63,281.46 185.41,281.28 185.27,281.11 185.16,281.03 185.02,280.93 184.86,280.85 184.80,280.75 184.78,280.65 184.62,280.53 184.48,280.41 184.45,280.28 184.43,280.15 184.36,279.84 184.21,279.54 184.15,279.23 184.12,279.01 183.86,278.90 183.71,278.97 183.57,279.15 183.34,279.36 183.29,279.59 183.60,279.74 184.37,279.80 185.63,279.80 187.07,279.83 188.99,279.96 190.66,280.05 192.52,280.13 194.33,280.16 196.25,280.20 196.98,279.74 198.29,279.44 199.90,279.07 200.10,278.75 200.84,278.30 200.90,277.93 200.82,277.61 200.51,277.34 200.25,277.06 200.03,276.78 199.81,276.46 199.63,276.16 199.41,275.87 199.10,275.56 198.81,275.25 198.52,274.86 198.34,274.49 198.18,274.15 197.94,273.83 197.62,273.56 197.30,273.27 197.11,272.97 196.89,272.65 196.70,272.29 196.49,271.90 196.36,271.51 196.20,271.11 196.09,270.67 196.06,270.18 196.06,269.62 196.09,268.99 196.01,268.33 195.94,267.77 196.00,267.36 196.09,267.08 196.03,266.82 195.88,266.53 195.70,266.22 195.56,265.95 195.44,265.77 195.33,265.71 195.18,265.75 195.12,265.88 195.00,266.01 194.93,266.14 194.75,266.20 194.72,266.18 194.58,266.12 194.31,266.02 194.18,265.92 194.19,265.81 194.30,265.73 194.51,265.70 194.69,265.73 194.76,265.84 194.78,265.96 194.82,266.10 195.00,266.25 195.05,266.36 195.17,266.38 195.26,266.29 195.35,266.13 195.40,265.90 195.45,265.70 195.50,265.56 195.56,265.50 195.62,265.50 195.68,265.56 195.62,265.63 195.66,265.73 195.64,265.83 195.73,266.00 195.87,266.23 196.04,266.47 196.06,266.65 196.15,266.79 196.22,266.91 196.32,267.02 196.51,267.15 196.73,267.28 196.93,267.37 197.16,267.43 197.37,267.45 197.50,267.45 197.57,267.40 197.66,267.34 197.66,267.28 197.65,267.22 197.87,267.22 198.03,267.27 198.22,267.34 198.41,267.42 198.56,267.48 198.67,267.54 198.79,267.57 198.93,267.62 199.15,267.68 199.42,267.77 199.76,267.89 199.84,268.03 199.96,268.10 200.06,268.08 200.11,268.08 200.00,268.07 199.92,268.07 199.78,268.05 199.59,268.04 199.49,268.02 199.34,267.97 199.17,267.89 198.97,267.81 198.75,267.75 198.60,267.75 198.48,267.79 198.40,267.88 198.38,268.04 198.34,268.22 198.33,268.40 198.27,268.57 198.21,268.71 198.25,268.86 198.33,268.99 198.38,269.05 198.39,269.01 198.43,268.90 198.46,268.69 198.51,268.44 198.53,268.18 198.56,267.91 198.65,267.71 198.73,267.57 198.83,267.45 198.94,267.36 199.00,267.28 199.04,267.16 199.06,266.99 199.10,266.77 199.06,266.49 199.01,266.16 198.95,265.80 198.89,265.44 198.80,265.08 198.65,264.72 198.45,264.34 198.28,263.95 197.72,263.31 197.58,262.89 197.40,262.41 197.25,261.89 197.14,261.33 197.00,260.75 196.81,260.15 196.55,259.52 196.24,258.88 195.85,258.20 195.32,257.47 194.78,256.68 194.35,255.90 193.88,255.10 193.31,254.22 192.71,253.31 192.01,252.32 191.37,251.36 190.72,250.36 190.07,249.40 189.31,248.46 188.62,247.63 188.10,247.09 187.69,246.78 187.45,246.65 187.41,246.63 187.62,246.62 187.77,246.67 187.51,246.83 187.03,247.00 186.80,247.01 186.47,247.07 186.08,247.17 185.40,246.99 184.67,246.50 183.85,246.29 183.06,246.16 182.28,246.05 181.53,246.01 180.91,246.11 180.41,246.33 179.88,246.57 179.28,246.90 178.77,247.33 178.32,247.79 177.87,248.24 177.52,248.69 177.28,249.13 177.13,249.45 176.61,249.72 176.21,249.89 175.97,249.98 175.81,249.96 175.64,249.90 175.48,249.78 175.15,249.58 174.92,249.34 174.70,249.08 174.37,248.78 174.05,248.46 173.71,248.11 173.20,247.73 172.52,247.29 171.85,246.91 171.30,246.61 170.85,246.38 170.25,246.17 169.63,245.97 168.93,245.79 168.21,245.64 167.47,245.55 166.80,245.48 166.19,245.46 165.54,245.48 164.94,245.53 164.22,245.59 163.48,245.56" fill="none" stroke="#16a34a" stroke-width="2" opacity="0.65"/>
  <polyline points="106.60,111.65 106.60,111.65 106.60,111.65 106.60,111.65 106.60,111.65 106.61,111.64 106.61,111.64 106.61,111.64 106.57,111.62 106.60,111.65 106.60,111.65 106.60,111.64 106.60,111.64 106.60,111.63 106.60,111.62 106.60,111.62 106.61,111.64 106.59,111.63 106.60,111.62 106.60,111.62 106.60,111.62 106.60,111.62 106.59,111.62 106.59,111.63 106.59,111.63 106.59,111.63 106.59,111.63 106.60,111.65 106.59,111.63 106.59,111.63 106.59,111.64 106.59,111.64 106.60,111.64 106.60,111.65 106.60,111.65 106.60,111.65 106.59,111.63 106.60,111.65 106.60,111.65 106.60,111.65 106.59,111.64 106.59,111.64 106.59,111.64 106.59,111.63 106.59,111.63 106.59,111.64 106.60,111.65 106.60,111.65 106.60,111.64 106.60,111.64 106.60,111.64 106.60,111.63 106.60,111.63 106.60,111.63 106.59,111.62 106.59,111.63 106.60,111.65 106.59,111.63 106.59,111.64 106.60,111.64 106.60,111.65 106.60,111.65 106.60,111.65 106.59,111.63 106.60,111.65 106.60,111.64 106.59,111.62 106.60,111.63 106.60,111.63 106.60,111.64 106.60,111.64 106.60,111.64 106.60,111.65 106.60,111.65 106.60,111.65 106.60,111.65 106.60,111.65 106.60,111.65 106.60,111.65 106.60,111.65 106.60,111.65 106.60,111.65 106.60,111.65 106.60,111.65 106.60,111.64 106.60,111.64 106.60,111.64 106.60,111.63 106.60,111.63 106.60,111.63 106.60,111.63 106.59,111.62 106.60,111.65 106.60,111.65 106.60,111.65 106.60,111.65 106.60,111.64 106.60,111.64 106.60,111.64 106.60,111.63 106.59,111.63 106.59,111.63 106.59,111.62 106.60,111.65 106.59,111.63 106.59,111.63 106.59,111.63 106.59,111.63 106.59,111.63 106.59,111.62 106.59,111.62 106.59,111.62 106.59,111.63 106.59,111.63 106.59,111.63 106.59,111.64 106.60,111.64 106.60,111.64 106.60,111.64 106.60,111.65 106.60,111.65 106.60,111.65 106.60,111.65 106.60,111.65 106.60,111.65 106.60,111.65 106.60,111.65 106.60,111.65 106.60,111.65 106.60,111.65 106.60,111.65 106.60,111.65 106.60,111.65 106.60,111.65 106.60,111.65 106.60,111.65 106.60,111.65 106.60,111.65 106.60,111.65 106.60,111.65 106.60,111.65 106.60,111.65 106.60,111.65 106.60,111.65 106.60,111.65 106.60,111.65 106.60,111.65 106.60,111.65 106.60,111.65 106.60,111.65 106.60,111.65 106.60,111.65 106.60,111.65 106.60,111.65 106.60,111.65 106.60,111.65 106.60,111.65 106.60,111.65 106.60,111.65 106.59,111.62 106.59,111.63 106.59,111.63 106.59,111.63 106.59,111.64 106.59,111.64 106.60,111.65 106.60,111.65 106.61,111.64 106.60,111.65 106.60,111.65 106.60,111.65 106.60,111.65 106.60,111.65 106.60,111.65 106.60,111.65 106.60,111.65 106.60,111.65 106.60,111.65 106.62,111.65 106.62,111.65 106.61,111.64 106.61,111.64 106.60,111.64 106.60,111.64 106.59,111.63 106.59,111.63 106.59,111.63 106.60,111.62 106.59,111.62 106.60,111.62 106.60,111.62 106.60,111.62 106.60,111.62 106.60,111.62 106.60,111.62 106.60,111.62 106.59,111.63 106.59,111.63 106.59,111.63 106.59,111.64 106.59,111.64 106.59,111.64 106.60,111.65 106.60,111.65 106.60,111.65 106.59,111.64 106.59,111.63 106.59,111.63 106.59,111.63 106.59,111.63 106.59,111.62 106.60,111.62 106.60,111.62 106.60,111.62 106.60,111.61 106.59,111.62 106.58,111.64 106.58,111.64 106.58,111.64 106.59,111.63 106.59,111.63 106.59,111.62 106.60,111.62 106.60,111.62 106.59,111.62 106.58,111.62 106.62,111.58 106.66,111.54 106.71,111.50 106.75,111.46 106.80,111.42 106.84,111.38 106.88,111.34 106.93,111.30 106.96,111.33 107.00,111.44 107.02,111.68 107.03,111.92 107.05,112.17 107.07,112.41 107.08,112.65 107.10,112.90 107.11,113.14 107.04,113.40 107.00,113.27 106.96,113.13 106.92,113.00 106.88,112.86 106.84,112.72 106.80,112.59 106.76,112.45 106.72,112.32 106.68,112.18 106.68,112.12 106.68,112.06 106.74,112.22 106.80,112.39 106.86,112.55 106.92,112.72 106.98,112.88 107.04,113.05 107.10,113.21 107.05,113.42 107.00,113.63 106.94,113.71 106.99,113.61 107.03,113.50 107.07,113.40 107.11,113.29 107.16,113.19 107.20,113.08 107.27,113.05 107.29,112.97 107.28,113.07 107.29,113.11 107.30,113.15 107.31,113.19 107.31,113.24 107.32,113.28 107.33,113.32 107.47,113.46 107.62,113.67 107.80,113.92 107.87,114.00 107.95,114.08 108.02,114.17 108.09,114.25 108.17,114.34 108.24,114.42 108.32,114.51 108.37,114.49 108.39,114.51 108.38,114.51 108.38,114.51 108.38,114.51 108.38,114.51 108.37,114.51 108.37,114.52 108.37,114.52 108.37,114.52 108.38,114.53 108.38,114.54 108.39,114.55 108.38,114.53 108.37,114.52 108.37,114.52 108.37,114.52 108.37,114.52 108.39,114.52 108.40,114.53 108.39,114.54 108.39,114.54 108.39,114.55 108.39,114.55 108.40,114.53 108.39,114.55 108.41,114.54 108.40,114.55 108.39,114.55 108.41,114.54 108.41,114.54 108.41,114.54 108.41,114.54 108.41,114.54 108.41,114.54 108.41,114.54 108.41,114.54 108.39,114.55 108.39,114.55 108.39,114.55 108.39,114.55 108.39,114.55 108.39,114.55 108.39,114.55 108.39,114.55 108.39,114.55 108.40,114.53 108.39,114.55 108.39,114.55 108.39,114.54 108.40,114.53 108.40,114.53 108.39,114.55 108.40,114.53 108.39,114.52 108.40,114.53 108.40,114.53 108.39,114.52 108.39,114.52 108.39,114.52 108.40,114.53 108.40,114.53 108.40,114.50 108.40,114.50 108.40,114.50 108.40,114.51 108.40,114.52 108.40,114.53 108.40,114.52 108.40,114.51 108.40,114.50 108.40,114.50 108.40,114.50 108.40,114.50 108.39,114.52 108.39,114.51 108.40,114.50 108.40,114.51 108.40,114.50 108.40,114.50 108.40,114.50 108.40,114.50 108.40,114.50 108.39,114.51 108.39,114.52 108.40,114.50 108.40,114.50 108.40,114.50 108.40,114.50 108.39,114.52 108.39,114.52 108.39,114.52 108.39,114.52 108.39,114.52 108.39,114.52 108.39,114.52 108.39,114.51 108.40,114.50 108.39,114.52 108.39,114.51 108.40,114.50 108.40,114.50 108.40,114.50 108.40,114.50 108.40,114.50 108.40,114.50 108.40,114.50 108.40,114.50 108.40,114.50 108.40,114.50 108.39,114.51 108.39,114.52 108.38,114.53 108.37,114.54 108.37,114.55 108.36,114.56 108.35,114.57 108.36,114.55 108.36,114.55 108.38,114.51 108.40,114.47 108.43,114.43 108.45,114.39 108.47,114.34 108.49,114.30 108.51,114.26 108.59,114.18 108.71,114.11 108.85,114.01 109.04,114.00 109.22,113.99 109.41,113.98 109.60,113.98 109.78,113.97 109.97,113.96 110.14,114.10 110.31,114.22 110.49,114.38 110.69,114.50 110.88,114.63 111.08,114.75 111.28,114.87 111.48,114.99 111.67,115.11 111.86,115.26 112.03,115.44 112.18,115.65 112.33,115.88 112.49,116.11 112.65,116.33 112.81,116.56 112.97,116.79 113.13,117.01 113.30,117.21 113.47,117.41 113.65,117.58 113.83,117.74 114.01,117.90 114.19,118.06 114.37,118.22 114.55,118.38 114.73,118.54 114.90,118.67 115.08,118.80 115.26,118.94 115.43,119.09 115.60,119.23 115.76,119.38 115.93,119.53 116.10,119.68 116.26,119.82 116.43,119.97 116.59,120.16 116.73,120.36 116.88,120.52 117.00,120.69 117.13,120.87 117.25,121.04 117.38,121.21 117.50,121.38 117.62,121.55 117.73,121.70 117.83,121.89 117.91,122.04 117.98,122.21 118.04,122.38 118.11,122.55 118.17,122.72 118.23,122.88 118.30,123.05 118.31,123.18 118.33,123.35 118.36,123.54 118.33,123.72 118.31,123.90 118.28,124.07 118.25,124.25 118.22,124.43 118.19,124.60 118.10,124.80 118.02,124.99 117.88,125.20 117.75,125.42 117.62,125.63 117.49,125.85 117.36,126.06 117.23,126.27 117.09,126.49 116.91,126.70 116.74,126.92 116.58,127.10 116.39,127.15 116.20,127.20 116.01,127.25 115.82,127.30 115.63,127.35 115.44,127.40 115.25,127.45 115.06,127.50 114.91,127.55 114.76,127.59 114.64,127.68 114.52,127.76 114.40,127.85 114.28,127.94 114.16,128.02 114.04,128.11 113.95,128.21 113.85,128.31 113.76,128.38 113.65,128.42 113.54,128.46 113.43,128.51 113.32,128.55 113.22,128.60 113.11,128.64 113.00,128.69 112.84,128.66 112.65,128.64 112.46,128.66 112.27,128.68 112.08,128.70 111.88,128.72 111.69,128.75 111.50,128.77 111.31,128.82 111.12,128.87 110.90,128.96 110.67,129.04 110.44,129.12 110.22,129.20 109.99,129.28 109.76,129.35 109.53,129.43 109.22,129.48 108.92,129.52 108.58,129.57 108.27,129.69 107.96,129.81 107.65,129.93 107.34,130.06 107.03,130.18 106.72,130.30 106.41,130.42 106.10,130.54 105.82,130.68 105.54,130.82 105.26,130.96 104.98,131.10 104.70,131.24 104.42,131.38 104.14,131.52 103.86,131.66 103.53,131.79 103.22,131.95 102.92,132.20 102.62,132.46 102.31,132.71 102.01,132.96 101.71,133.22 101.41,133.47 101.10,133.72 100.81,134.03 100.50,134.41 100.20,134.76 99.92,135.16 99.64,135.56 99.36,135.96 99.08,136.36 98.79,136.76 98.51,137.16 98.23,137.56 98.00,137.96 97.79,138.36 97.59,138.76 97.38,139.16 97.17,139.55 96.97,139.95 96.76,140.35 96.55,140.75 96.35,141.15 96.19,141.53 96.04,141.90 95.86,142.24 95.68,142.58 95.49,142.92 95.31,143.26 95.13,143.61 94.95,143.95 94.77,144.29 94.60,144.59 94.40,144.91 94.23,145.22 94.00,145.59 93.77,145.96 93.54,146.34 93.30,146.71 93.07,147.08 92.84,147.46 92.60,147.87 92.35,148.30 92.08,148.74 91.81,149.23 91.54,149.72 91.28,150.21 91.01,150.70 90.74,151.19 90.47,151.68 90.23,152.18 89.98,152.73 89.72,153.29 89.49,153.84 89.26,154.39 89.03,154.94 88.80,155.49 88.57,156.05 88.34,156.60 88.08,157.13 87.83,157.67 87.55,158.10 87.27,158.54 86.99,158.97 86.71,159.40 86.43,159.83 86.15,160.27 85.88,160.70 85.60,161.13 85.30,161.52 85.01,161.90 84.73,162.25 84.45,162.61 84.17,162.96 83.91,163.32 83.65,163.64 83.38,164.00 83.13,164.32 82.87,164.64 82.61,164.97 82.36,165.28 82.11,165.59 81.86,165.90 81.64,166.21 81.42,166.53 81.22,166.82 81.02,167.11 80.85,167.40 80.69,167.69 80.56,167.98 80.44,168.26 80.33,168.55 80.26,168.85 80.18,169.15 80.13,169.43 80.08,169.72 80.06,170.01 80.04,170.32 80.05,170.63 80.05,170.95 80.05,171.26 80.09,171.56 80.14,171.87 80.18,172.19 80.28,172.55 80.36,172.89 80.44,173.29 80.53,173.68 80.61,174.04 80.69,174.41 80.77,174.77 80.86,175.04 80.92,175.26 80.98,175.44 81.09,175.59 81.21,175.68 81.32,175.76 81.47,175.84 81.61,175.92 81.77,175.98 81.93,176.10 82.10,176.24 82.26,176.36 82.47,176.47 82.67,176.54 82.89,176.63 83.12,176.68 83.35,176.72 83.59,176.76 83.81,176.81 84.01,176.87 84.21,176.92 84.41,176.98 84.59,177.04 84.71,177.12 84.84,177.18 84.92,177.25 85.01,177.33 85.08,177.37 85.14,177.43 85.22,177.48 85.28,177.52 85.35,177.56 85.41,177.59 85.48,177.63 85.55,177.67 85.61,177.71 85.67,177.79 85.75,177.85 85.79,177.90 85.79,177.96 85.79,178.02 85.79,178.08 85.79,178.14 85.80,178.20 85.80,178.26 85.76,178.34 85.68,178.40 85.61,178.46 85.38,178.50 85.15,178.55 84.92,178.59 84.69,178.63 84.46,178.68 84.23,178.72 83.87,178.74 83.49,178.80 83.10,178.82 82.75,178.85 82.50,178.84 82.25,178.83 82.01,178.83 81.76,178.82 81.51,178.81 81.27,178.80 81.13,178.83 81.01,178.82 80.91,178.83 80.91,178.87 80.91,178.90 80.91,178.94 80.91,178.97 80.91,179.01 80.91,179.04 80.97,179.10 81.05,179.13 81.09,179.19 81.15,179.25 81.21,179.31 81.26,179.37 81.32,179.43 81.37,179.49 81.43,179.55 81.51,179.56 81.56,179.64 81.64,179.66 81.71,179.72 81.78,179.79 81.85,179.86 81.92,179.93 81.99,180.00 82.06,180.06 82.08,180.15 82.15,180.20 82.26,180.33 82.33,180.40 82.39,180.46 82.45,180.53 82.52,180.60 82.58,180.67 82.65,180.73 82.71,180.82 82.79,180.86 82.81,180.90 82.85,181.02 82.75,181.08 82.64,181.14 82.54,181.20 82.43,181.26 82.33,181.32 82.22,181.38 82.04,181.35 81.87,181.33 81.74,181.36 81.63,181.33 81.52,181.31 81.41,181.28 81.30,181.26 81.19,181.23 81.08,181.21 80.94,181.24 80.83,181.21 80.67,181.25 80.55,181.27 80.43,181.30 80.31,181.32 80.19,181.34 80.07,181.36 79.95,181.38 79.85,181.46 79.75,181.57 79.66,181.63 79.61,181.62 79.57,181.61 79.52,181.60 79.48,181.59 79.43,181.59 79.39,181.58 79.37,181.49 79.34,181.48 79.25,181.49 79.16,181.54 79.07,181.59 78.98,181.64 78.88,181.69 78.79,181.74 78.70,181.79 78.61,181.89 78.57,182.20 78.50,182.32 78.42,182.43 78.31,182.45 78.19,182.47 78.08,182.49 77.96,182.51 77.85,182.53 77.73,182.55 77.62,182.57 77.45,182.63 77.36,182.60 77.32,182.57 77.29,182.55 77.25,182.52 77.22,182.50 77.18,182.47 77.14,182.45 77.08,182.52 77.08,182.50 77.11,182.44 77.07,182.49 77.03,182.55 76.99,182.60 76.96,182.66 76.92,182.72 76.88,182.77 76.85,182.89 76.81,183.02 76.76,183.14 76.73,183.25 76.70,183.37 76.67,183.48 76.63,183.60 76.60,183.71 76.57,183.83 76.55,183.84 76.51,183.94 76.45,184.10 76.41,184.16 76.37,184.22 76.33,184.27 76.29,184.33 76.25,184.38 76.21,184.44 76.19,184.40 76.17,184.37 76.18,184.37 76.18,184.31 76.15,184.39 76.11,184.48 76.07,184.56 76.04,184.64 76.00,184.73 75.96,184.81 75.92,184.89 75.89,184.98 75.82,185.04 75.74,185.19 75.66,185.35 75.57,185.50 75.49,185.65 75.41,185.81 75.33,185.96 75.25,186.11 75.28,186.09 75.32,186.12 75.27,186.24 75.21,186.35 75.16,186.47 75.10,186.58 75.05,186.70 74.99,186.81 74.86,187.02 74.77,187.21 74.71,187.30 74.66,187.43 74.61,187.56 74.56,187.70 74.51,187.83 74.45,187.96 74.40,188.10 74.41,188.17 74.86,188.51 75.31,188.84 75.77,189.18 76.22,189.52 76.67,189.86 77.12,190.20 77.58,190.54 78.03,190.88 78.48,191.22 78.94,191.55 79.39,191.89 79.84,192.23 80.29,192.57 80.75,192.91 81.20,193.25 81.65,193.59 82.10,193.92 82.56,194.26 83.01,194.60 83.46,194.94 83.92,195.28 84.37,195.62 84.82,195.96 85.27,196.29 85.73,196.63 86.18,196.97 86.63,197.31 87.08,197.65 87.54,197.99 87.99,198.33 88.44,198.67 88.90,199.00 89.35,199.34 89.80,199.68 90.25,200.02 90.71,200.36 91.16,200.70 91.61,201.04 92.06,201.37 92.52,201.71 92.97,202.05 93.42,202.39 93.88,202.73 94.33,203.07 94.78,203.41 95.23,203.75 95.69,204.08 96.14,204.42 96.59,204.76 97.04,205.10 97.50,205.44 97.95,205.78 98.40,206.12 98.86,206.45 99.31,206.79 99.76,207.13 100.21,207.47 100.67,207.81 101.12,208.15 101.57,208.49 102.02,208.83 102.48,209.16 102.93,209.50 103.38,209.84 103.84,210.18 104.29,210.52 104.74,210.86 105.19,211.20 105.65,211.53 106.10,211.87 106.55,212.21 107.00,212.55 107.46,212.89 107.91,213.23 108.36,213.57 108.82,213.91 109.27,214.24 109.72,214.58 110.17,214.92 110.63,215.26 111.08,215.60 111.53,215.94 111.98,216.28 112.44,216.61 112.89,216.95 113.34,217.29 113.80,217.63 114.25,217.97 114.70,218.31 115.15,218.65 115.61,218.99 116.06,219.32 116.51,219.66 116.96,220.00 117.42,220.34 117.87,220.68 118.32,221.02 118.78,221.36 119.23,221.69 119.68,222.03 120.13,222.37 120.59,222.71 121.04,223.05 121.49,223.39 121.94,223.73 122.40,224.07 122.85,224.40 123.30,224.74 123.76,225.08 124.21,225.42 124.66,225.76 125.11,226.10 125.57,226.44 126.02,226.77 126.47,227.11 126.92,227.45 127.38,227.79 127.83,228.13 128.28,228.47 128.74,228.81 129.19,229.14 129.64,229.48 130.09,229.82 130.55,230.16 131.00,230.50 131.45,230.84 131.90,231.18 132.36,231.52 132.81,231.85 133.26,232.19 133.72,232.53 134.17,232.87 134.62,233.21 135.07,233.55 135.53,233.89 135.98,234.22 136.43,234.56 136.88,234.90 137.34,235.24 137.79,235.58 138.24,235.92 138.70,236.26 139.15,236.60 139.60,236.93 140.05,237.27 140.51,237.61 140.96,237.95 141.41,238.29 141.86,238.63 142.32,238.97 142.77,239.30 143.22,239.64 143.68,239.98 144.13,240.32 144.58,240.66 145.03,241.00 145.49,241.34 145.94,241.68 146.39,242.01 146.84,242.35 147.30,242.69 147.75,243.03 148.20,243.37 148.66,243.71 149.11,244.05 149.56,244.38 150.01,244.72 150.47,245.06 150.92,245.40 151.37,245.74 151.83,246.08 152.28,246.42 152.73,246.76 153.18,247.09 153.64,247.43 154.09,247.77 154.54,248.11 154.99,248.45 155.45,248.79 155.90,249.13 156.35,249.46 156.81,249.80 157.26,250.14 157.71,250.48 158.16,250.82 158.62,251.16 159.07,251.50 159.52,251.84 159.97,252.17 160.43,252.51 160.88,252.85 161.33,253.19 161.79,253.53 162.24,253.87 162.69,254.21 163.14,254.54 163.60,254.88 164.05,255.22 164.50,255.56 164.95,255.90 165.41,256.24 165.86,256.58 166.31,256.92 166.77,257.25 167.22,257.59 167.67,257.93 168.12,258.27 168.58,258.61 169.03,258.95 169.48,259.29 169.93,259.62 170.39,259.96 170.84,260.30 171.29,260.64 171.75,260.98 172.20,261.32 172.65,261.66 173.10,261.99 173.56,262.33 174.01,262.67 174.46,263.01 174.91,263.35 175.37,263.69 175.82,264.03 176.27,264.37 176.73,264.70 177.18,265.04 177.63,265.38 178.08,265.72 178.54,266.06 178.99,266.40 179.44,266.74 179.89,267.07 180.35,267.41 180.80,267.75 181.25,268.09 181.71,268.43 182.16,268.77 182.61,269.11 183.06,269.45 183.52,269.78 183.97,270.12 184.42,270.46 184.87,270.80 185.33,271.14 185.78,271.48 186.23,271.82 186.69,272.15 187.14,272.49 187.59,272.83 188.04,273.17 188.50,273.51 188.95,273.85 189.40,274.19 189.85,274.53 190.31,274.86 190.76,275.20 191.21,275.54 191.67,275.88 192.12,276.22 192.57,276.56 193.02,276.90 193.48,277.23 193.93,277.57 194.38,277.91 194.83,278.25 195.29,278.59 195.74,278.93 196.19,279.27 196.65,279.61 197.10,279.94 197.55,280.28 198.00,280.62 198.46,280.96 198.91,281.30 199.36,281.64 199.81,281.98 200.27,282.31 200.72,282.65 201.17,282.99 201.63,283.33 202.08,283.67 202.53,284.01 202.98,284.35 203.44,284.69 203.89,285.02 204.34,285.36 204.79,285.70 205.25,286.04 205.70,286.38 206.15,286.72 206.61,287.06 207.06,287.39 207.51,287.73 207.96,288.07 208.42,288.41 208.87,288.75 209.32,289.09 209.77,289.43 210.23,289.76 210.68,290.10 211.13,290.44 211.59,290.78 212.04,291.12 212.49,291.46 212.94,291.80 213.40,292.14 213.85,292.47 214.30,292.81 214.75,293.15 215.21,293.49 215.66,293.83 216.11,294.17 216.57,294.51 217.02,294.84 217.47,295.18 217.92,295.52 218.38,295.86 218.83,296.20 219.28,296.54 219.73,296.88 220.19,297.22 220.64,297.55 221.09,297.89 221.55,298.23 222.00,298.57 222.45,298.91 222.90,299.25 223.36,299.59 223.81,299.92 224.26,300.26 224.71,300.60 225.17,300.94 225.62,301.28 226.07,301.62 226.53,301.96 226.98,302.30 227.43,302.63 227.88,302.97 228.34,303.31 228.79,303.65 229.24,303.99 229.69,304.33 230.15,304.67 230.60,305.00 231.05,305.34 231.51,305.68 231.96,306.02 232.41,306.36 232.86,306.70 233.32,307.04 233.77,307.38 234.22,307.71 234.67,308.05 235.13,308.39 235.58,308.73 236.03,309.07 236.49,309.41 236.94,309.75 237.39,310.08 237.84,310.42 238.30,310.76 238.75,311.10 239.20,311.44 239.66,311.78 240.11,312.12 240.56,312.46 241.01,312.79 241.47,313.13 241.92,313.47 242.37,313.81 242.82,314.15 243.28,314.49 243.73,314.83 244.18,315.16 244.64,315.50 245.09,315.84 245.54,316.18 245.99,316.52 246.45,316.86 246.90,317.20 247.35,317.54 247.80,317.87 248.26,318.21 248.71,318.55 249.16,318.89 249.62,319.23 250.07,319.57 250.52,319.91 250.97,320.24 251.43,320.58 251.88,320.92 252.33,321.26 252.78,321.60 253.24,321.94 253.69,322.28 254.14,322.61 254.60,322.95 255.05,323.29 255.50,323.63 255.95,323.97 256.41,324.31 256.86,324.65 257.31,324.99 257.76,325.32 258.22,325.66 258.67,326.00 259.12,326.34 259.58,326.68 260.03,327.02 260.48,327.36 260.93,327.69 261.39,328.03 261.84,328.37 262.29,328.71 262.74,329.05 263.20,329.39 263.65,329.73 264.10,330.07 264.56,330.40 265.01,330.74 265.46,331.08 265.91,331.42 266.37,331.76 266.82,332.10 267.27,332.44 267.72,332.77 268.18,333.11 268.63,333.45 269.08,333.79 269.54,334.13 269.99,334.47 270.44,334.81 270.89,335.15 271.35,335.48 271.80,335.82 272.25,336.16 272.70,336.50 273.16,336.84 273.61,337.18 274.06,337.52 274.52,337.85 274.97,338.19 275.42,338.53 275.87,338.87 276.33,339.21 276.78,339.55 277.23,339.89 277.68,340.23 278.14,340.56 278.59,340.90 279.04,341.24 279.50,341.58 279.95,341.92 280.40,342.26 280.85,342.60 281.31,342.93 281.76,343.27 282.21,343.61 282.66,343.95 283.12,344.29 283.57,344.63 284.02,344.97 284.48,345.31 284.93,345.64 285.38,345.98 285.83,346.32 286.29,346.66 286.74,347.00 287.19,347.34 287.64,347.68 288.10,348.01 288.55,348.35 289.00,348.69 289.46,349.03 289.91,349.37 290.36,349.71 290.81,350.05 291.27,350.39 291.72,350.72 292.17,351.06 292.62,351.40 293.08,351.74 293.53,352.08 293.98,352.42 294.44,352.76 294.89,353.09 295.34,353.43 295.79,353.77 296.25,354.11 296.70,354.45 297.15,354.79 297.60,355.13 298.06,355.46 298.51,355.80 298.96,356.14 299.42,356.48 299.87,356.82 300.32,357.16 300.77,357.50 301.23,357.84 301.68,358.17 302.13,358.51 302.58,358.85 303.04,359.19 303.49,359.53 303.94,359.87 304.40,360.21 304.85,360.54 305.30,360.88 305.75,361.22 306.21,361.56 306.66,361.90 307.11,362.24 307.56,362.58 308.02,362.92 308.47,363.25 308.92,363.59 309.38,363.93 309.83,364.27 310.28,364.61 310.73,364.95 311.19,365.29 311.64,365.62 312.09,365.96 312.54,366.30 313.00,366.64 313.45,366.98 313.90,367.32 314.36,367.66 314.81,368.00 315.26,368.33 315.71,368.67 316.17,369.01 316.62,369.35 317.07,369.69 317.52,370.03 317.98,370.37 318.43,370.70 318.88,371.04 319.34,371.38 319.79,371.72 320.24,372.06 320.69,372.40 321.15,372.74 321.60,373.08 322.05,373.41 322.50,373.75 322.96,374.09 323.41,374.43 323.86,374.77 324.32,375.11 324.77,375.45 325.22,375.78 325.67,376.12 326.13,376.46 326.58,376.80 327.03,377.14 327.49,377.48 327.94,377.82 328.39,378.16 328.84,378.49 329.30,378.83 329.75,379.17 330.20,379.51 330.65,379.85 331.11,380.19 331.56,380.53 332.01,380.86 332.47,381.20 332.92,381.54 333.37,381.88 333.82,382.22 334.28,382.56 334.73,382.90 335.18,383.23 335.63,383.57 336.09,383.91 336.54,384.25 336.99,384.59 337.45,384.93 337.90,385.27 338.35,385.61 338.80,385.94 339.26,386.28 339.71,386.62 340.16,386.96 340.61,387.30 341.07,387.64 341.52,387.98 341.97,388.31 342.43,388.65 342.88,388.99 343.33,389.33 343.78,389.67 344.24,390.01 344.69,390.35 345.14,390.69 345.59,391.02 346.05,391.36 346.50,391.70 346.95,392.04 347.41,392.38 347.86,392.72 348.31,393.06 348.76,393.39 349.22,393.73 349.67,394.07 350.12,394.41 350.57,394.75 351.03,395.09 351.48,395.43 351.93,395.77 352.39,396.10 352.84,396.44 353.29,396.78 353.74,397.12 354.20,397.46 354.65,397.80 355.10,398.14 355.55,398.47 356.01,398.81 355.46,397.15 355.04,395.83 354.81,394.77 354.23,393.74 353.64,392.71 353.05,391.68 352.46,390.65 351.87,389.62 351.49,389.07 351.48,388.08 352.03,388.61 352.12,389.19 352.04,389.51 351.96,389.83 351.92,390.16 351.57,390.42 351.30,390.71 350.77,390.80 350.48,390.58 349.64,389.94 348.77,389.36 348.57,389.01 348.37,388.67 348.16,388.33 347.48,388.20 346.88,388.07 346.70,387.87" fill="none" stroke="#111827" stroke-width="4" opacity="0.9"/>
  <polyline points="106.85,111.54 107.04,111.45 107.30,111.33 107.45,111.26 107.54,111.21 107.61,111.17 107.64,111.14 107.66,111.11 107.67,111.08 107.67,111.05 107.67,111.03 107.66,111.02 107.64,111.01 107.63,111.00 107.61,110.99 107.60,110.99 107.58,111.00 107.56,111.00 107.54,111.01 107.53,111.01 107.51,111.01 107.50,111.02 107.48,111.01 107.47,111.01 107.46,111.00 107.45,110.99 107.44,110.99 107.43,110.99 107.43,110.99 107.43,110.99 107.43,111.00 107.43,111.00 107.43,111.00 107.44,111.00 107.44,111.00 107.44,111.00 107.44,111.00 107.44,111.00 107.43,111.01 107.43,111.02 107.43,111.04 107.42,111.06 107.42,111.08 107.42,111.10 107.41,111.12 107.41,111.14 107.40,111.15 107.40,111.17 107.40,111.18 107.39,111.20 107.39,111.21 107.39,111.22 107.39,111.22 107.40,111.23 107.40,111.24 107.39,111.25 107.39,111.26 107.39,111.27 107.39,111.29 107.39,111.30 107.39,111.33 107.38,111.35 107.38,111.37 107.38,111.38 107.38,111.40 107.37,111.41 107.37,111.43 107.36,111.44 107.35,111.45 107.34,111.46 107.33,111.47 107.33,111.48 107.32,111.48 107.31,111.48 107.30,111.48 107.28,111.48 107.27,111.46 107.26,111.45 107.24,111.44 107.23,111.44 107.22,111.44 107.22,111.44 107.21,111.45 107.21,111.46 107.21,111.47 107.21,111.50 107.21,111.53 107.21,111.55 107.21,111.58 107.21,111.60 107.21,111.61 107.20,111.62 107.19,111.63 107.18,111.64 107.18,111.63 107.17,111.63 107.16,111.62 107.15,111.61 107.13,111.59 107.12,111.58 107.26,111.48 107.35,111.40 107.42,111.35 107.49,111.29 107.55,111.25 107.60,111.20 107.65,111.17 107.69,111.13 107.72,111.10 107.76,111.08 107.79,111.06 107.82,111.04 107.85,111.02 107.88,111.01 107.91,111.00 107.93,110.99 107.95,110.98 107.98,110.97 108.00,110.96 108.01,110.95 108.03,110.94 108.04,110.94 108.06,110.93 108.07,110.92 108.08,110.91 108.09,110.90 108.10,110.89 108.11,110.87 108.11,110.86 108.12,110.85 108.13,110.84 108.13,110.83 108.14,110.83 108.14,110.82 108.15,110.81 108.15,110.80 108.16,110.79 108.16,110.78 108.17,110.77 108.17,110.76 108.18,110.75 108.18,110.73 108.18,110.72 108.18,110.72 108.18,110.71 108.19,110.70 108.19,110.70 108.19,110.69 108.19,110.69 108.20,110.69 108.20,110.69 108.20,110.68 108.20,110.68 108.21,110.68 108.21,110.67 108.21,110.67 108.21,110.67 108.22,110.66 108.22,110.66 108.23,110.66 108.23,110.67 108.23,110.67 108.24,110.67 108.24,110.68 108.25,110.69 108.25,110.71 108.26,110.72 108.26,110.74 108.27,110.76 108.28,110.78 108.29,110.80 108.29,110.83 108.30,110.86 108.31,110.88 108.32,110.91 108.33,110.93 108.34,110.96 108.36,110.98 108.37,111.01 108.38,111.04 108.39,111.07 108.41,111.10 108.42,111.13 108.43,111.16 108.45,111.19 108.46,111.22 108.48,111.25 108.49,111.28 108.51,111.31 108.52,111.33 108.53,111.36 108.55,111.39 108.56,111.42 108.57,111.44 108.59,111.47 108.60,111.49 108.61,111.52 108.63,111.54 108.64,111.56 108.65,111.59 108.67,111.61 108.68,111.63 108.70,111.66 108.71,111.68 108.73,111.70 108.74,111.72 108.76,111.74 108.77,111.76 108.79,111.78 108.80,111.80 108.82,111.82 108.83,111.83 108.85,111.85 108.86,111.86 108.88,111.88 108.90,111.89 108.91,111.91 108.93,111.92 108.95,111.93 108.97,111.94 108.98,111.95 109.00,111.97 109.02,111.98 109.04,111.99 109.06,112.01 109.07,112.02 109.09,112.03 109.06,112.02 108.97,111.98 108.82,111.95 108.62,111.93 108.37,111.94 108.06,111.99 107.74,112.10 107.57,112.26 107.46,112.37 107.56,112.46 107.84,112.57 108.16,112.75 108.53,113.03 108.89,113.44 108.97,113.92 108.78,114.28 108.49,114.49 108.24,114.41 108.26,114.14 108.49,114.03 108.76,113.94 108.95,113.83 108.90,113.71 108.73,113.71 108.44,113.74 108.15,113.73 107.93,113.65 107.96,113.57 108.23,113.51 108.51,113.52 108.85,113.60 109.16,113.81 109.35,114.10 109.48,114.44 109.66,114.83 109.79,114.99 109.91,114.84 109.90,114.67 109.90,114.50 109.99,114.29 110.00,114.08 109.87,113.90 109.70,113.74 109.64,113.61 109.61,113.65 109.65,113.75 109.77,113.87 109.88,113.99 109.99,114.02 110.06,114.03 110.08,114.01 110.19,114.02 110.36,114.07 110.60,114.16 110.94,114.27 111.36,114.40 111.86,114.51 112.42,114.61 113.02,114.69 113.62,114.73 114.17,114.73 114.59,114.70 114.86,114.72 115.02,114.73 115.08,114.83 114.99,114.97 114.86,115.05 114.78,115.13 114.67,115.18 114.61,115.23 114.55,115.27 114.51,115.36 114.45,115.43 114.41,115.52 114.36,115.57 114.33,115.65 114.29,115.68 114.27,115.74 114.25,115.79 114.22,115.84 114.20,115.88 114.18,115.94 114.16,115.99 114.14,116.04 114.13,116.10 114.12,116.14 114.11,116.16 114.11,116.21 114.10,116.25 114.10,116.28 114.09,116.32 114.09,116.36 114.08,116.40 114.08,116.44 114.07,116.47 114.06,116.51 114.06,116.54 114.05,116.58 114.04,116.61 114.04,116.64 114.03,116.67 114.02,116.70 114.02,116.73 114.01,116.76 114.00,116.78 113.99,116.80 113.99,116.83 113.98,116.85 113.97,116.88 113.96,116.90 113.96,116.92 113.95,116.94 113.95,116.97 113.94,116.99 113.94,117.00 113.93,117.02 113.93,117.04 113.92,117.05 113.92,117.06 113.92,117.07 113.91,117.09 113.91,117.10 113.91,117.11 113.90,117.12 113.90,117.13 113.90,117.14 113.90,117.15 113.90,117.16 113.90,117.17 113.89,117.18 113.89,117.18 113.89,117.18 113.89,117.18 113.89,117.18 113.90,117.17 113.90,117.17 113.90,117.17 113.90,117.16 113.91,117.16 113.91,117.15 113.91,117.14 113.92,117.13 113.92,117.13 113.93,117.12 113.93,117.11 113.94,117.10 113.94,117.09 113.94,117.08 113.95,117.07 113.95,117.05 113.97,117.04 113.97,117.03 113.98,117.02 113.98,117.00 113.98,116.99 113.99,116.97 114.00,116.96 114.01,116.95 114.01,116.93 114.02,116.92 114.03,116.90 114.05,116.89 114.06,116.87 114.07,116.85 114.08,116.84 114.10,116.82 114.10,116.80 114.12,116.78 114.14,116.77 114.15,116.75 114.16,116.73 114.18,116.71 114.19,116.70 114.21,116.68 114.22,116.66 114.26,116.66 114.33,116.66 114.46,116.68 114.61,116.71 114.81,116.77 114.95,116.87 114.88,116.79 114.75,116.69 114.55,116.60 114.32,116.44 114.09,116.20 114.01,115.96 114.06,115.79 114.14,115.66 114.26,115.55 114.43,115.43 114.63,115.32 114.88,115.21 115.16,115.10 115.45,115.01 115.75,114.94 116.04,114.99 116.33,115.09 116.22,115.39 116.13,115.62 116.05,115.79 116.09,115.76 116.29,115.78 116.47,115.84 116.60,115.90 116.61,115.96 116.69,116.08 116.81,116.22 116.95,116.39 117.12,116.58 117.31,116.79 117.51,116.96 117.65,117.11 117.76,117.30 117.85,117.54 117.93,117.78 118.01,118.01 118.07,118.24 118.16,118.42 118.24,118.62 118.32,118.82 118.42,119.02 118.52,119.19 118.65,119.35 118.77,119.48 118.90,119.61 119.01,119.73 119.13,119.86 119.24,119.96 119.37,120.10 119.51,120.24 119.62,120.39 119.70,120.54 119.78,120.71 119.85,120.87 119.93,121.02 120.01,121.21 120.05,121.39 120.09,121.57 120.14,121.76 120.17,121.94 120.23,122.13 120.28,122.33 120.34,122.52 120.40,122.70 120.44,122.90 120.48,123.11 120.56,123.31 120.67,123.53 120.80,123.74 120.88,123.95 120.93,124.18 121.00,124.37 121.08,124.60 121.14,124.83 121.23,125.06 121.33,125.32 121.43,125.58 121.50,125.83 121.60,126.10 121.68,126.38 121.77,126.69 121.85,127.01 121.91,127.35 121.96,127.69 121.98,128.06 122.02,128.43 122.03,128.81 122.04,129.18 122.08,129.58 122.12,129.93 122.05,130.27 121.96,130.59 121.88,130.85 121.77,131.08 121.64,131.27 121.54,131.47 121.38,131.64 121.23,131.78 121.06,131.85 120.99,131.95 120.91,132.06 120.82,132.19 120.73,132.34 120.60,132.47 120.47,132.58 120.32,132.70 120.20,132.83 120.10,132.93 119.95,133.06 119.77,133.18 119.50,133.29 119.22,133.37 118.90,133.46 118.55,133.56 118.15,133.59 117.71,133.61 117.27,133.64 116.79,133.68 116.30,133.70 115.81,133.74 115.33,133.81 114.85,133.87 114.36,133.89 113.89,133.93 113.40,133.98 112.92,134.05 112.42,134.13 111.93,134.23 111.44,134.33 110.95,134.42 110.47,134.52 110.01,134.63 109.54,134.76 109.07,134.90 108.64,135.04 108.18,135.22 107.75,135.38 107.31,135.56 106.90,135.76 106.50,135.97 106.15,136.21 105.86,136.47 105.53,136.73 105.22,136.97 104.95,137.20 104.72,137.38 104.50,137.60 104.26,137.82 104.02,138.07 103.86,138.35 103.69,138.61 103.46,138.84 103.30,139.09 103.15,139.34 103.06,139.62 102.97,139.89 102.96,140.15 102.93,140.41 102.88,140.68 102.87,140.96 102.83,141.26 102.80,141.56 102.77,141.87 102.71,142.19 102.65,142.51 102.56,142.84 102.46,143.18 102.33,143.52 102.23,143.88 102.09,144.25 101.95,144.61 101.80,144.98 101.63,145.36 101.48,145.74 101.29,146.12 101.06,146.49 100.85,146.86 100.64,147.22 100.41,147.58 100.20,147.93 100.02,148.28 99.85,148.64 99.64,148.99 99.50,149.34 99.36,149.69 99.20,150.05 99.02,150.39 98.81,150.73 98.60,151.08 98.37,151.41 98.19,151.74 98.05,152.06 97.90,152.38 97.77,152.69 97.65,153.04 97.52,153.41 97.38,153.80 97.26,154.19 97.14,154.59 97.04,154.99 96.93,155.40 96.86,155.80 96.77,156.23 96.67,156.67 96.55,157.12 96.44,157.58 96.35,158.04 96.27,158.51 96.16,158.99 96.06,159.47 95.94,159.95 95.82,160.43 95.77,160.87 95.66,161.34 95.46,161.84 95.23,162.36 94.97,162.89 94.73,163.41 94.42,163.94 94.10,164.48 93.79,165.00 93.44,165.51 93.06,166.02 92.66,166.52 92.26,167.02 91.86,167.52 91.45,168.02 91.05,168.51 90.66,168.98 90.34,169.87 90.01,170.79 89.63,171.72 89.24,172.63 88.92,173.45 88.59,174.36 88.20,175.30 87.82,176.23 87.45,177.16 87.13,178.04 86.78,178.94 86.38,179.85 85.96,180.69 85.68,181.43 85.46,182.08 85.21,182.75 84.99,183.37 84.69,184.11 84.40,184.79 84.13,185.49 83.86,186.12 83.55,186.77 83.34,187.36 83.07,187.94 82.78,188.49 82.58,188.96 82.31,189.44 82.01,190.00 81.73,190.55 81.39,191.13 81.07,191.65 80.73,192.11 80.46,192.53 80.19,193.03 80.01,193.47 79.87,193.95 79.66,194.47 79.51,194.93 79.58,195.29 79.62,195.76 79.84,196.10 80.13,196.43 80.45,196.70 80.87,196.89 81.28,196.96 81.65,197.03 82.11,197.08 82.58,197.14 83.12,197.16 83.69,197.17 84.29,197.20 84.98,197.18 85.70,197.12 86.42,197.00 87.13,196.83 87.89,196.66 88.66,196.46 89.52,196.30 90.41,196.14 91.33,195.98 92.30,195.81 92.24,192.57 91.44,188.33 91.24,186.12 91.29,184.74 91.46,183.76 91.71,183.03 92.02,182.51 92.34,182.05 92.70,181.68 93.08,181.35 93.45,181.09 93.82,180.83 94.17,180.66 94.52,180.51 94.85,180.38 95.18,180.26 95.49,180.13 95.78,180.04 96.02,180.00 96.23,179.98 96.44,179.99 96.62,180.00 96.78,180.04 96.90,180.10 96.99,180.20 97.71,180.23 98.38,180.30 98.99,180.37 99.58,180.54 100.23,180.69 100.88,180.88 101.44,181.11 101.89,181.36 102.36,181.70 102.70,182.11 103.22,182.59 103.67,183.11 103.98,183.61 104.26,184.05 104.56,184.26 104.93,184.35 105.24,184.41 105.47,184.29 105.76,184.55 106.20,184.64 106.62,184.75 107.02,184.76 107.48,184.75 107.97,184.70 108.50,184.68 109.05,184.66 109.59,184.59 110.19,184.49 110.82,184.37 111.49,184.28 112.15,184.17 112.84,184.14 113.56,184.17 114.29,184.16 115.04,184.14 115.83,184.09 116.65,184.04 117.47,183.99 118.31,183.98 119.17,183.94 120.03,183.88 120.90,183.86 121.78,183.84 122.70,183.83 123.65,183.80 124.56,183.79 125.50,183.75 126.39,183.70 127.23,183.68 128.03,183.69 128.88,183.64 129.71,183.53 130.44,183.51 131.10,183.52 131.74,183.55 132.41,183.59 133.07,183.61 133.74,183.66 134.38,183.71 135.02,183.81 135.64,184.06 136.24,184.33 136.69,184.62 136.86,184.87 137.15,185.05 137.51,185.27 137.81,185.41 138.02,185.59 138.27,185.73 138.32,185.83 138.30,185.96 138.25,186.13 138.26,186.38 138.33,186.64 138.41,186.93 138.51,187.18 138.65,187.45 138.84,187.72 139.04,188.02 139.29,188.33 139.58,188.58 139.86,188.83 140.18,189.07 140.55,189.30 140.94,189.51 141.33,189.72 141.73,189.91 142.12,190.05 142.45,190.14 142.84,190.15 143.27,190.18 143.69,190.21 144.09,190.27 144.46,190.40 144.79,190.60 145.07,190.86 145.33,191.10 145.61,191.38 145.94,191.65 146.25,191.93 146.59,192.25 146.95,192.56 147.31,192.89 147.64,193.18 148.00,193.45 148.33,193.69 148.64,193.94 148.93,194.21 149.17,194.51 149.39,194.82 149.61,195.15 149.77,195.45 149.93,195.71 150.15,195.87 150.39,195.97 150.64,196.06 150.89,196.10 151.18,196.14 151.50,196.19 151.81,196.25 152.11,196.32 152.43,196.41 152.75,196.53 153.06,196.69 153.34,196.91 153.62,197.17 153.89,197.44 154.16,197.71 154.43,197.97 154.69,198.21 154.97,198.43 155.25,198.62 155.53,198.84 155.73,199.09 155.92,199.32 156.14,199.58 156.36,199.83 156.58,200.10 156.82,200.38 157.05,200.67 157.25,200.97 157.40,201.26 157.52,201.50 157.63,201.74 157.74,201.92 157.81,202.05 157.90,202.20 158.03,202.32 158.17,202.46 158.28,202.62 158.42,202.78 158.58,202.94 158.74,203.13 158.90,203.34 159.07,203.55 159.25,203.79 159.43,204.04 159.60,204.31 159.79,204.61 159.96,204.94 160.11,205.30 160.25,205.69 160.35,206.10 160.43,206.51 160.56,206.86 160.71,207.18 160.86,207.49 160.98,207.77 161.12,208.03 161.29,208.28 161.43,208.56 161.49,208.90 161.51,209.20 161.55,209.53 161.62,209.86 161.65,210.20 161.72,210.57 161.77,210.94 161.82,211.34 161.87,211.70 162.00,212.07 162.17,212.40 162.36,212.75 162.55,213.11 162.73,213.44 162.97,213.76 163.20,214.09 163.43,214.49 163.61,214.94 163.80,215.42 163.93,215.93 164.14,216.41 164.45,216.85 164.76,217.29 165.04,217.74 165.34,218.16 165.60,218.65 165.85,219.14 166.09,219.69 166.30,220.26 166.55,220.84 166.81,221.43 167.07,222.04 167.30,222.66 167.52,223.28 167.71,223.91 167.84,224.56 167.91,225.22 167.94,225.85 167.93,226.38 168.01,226.73 168.15,226.89 168.26,226.93 168.29,226.92 168.35,226.95 168.41,227.01 168.51,227.09 168.76,227.20 168.98,227.37 168.94,227.54 168.86,227.69 168.98,227.79 169.15,227.90 169.21,228.10 169.15,228.24 169.16,228.32 169.19,228.40 169.27,228.44 169.40,228.51 169.52,228.59 169.62,228.71 169.68,228.84 169.79,228.98 169.91,229.13 169.98,229.32 170.01,229.50 170.00,229.70 170.06,229.88 170.08,230.06 170.05,230.21 170.02,230.37 169.97,230.53 169.90,230.69 169.81,230.84 169.73,230.98 169.70,231.14 169.68,231.32 169.66,231.52 169.70,231.72 169.77,231.93 169.88,232.16 169.98,232.44 170.10,232.74 170.23,233.04 170.41,233.33 170.61,233.63 170.83,233.88 171.08,234.12 171.37,234.33 171.65,234.57 171.92,234.76 172.18,234.93 172.43,235.09 172.67,235.26 172.90,235.44 173.16,235.64 173.41,235.90 173.54,236.23 173.61,236.59 173.70,236.93 173.78,237.26 173.82,237.57 173.81,237.87 173.76,238.14 173.65,238.38 173.53,238.67 173.37,238.91 173.24,239.13 173.11,239.35 173.01,239.60 172.91,239.84 172.85,240.17 172.80,240.46 172.79,240.77 172.82,241.09 172.91,241.39 173.05,241.70 173.22,241.98 173.38,242.35 173.53,242.75 173.72,243.14 173.94,243.55 174.17,243.98 174.39,244.42 174.60,244.88 174.81,245.36 175.02,245.85 175.24,246.36 175.46,246.88 175.71,247.40 175.95,247.94 176.19,248.50 176.45,249.06 176.69,249.64 176.92,250.23 177.16,250.81 177.46,251.34 177.71,251.93 177.94,252.51 178.14,253.05 178.37,253.56 178.58,254.07 178.71,254.55 178.84,255.03 178.95,255.47 179.05,255.88 179.17,256.25 179.28,256.62 179.39,256.97 179.49,257.31 179.59,257.63 179.66,257.97 179.71,258.29 179.78,258.59 179.89,258.93 180.01,259.24 180.17,259.56 180.33,259.89 180.48,260.20 180.66,260.48 180.88,260.73 181.11,260.96 181.35,261.18 181.63,261.41 181.93,261.66 182.22,261.94 182.50,262.25 182.78,262.58 183.07,262.93 183.39,263.28 183.68,263.65 183.99,263.99 184.29,264.36 184.56,264.71 184.84,265.04 185.16,265.35 185.38,265.68 185.63,266.01 185.90,266.32 186.14,266.67 186.36,266.99 186.59,267.31 186.80,267.67 187.02,267.99 187.24,268.33 187.45,268.62 187.69,268.92 187.88,269.19 188.05,269.41 188.22,269.61 188.40,269.82 188.54,270.00 188.66,270.18 188.74,270.35 188.81,270.50 188.91,270.71 189.04,270.99 189.13,271.27 189.25,271.57 189.33,271.83 189.42,272.09 189.50,272.34 189.54,272.58 189.60,272.82 189.67,273.02 189.77,273.16 189.88,273.26 190.03,273.36 190.19,273.44 190.38,273.51 190.59,273.56 190.83,273.61 191.11,273.67 191.39,273.73 191.70,273.77 192.04,273.83 192.40,273.90 192.76,273.99 193.14,274.07 193.53,274.16 193.91,274.25 194.31,274.35 194.75,274.45 195.17,274.57 195.60,274.71 195.94,274.87 196.28,275.04 196.68,275.21 197.08,275.38 197.46,275.54 197.85,275.69 198.24,275.81 198.63,275.93 199.01,276.05 199.34,276.13 199.73,276.25 199.70,276.33 199.67,276.38 199.72,276.45 199.70,276.61 199.68,276.75 199.68,276.90 199.67,277.05 199.68,277.19 199.72,277.34 199.74,277.50 199.76,277.65 199.80,277.81 199.84,277.96 199.87,278.12 199.89,278.27 199.95,278.43 199.98,278.58 200.05,278.73 200.07,278.88 200.14,279.04 200.18,279.19 200.23,279.35 200.29,279.50 200.33,279.66 200.39,279.82 200.41,279.97 200.41,280.13 200.38,280.30 200.33,280.47 200.31,280.69 200.24,280.90 200.19,281.09 200.16,281.20 200.11,281.25 200.05,281.26 199.97,281.24 199.91,281.20 199.80,281.15 199.71,281.11 199.57,281.07 199.47,281.06 199.32,281.07 199.20,281.10 199.04,281.15 198.89,281.21 198.71,281.28 198.55,281.36 198.38,281.42 198.23,281.48 198.05,281.52 197.84,281.53 197.66,281.56 197.47,281.56 197.25,281.58 197.02,281.57 196.77,281.54 196.43,281.48 196.09,281.38 195.73,281.28 195.36,281.20 195.02,281.17 194.61,281.11 194.25,281.13 193.86,281.15 193.48,281.20 193.14,281.30 192.78,281.41 192.50,281.56 192.24,281.72 191.95,281.85 191.77,282.01 191.64,282.17 191.57,282.34 191.53,282.53 191.54,282.71 191.58,282.91 191.66,283.11 191.76,283.33 191.89,283.56 192.04,283.81 192.21,284.08 192.41,284.37 192.63,284.70 192.82,285.04 193.00,285.41 193.12,285.78 193.22,286.17 193.29,286.57 193.37,286.96 193.45,287.34 193.46,287.64 193.38,287.85 193.34,287.92 193.27,287.92 193.28,287.89 193.28,287.85 193.28,287.78 193.30,287.69 193.27,287.56 193.25,287.40 193.19,287.21 193.13,287.01 193.07,286.80 192.98,286.61 192.88,286.42 192.76,286.27 192.64,286.13 192.49,285.99 192.38,285.87 192.24,285.75 192.10,285.61 191.99,285.45 191.98,285.29 191.88,285.11 191.80,284.89 191.72,284.65 191.60,284.40 191.47,284.16 191.36,283.94 191.29,283.75 191.24,283.60 191.18,283.49 191.10,283.39 191.05,283.32 190.99,283.26 190.87,283.19 190.79,283.16 190.69,283.12 190.59,283.08 190.49,283.05 190.37,282.99 190.32,282.95 190.16,282.86 189.97,282.71 189.73,282.55 189.50,282.37 189.30,282.20 189.17,282.07 188.95,281.96 188.80,281.93 188.68,281.93 188.55,281.95 188.43,281.99 188.29,282.04 188.19,282.11 188.09,282.19 187.99,282.29 187.90,282.38 187.81,282.48 187.70,282.56 187.58,282.64 187.41,282.70 187.26,282.77 187.11,282.83 186.97,282.86 186.87,282.88 186.76,282.90 186.60,282.88 186.49,282.87 186.36,282.85 186.23,282.83 186.10,282.83 185.92,282.82 185.77,282.82 185.64,282.82 185.55,282.79 185.43,282.73 185.37,282.65 185.32,282.55 185.28,282.42 185.25,282.26 185.26,282.08 185.27,281.87 185.26,281.63 185.26,281.40 185.26,281.17 185.21,280.95 185.05,280.77 184.88,280.60 184.75,280.44 184.65,280.35 184.53,280.25 184.38,280.16 184.32,280.06 184.30,279.97 184.15,279.86 184.02,279.75 183.99,279.62 183.97,279.50 183.91,279.24 183.78,278.98 183.71,278.70 183.70,278.48 183.48,278.36 183.35,278.37 183.22,278.42 183.05,278.50 182.98,278.63 183.08,278.69 183.21,278.68 183.15,278.65 183.09,278.62 183.03,278.60 182.96,278.58 182.90,278.56 182.84,278.54 182.77,278.52 183.16,278.27 183.14,278.23 183.12,278.19 183.62,277.61 184.17,277.28 184.32,276.62 184.18,276.16 183.71,275.85 183.32,275.52 183.04,275.18 182.80,274.81 182.67,274.47 182.48,274.16 182.21,273.84 181.97,273.52 181.76,273.14 181.67,272.75 181.62,272.41 181.47,272.10 181.24,271.84 181.02,271.56 180.93,271.26 180.83,270.95 180.74,270.60 180.64,270.23 180.60,269.85 180.54,269.46 180.52,269.05 180.54,268.60 180.58,268.11 180.62,267.59 180.62,267.03 180.63,266.51 180.75,266.10 180.89,265.79 180.93,265.53 180.90,265.24 180.83,264.93 180.82,264.66 180.81,264.48 180.79,264.44 180.72,264.55 180.77,264.78 180.74,264.98 180.79,265.20 180.71,265.30 180.85,265.33 180.83,265.27 180.71,265.18 180.71,265.09 180.85,264.98 181.07,264.91 181.31,264.87 181.56,264.89 181.74,265.01 181.89,265.15 182.04,265.30 182.31,265.42 182.49,265.54 182.74,265.58 182.96,265.50 183.16,265.38 183.34,265.22 183.51,265.06 183.70,264.94 183.90,264.89 184.10,264.89 184.29,264.94 184.37,265.00 184.55,265.09 184.67,265.20 184.87,265.35 185.10,265.52 185.36,265.71 185.52,265.89 185.75,266.04 185.98,266.17 186.22,266.29 186.52,266.43 186.85,266.56 187.17,266.67 187.52,266.75 187.86,266.79 188.14,266.81 188.34,266.77 188.58,266.72 188.72,266.68 188.86,266.62 189.21,266.64 189.54,266.69 189.88,266.76 190.22,266.84 190.54,266.91 190.81,266.98 191.09,267.02 191.39,267.08 191.72,267.14 192.07,267.23 192.46,267.32 192.70,267.44 192.96,267.52 193.19,267.52 193.37,267.53 193.42,267.54 193.47,267.56 193.45,267.55 193.40,267.56 193.39,267.55 193.35,267.51 193.30,267.45 193.22,267.39 193.12,267.34 193.06,267.34 193.04,267.40 193.04,267.49 193.08,267.63 193.11,267.78 193.17,267.95 193.19,268.11 193.21,268.25 193.30,268.40 193.43,268.53 193.54,268.60 193.62,268.61 193.70,268.56 193.78,268.46 193.87,268.32 193.95,268.14 194.03,267.93 194.18,267.74 194.34,267.61 194.51,267.48 194.69,267.39 194.81,267.31 194.92,267.19 195.01,267.03 195.10,266.84 195.15,266.62 195.18,266.36 195.21,266.08 195.23,265.79 195.23,265.49 195.19,265.18 195.10,264.85 195.02,264.51 194.94,264.19 194.86,263.78 194.74,263.33 194.64,262.85 194.57,262.33 194.48,261.78 194.35,261.23 194.18,260.66 193.97,260.09 193.72,259.50 193.41,258.89 193.07,258.25 192.75,257.56 192.40,256.84 191.99,256.10 191.56,255.33 191.10,254.53 190.61,253.70 190.11,252.83 189.58,251.94 188.97,251.07 188.35,250.22 187.83,249.65 187.42,249.34 187.24,249.32 187.33,249.46 187.59,249.46 187.91,249.67 187.64,249.86 187.21,249.90 186.99,250.00 186.63,250.06 186.23,250.10 185.70,249.89 185.19,249.54 184.58,249.30 183.92,249.11 183.25,248.93 182.56,248.80 181.93,248.81 181.41,248.93 180.87,249.06 180.29,249.22 179.76,249.45 179.28,249.74 178.80,250.05 178.40,250.40 178.12,250.77 178.00,251.08 177.46,251.30 177.04,251.43 176.85,251.44 176.77,251.31 176.65,251.16 176.50,250.97 176.15,250.80 175.90,250.56 175.65,250.31 175.31,250.06 174.98,249.78 174.64,249.47 174.19,249.18 173.70,248.88 173.16,248.58 172.62,248.28 172.14,248.00 171.57,247.76 170.97,247.52 170.33,247.31 169.66,247.12 168.98,246.96 168.31,246.84 167.68,246.78 167.02,246.73 166.41,246.74 165.72,246.73 164.99,246.67" fill="none" stroke="#2563eb" stroke-width="4" opacity="0.9"/>
  <circle cx="106.60" cy="111.65" r="7" fill="#10b981"/>
  <circle cx="346.70" cy="387.87" r="7" fill="#ef4444"/>
  <g font-family="Arial, sans-serif" font-size="14">
    <rect x="724" y="32" width="220" height="116" fill="#ffffff" stroke="#d1d5db"/>
    <line x1="744" y1="58" x2="794" y2="58" stroke="#111827" stroke-width="4"/><text x="808" y="63" fill="#111827">Ground truth</text>
    <line x1="744" y1="84" x2="794" y2="84" stroke="#2563eb" stroke-width="4"/><text x="808" y="89" fill="#111827">Fused estimate</text>
    <line x1="744" y1="110" x2="794" y2="110" stroke="#f97316" stroke-width="3"/><text x="808" y="115" fill="#111827">GNSS</text>
    <line x1="744" y1="136" x2="794" y2="136" stroke="#16a34a" stroke-width="3"/><text x="808" y="141" fill="#111827">VIO / odom</text>
  </g>
</svg>
