<svg xmlns="http://www.w3.org/2000/svg" width="1000" height="760" viewBox="0 0 1000 760">
  <rect width="100%" height="100%" fill="#ffffff"/>
  <text x="56" y="42" font-family="Arial, sans-serif" font-size="26" font-weight="700" fill="#111827">INSANE Navigation Fusion Replay</text>
  <text x="56" y="72" font-family="Arial, sans-serif" font-size="15" fill="#4b5563">Fused RMSE 7.92 m | GNSS 7.79 m | VIO missing</text>
  <text x="56" y="724" font-family="Arial, sans-serif" font-size="13" fill="#6b7280">Bounds: x -27.4..5.9 m, y -31.8..37.8 m</text>
  <g stroke="#e5e7eb" stroke-width="1">
    <line x1="100" y1="100" x2="100" y2="690"/><line x1="200" y1="100" x2="200" y2="690"/><line x1="300" y1="100" x2="300" y2="690"/><line x1="400" y1="100" x2="400" y2="690"/><line x1="500" y1="100" x2="500" y2="690"/><line x1="600" y1="100" x2="600" y2="690"/><line x1="700" y1="100" x2="700" y2="690"/><line x1="800" y1="100" x2="800" y2="690"/><line x1="900" y1="100" x2="900" y2="690"/>
    <line x1="56" y1="120" x2="944" y2="120"/><line x1="56" y1="200" x2="944" y2="200"/><line x1="56" y1="280" x2="944" y2="280"/><line x1="56" y1="360" x2="944" y2="360"/><line x1="56" y1="440" x2="944" y2="440"/><line x1="56" y1="520" x2="944" y2="520"/><line x1="56" y1="600" x2="944" y2="600"/><line x1="56" y1="680" x2="944" y2="680"/>
  </g>
  <polyline points="262.71,422.57 262.60,422.51 262.60,422.44 262.64,422.38 262.67,422.33 262.67,422.40 262.65,422.46 262.60,422.53 262.47,422.66 262.32,422.76 262.14,422.83 262.03,422.84 261.95,422.84 261.91,422.84 261.89,422.84 261.89,422.84 261.80,422.71 261.68,422.58 261.50,422.46 261.36,422.23 261.22,421.98 261.04,421.79 260.88,421.63 260.74,421.50 260.61,421.56 260.40,421.57 260.08,421.50 259.92,421.50 259.82,421.50 259.82,421.50 259.73,421.45 259.59,421.40 259.42,421.46 259.30,421.56 259.26,421.69 259.06,421.87 258.81,422.00 258.46,421.93 258.13,421.91 257.81,421.90 257.45,421.70 257.09,421.66 256.74,421.79 256.46,421.86 256.17,421.96 255.85,422.13 255.59,422.29 255.41,422.43 255.27,422.56 255.14,422.76 255.01,423.08 254.80,423.25 254.57,423.34 254.30,423.28 254.06,423.33 253.84,423.46 253.57,423.46 253.34,423.49 253.16,423.55 253.05,423.72 253.00,423.93 253.09,424.18 253.21,424.40 253.34,424.60 253.39,424.73 253.39,424.83 253.35,424.89 253.27,424.86 253.16,424.76 252.99,424.58 252.81,424.42 252.63,424.29 252.45,424.29 252.29,424.29 252.15,424.29 252.05,424.18 251.95,424.02 251.82,423.76 251.72,423.51 251.62,423.25 251.40,423.05 251.18,422.86 250.96,422.67 250.71,422.53 250.44,422.37 250.10,422.03 249.79,421.78 249.48,421.59 249.21,421.19 249.02,420.81 248.94,420.42 249.00,420.20 249.11,419.95 249.32,419.53 249.62,418.90 249.98,418.10 250.48,417.11 250.94,416.24 251.34,415.54 251.88,414.73 252.42,413.91 252.82,413.20 252.88,412.88 252.70,412.81 252.43,412.68 252.22,412.63 252.08,412.70 252.13,412.87 252.27,413.07 252.53,413.26 252.79,413.41 253.06,413.54 253.19,413.67 253.31,413.74 253.40,413.74 253.26,413.90 253.08,414.05 252.86,414.05 252.71,413.85 252.62,413.53 252.45,413.20 252.29,412.88 252.15,412.56 252.06,412.19 252.01,411.91 252.15,412.04 252.26,412.35 252.37,412.75 252.58,413.13 252.80,413.27 253.03,413.14 253.21,412.62 253.31,412.01 253.17,411.30 252.87,410.72 252.45,410.20 251.73,409.74 251.03,409.38 250.36,409.12 250.12,409.26 250.12,409.50 250.59,409.87 251.15,410.37 251.78,410.97 252.18,411.81 252.51,412.78 252.72,413.92 252.70,415.05 252.53,416.20 252.15,417.39 251.60,418.81 250.95,420.38 250.34,422.09 249.93,423.58 249.80,424.81 250.08,425.50 250.49,426.11 251.11,426.81 251.76,427.52 252.43,428.23 252.96,428.81 253.40,429.40 253.72,429.98 254.02,430.50 254.31,430.96 254.52,431.28 254.70,431.53 254.84,431.74 254.98,432.01 255.15,432.24 255.37,432.43 255.52,432.57 255.63,432.68 255.67,432.74 255.77,432.77 255.90,432.77 256.04,432.70 256.12,432.58 256.12,432.38 256.04,432.19 255.92,432.01 255.70,431.88 255.47,431.67 255.24,431.39 255.02,431.07 254.76,430.84 254.46,430.72 254.07,430.64 253.77,430.54 253.77,430.35 253.77,430.28 253.78,430.29 253.91,430.42 253.98,430.52 253.98,430.59 254.02,430.65 254.08,430.73 254.16,430.86 254.28,430.95 254.41,431.01 254.41,431.01 254.51,431.07 254.73,431.20 254.84,431.10 254.93,431.01 255.02,431.01 255.11,430.97 255.20,430.90 255.29,430.84 255.38,430.80 255.47,430.80 255.44,430.80 255.41,430.80 255.41,430.80 255.43,430.76 255.48,430.70 255.48,430.70 255.50,430.76 255.54,430.89 255.55,431.02 255.56,431.13 255.60,431.19 255.62,431.26 255.62,431.33 255.62,431.52 255.56,431.78 255.42,432.10 255.44,432.42 255.50,432.73 255.64,433.05 255.72,433.30 255.76,433.51 255.71,433.70 255.71,433.89 255.76,434.08 255.84,434.39 255.94,434.69 256.07,434.94 256.20,435.12 256.33,435.25 256.38,435.38 256.42,435.51 256.47,435.64 256.54,435.86 256.62,436.11 256.67,436.37 256.64,436.67 256.54,437.01 256.50,437.14 256.55,437.27 256.73,437.40 256.99,437.42 257.20,437.44 257.24,437.50 257.26,437.52 257.26,437.52 257.21,437.45 257.21,437.39 257.25,437.32 257.33,437.20 257.42,437.12 257.51,437.19 257.60,437.25 257.69,437.32 257.78,437.38 257.90,437.45 258.08,437.51 258.22,437.52 258.34,437.57 258.38,437.77 258.40,437.88 258.42,437.96 258.65,438.23 259.02,438.76 259.50,439.53 259.74,440.12 259.88,440.58 259.84,440.77 259.85,440.88 259.90,440.94 259.94,441.01 259.99,441.04 260.03,441.04 260.08,441.04 260.13,441.04 260.22,441.04 260.28,441.08 260.31,441.14 260.18,441.14 260.11,441.14 260.11,441.14 260.11,441.14 260.13,441.16 260.22,441.22 260.34,441.38 260.47,441.57 260.56,441.76 260.59,441.95 260.54,442.15 260.61,442.29 260.73,442.35 260.96,442.22 261.18,442.17 261.40,442.17 261.58,442.17 261.76,442.11 261.94,441.99 262.08,441.91 262.17,441.90 262.17,442.03 262.12,442.16 262.03,442.28 261.94,442.28 261.93,442.28 262.03,442.28 261.87,442.28 261.66,442.26 261.36,442.20 261.10,442.26 260.88,442.40 260.56,442.65 260.21,442.82 259.80,442.89 259.45,442.84 259.11,442.78 258.77,442.72 258.38,442.62 257.96,442.47 257.60,442.08 257.30,441.63 257.08,441.11 256.85,440.71 256.66,440.32 256.53,439.97 256.37,439.65 256.17,439.38 255.87,439.25 255.56,439.10 255.25,438.90 254.94,438.76 254.63,438.60 254.27,438.27 253.90,437.90 253.54,437.51 253.14,437.12 252.77,436.69 252.42,436.18 252.16,435.66 251.93,435.18 251.66,434.85 251.39,434.57 251.12,434.31 250.90,434.12 250.74,433.84 250.65,433.45 250.52,433.28 250.40,433.09 250.31,432.78 250.22,432.42 250.13,432.03 250.13,431.71 250.23,431.41 250.45,431.16 250.85,430.75 251.31,430.28 251.89,429.70 252.62,429.12 253.46,428.54 254.31,428.15 255.20,427.69 256.19,427.10 257.29,426.46 258.41,425.77 259.50,424.95 260.60,424.06 261.71,423.12 262.79,422.21 263.87,421.17 264.93,420.00 265.96,418.88 266.97,417.82 267.87,416.95 268.78,416.08 269.71,415.20 270.51,414.05 271.32,412.91 272.12,411.81 272.74,410.73 273.26,409.61 273.57,408.26 273.86,406.86 274.13,405.42 274.28,404.04 274.46,402.71 274.73,401.47 274.89,400.16 275.02,398.79 275.11,397.24 275.25,395.84 275.42,394.53 275.51,393.11 275.59,391.74 275.63,390.45 275.61,389.01 275.58,387.53 275.67,386.07 275.76,384.64 275.85,383.24 275.77,381.68 275.64,380.13 275.45,378.61 275.31,377.13 275.15,375.63 274.89,374.00 274.52,372.16 274.07,370.17 273.89,368.21 273.79,366.10 273.79,363.79 273.86,361.68 273.99,359.57 274.25,357.34 274.65,355.06 275.14,352.76 275.59,350.61 276.00,348.48 276.36,346.40 276.88,344.50 277.45,342.68 278.10,341.10 278.76,339.54 279.41,338.02 280.00,336.23 280.61,334.48 281.24,332.84 281.75,331.39 282.21,329.97 282.57,328.54 282.81,326.91 282.99,325.21 283.17,323.70 283.40,322.15 283.71,320.53 284.04,318.82 284.37,317.08 284.71,315.35 285.17,313.56 285.69,311.73 285.96,309.74 286.17,307.78 286.30,305.85 286.54,304.18 286.80,302.52 287.02,300.67 287.25,298.73 287.48,296.75 287.79,294.89 288.02,292.87 288.16,290.61 288.18,288.00 288.16,285.38 288.07,282.94 288.01,280.44 287.97,277.91 287.97,275.46 288.01,272.90 288.10,270.19 288.26,267.50 288.48,264.88 288.82,262.47 289.10,259.90 289.33,257.23 289.58,254.65 289.88,251.94 290.26,248.99 290.43,246.03 290.56,243.06 290.69,240.12 290.72,236.97 290.67,233.64 290.63,230.46 290.56,227.36 290.48,224.34 290.46,221.28 290.49,218.28 290.62,215.50 290.73,212.74 290.81,210.00 290.73,207.32 290.67,204.75 290.67,202.31 290.75,200.01 290.83,197.70 290.87,195.26 290.92,192.80 290.96,190.32 291.10,187.89 291.25,185.58 291.43,183.45 291.64,181.23 291.86,178.94 292.09,176.48 292.31,174.10 292.53,171.77 292.80,169.37 293.16,167.07 293.64,164.88 294.06,162.72 294.42,160.57 294.59,158.44 294.77,156.27 294.95,154.08 295.18,152.05 295.30,150.06 295.30,148.11 295.15,146.29 294.95,144.55 294.64,143.01 294.13,141.38 293.49,139.69 292.52,137.89 291.53,136.12 290.52,134.39 289.60,133.08 288.68,131.81 287.67,130.48 286.43,129.05 284.95,127.53 283.28,126.16 281.55,124.79 279.72,123.44 277.94,122.08 276.13,120.71 274.23,119.30 272.24,118.09 270.19,116.99 268.15,115.93 266.08,114.86 263.96,113.75 261.83,112.70 259.70,111.69 257.59,110.73 255.54,109.75 253.54,108.75 251.76,107.81 249.92,106.82 248.00,105.79 246.20,104.81 244.42,103.88 242.63,103.10 240.70,102.27 238.65,101.39 236.67,100.56 234.72,99.80 232.81,99.15 230.81,98.54 228.80,97.92 226.81,97.22 224.83,96.50 222.86,95.79 221.00,95.15 219.19,94.53 217.44,93.94 215.50,93.25 213.52,92.57 211.51,92.01 209.54,91.52 207.58,91.08 205.73,90.55 203.92,90.07 202.15,89.68 200.12,89.08 198.07,88.48 196.17,88.05 194.23,87.57 192.26,87.03 190.27,86.37 188.36,85.74 186.53,85.15 184.80,84.63 183.12,84.19 181.55,83.99 180.02,83.72 178.52,83.40 176.99,83.20 175.50,82.98 174.07,82.73 172.61,82.53 171.11,82.32 169.46,82.05 167.77,82.01 166.04,82.11 164.32,82.21 162.52,82.24 160.60,82.17 158.54,82.11 156.52,82.07 154.70,82.13 153.00,82.28 151.37,82.47 149.90,82.80 148.52,83.07 147.27,83.26 146.06,83.67 144.90,84.18 143.89,84.91 143.01,85.70 142.18,86.52 141.28,87.30 140.44,88.08 139.67,88.87 139.04,89.69 138.41,90.51 137.75,91.35 137.00,92.19 136.19,93.04 135.29,93.95 134.48,94.91 133.77,95.94 133.01,96.93 132.22,97.91 131.34,98.88 130.45,99.95 129.55,101.13 128.39,102.68 127.20,104.31 125.97,106.02 124.99,107.28 124.11,108.47 123.51,109.64 122.94,111.06 122.38,112.69 121.93,114.24 121.51,115.77 121.13,117.25 120.55,118.78 119.90,120.29 119.24,121.69 118.54,123.17 117.80,124.71 117.00,126.05 116.24,127.47 115.51,128.97 114.80,130.62 114.16,132.40 113.72,134.51 113.32,136.72 112.94,138.97 112.35,140.85 111.68,142.73 110.88,144.60 110.06,146.63 109.26,148.75 108.55,151.06 107.89,153.45 107.26,155.89 106.68,158.47 106.04,160.97 105.33,163.37 104.80,165.72 104.32,168.06 103.88,170.42 103.35,172.81 102.76,175.22 102.10,177.59 101.51,180.11 101.02,182.82 100.56,185.52 100.15,188.15 99.90,190.64 99.80,193.25 99.80,195.95 99.75,198.51 99.49,200.95 98.95,203.23 98.53,205.68 98.13,208.15 97.74,210.62 97.42,213.09 97.16,215.56 97.07,218.10 97.08,220.67 97.22,223.27 97.31,225.76 97.36,228.18 97.27,230.44 97.15,232.74 97.01,235.06 96.74,237.25 96.45,239.38 96.15,241.45 95.83,243.48 95.48,245.49 94.99,247.47 94.53,249.40 94.08,251.29 93.63,253.10 93.07,254.92 92.35,256.74 91.49,258.48 90.60,260.29 89.71,262.29 88.82,264.42 87.93,266.62 87.09,268.81 86.34,271.05 85.71,273.32 85.01,275.58 84.29,277.80 83.52,279.90 82.67,281.87 81.78,283.77 81.07,285.82 80.33,287.94 79.54,290.18 78.92,292.29 78.31,294.35 77.63,296.31 76.87,298.37 76.05,300.49 75.29,302.62 74.60,304.61 73.98,306.41 73.50,308.38 73.06,310.37 72.61,312.37 72.16,314.26 71.72,316.08 71.33,317.78 70.84,319.45 70.18,321.08 69.29,322.58 68.45,324.10 67.87,325.78 67.49,327.42 67.23,329.03 66.91,330.58 66.68,332.11 66.55,333.61 66.60,335.03 66.65,336.47 66.56,338.00 66.36,339.55 66.10,341.11 65.96,342.80 65.93,344.39 66.01,345.87 66.14,347.32 66.30,348.79 66.51,350.33 66.68,352.04 66.82,353.86 66.86,355.41 67.02,357.01 67.33,358.65 67.87,360.41 68.42,362.16 68.86,363.81 69.28,365.52 69.70,367.26 70.14,368.93 70.59,370.67 71.04,372.49 71.32,374.24 71.58,375.97 71.79,377.64 72.10,379.50 72.46,381.48 72.96,383.64 73.53,385.75 74.20,387.82 74.65,389.87 75.02,391.91 75.32,393.96 75.75,396.00 76.24,398.02 76.73,399.76 77.22,401.54 77.71,403.35 77.94,404.94 78.11,406.50 78.29,408.10 78.64,409.85 79.09,411.66 79.49,413.20 79.95,414.72 80.49,416.21 80.94,417.44 81.38,418.63 81.82,419.81 82.33,420.99 82.87,422.16 83.54,423.20 84.29,424.26 85.11,425.33 85.80,426.25 86.44,427.15 87.04,428.07 87.64,428.79 88.24,429.38 88.85,429.96 89.46,430.43 90.09,430.75 90.75,431.02 91.40,431.20 91.97,431.13 92.55,431.07 93.14,431.00 93.93,430.94 94.73,430.83 95.56,430.64 96.24,430.18 96.91,429.66 97.68,429.20 98.35,428.75 98.96,428.32 99.59,428.19 100.24,428.06 100.92,427.92 101.55,427.68 102.16,427.44 102.73,427.25 103.27,427.06 103.81,426.87 104.25,426.74 104.62,426.67 104.88,426.67 105.00,426.51 105.12,426.34 105.40,426.28 105.56,426.25 105.66,426.26 105.97,426.39 106.27,426.52 106.54,426.65 106.61,426.78 106.65,426.92 106.69,427.11 106.77,427.34 106.86,427.61 107.09,428.07 107.41,428.44 107.85,428.69 108.30,428.95 108.71,429.19 109.01,429.38 109.40,429.46 109.88,429.45 110.50,429.25 111.16,429.12 111.88,429.05 112.66,429.10 113.44,429.18 114.14,429.31 114.98,429.44 115.92,429.57 117.10,429.63 118.29,429.72 119.47,429.85 120.61,430.03 121.77,430.21 123.02,430.34 124.35,430.43 125.72,430.50 127.00,430.76 128.34,431.04 129.76,431.37 131.42,431.64 133.19,431.87 135.15,432.00 137.33,432.13 139.66,432.26 142.30,432.45 145.00,432.62 147.78,432.75 150.76,432.82 153.72,432.91 156.56,433.03 159.46,433.12 162.38,433.18 165.33,433.05 168.47,432.99 171.82,433.02 175.18,433.05 178.53,433.19 181.84,433.70 185.05,434.14 188.20,434.53 191.20,434.92 194.09,435.41 196.86,436.05 199.45,436.74 201.97,437.46 204.42,438.26 206.82,439.13 209.20,440.04 211.76,440.90 214.38,441.86 217.07,442.93 219.52,443.99 221.92,445.05 224.33,446.10 226.59,447.16 228.78,448.21 230.99,449.11 233.22,449.97 235.46,450.78 237.94,451.60 240.41,452.39 242.63,453.06 245.03,453.71 247.56,454.35 250.38,454.90 253.19,455.37 255.98,455.76 258.59,456.10 261.16,456.45 263.71,456.84 266.31,457.43 268.94,458.13 271.61,458.78 274.30,459.43 277.01,460.08 279.60,460.84 282.14,461.61 284.55,462.35 286.96,463.10 289.36,463.86 291.75,464.82 294.05,465.87 296.26,467.02 298.41,467.99 300.54,468.93 302.68,469.87 304.86,470.83 307.05,471.81 309.09,472.84 311.09,473.94 313.04,475.13 314.93,476.22 316.80,477.27 318.66,478.23 320.48,479.12 322.26,479.96 323.91,480.73 325.49,481.48 327.01,482.19 328.43,482.89 329.83,483.68 331.21,484.70 332.57,485.74 333.91,486.78 335.24,487.61 336.66,488.54 338.20,489.59 339.72,490.57 341.15,491.54 342.38,492.49 343.54,493.52 344.66,494.56 345.84,495.26 346.99,496.00 348.10,496.77 349.13,497.60 350.10,498.41 350.96,499.18 351.82,499.95 352.69,500.72 353.54,501.43 354.33,502.09 355.04,502.67 355.67,503.14 356.28,503.57 356.86,503.96 357.36,504.23 357.80,504.43 357.93,504.69 357.98,505.01 357.94,505.40 357.77,505.79 357.58,506.18 357.37,506.55 357.15,506.86 356.92,507.12 356.60,507.38 356.27,507.58 355.92,507.71 355.56,507.73 355.22,507.79 354.92,508.04 354.45,508.30 353.86,508.55 353.32,508.55 352.81,508.55 352.34,508.55 351.87,508.77 351.38,509.09 350.85,509.54 350.31,509.90 349.76,510.23 349.03,510.49 348.21,510.78 347.30,511.10 346.33,511.53 345.38,511.94 344.52,512.25 343.68,512.46 342.86,512.60 342.24,512.79 341.57,512.99 340.86,513.18 340.04,513.37 339.22,513.60 338.48,513.91 337.68,514.23 336.82,514.56 335.89,514.95 334.90,515.31 333.82,515.63 332.82,515.90 331.84,516.22 330.85,516.74 329.81,517.35 328.74,518.00 327.63,518.70 326.40,519.44 325.01,520.22 323.73,521.00 322.48,521.82 321.25,522.75 320.07,523.84 318.91,525.05 317.81,526.60 316.67,528.16 315.49,529.74 314.47,531.25 313.43,532.72 312.18,534.05 310.98,535.47 309.81,536.92 308.74,538.54 307.65,540.05 306.52,541.43 305.35,542.65 304.13,543.87 302.70,545.16 301.12,546.55 299.44,548.01 297.74,549.57 296.14,551.18 294.68,552.85 293.36,554.47 292.05,556.01 290.64,557.31 289.22,558.65 287.79,560.01 286.47,561.50 285.19,562.96 283.95,564.38 282.51,565.64 281.08,566.83 279.77,567.91 278.50,568.98 277.26,570.04 276.13,570.92 274.97,571.81 273.77,572.72 272.61,573.59 271.43,574.43 270.13,575.18 268.92,575.98 267.75,576.83 266.68,577.61 265.61,578.39 264.54,579.16 263.35,579.88 262.12,580.61 260.80,581.38 259.32,582.03 257.75,582.61 256.19,583.19 254.50,583.63 252.68,583.89 250.61,584.10 248.47,584.20 246.26,584.07 243.87,583.73 241.38,583.27 239.02,582.69 236.67,582.14 234.34,581.62 231.92,581.16 229.49,580.76 227.04,580.50 224.52,580.20 221.95,579.89 219.19,579.69 216.40,579.56 213.56,579.49 211.05,579.53 208.64,579.60 206.40,579.66 204.23,579.85 202.13,580.13 200.14,580.59 198.36,581.12 196.82,581.73 195.27,582.34 193.89,583.02 192.97,583.92 192.12,584.91 191.31,585.96 190.65,586.98 190.02,587.90 189.45,588.67 188.81,589.37 188.19,590.09 187.70,590.93 187.10,591.70 186.42,592.41 185.61,593.07 184.80,593.81 183.99,594.66 183.23,595.49 182.51,596.31 181.89,597.09 181.32,597.94 180.80,598.83 180.39,599.42 179.97,599.80 179.53,599.93 179.09,599.95 178.65,599.95 178.22,599.95 177.62,599.95 176.91,599.95 176.44,600.02 175.99,600.08 175.54,600.15 174.99,600.16 174.38,600.17 173.62,600.24 172.74,600.42 171.79,600.70 171.00,601.08 170.15,601.41 169.24,601.68 168.36,601.88 167.58,602.05 167.08,602.17 166.47,602.37 165.75,602.65 164.85,602.97 163.92,603.30 162.93,603.63 162.07,604.06 161.26,604.47 160.56,604.79 159.88,605.08 159.20,605.34 158.66,605.73 158.21,606.06 157.86,606.32 157.72,606.58 157.69,606.87 157.82,607.25 158.01,607.65 158.25,608.02 158.55,608.09 158.78,608.24 158.92,608.50 158.94,608.87 159.02,609.22 159.32,609.48 159.66,609.77 160.03,610.10 160.62,610.49 161.14,610.94 161.59,611.47 161.91,612.04 162.25,612.60 162.64,613.11 163.04,613.62 163.44,614.13 163.80,614.52 164.09,614.88 164.31,615.20 164.62,615.53 164.93,615.85 165.23,616.17 165.51,616.57 165.78,617.02 165.96,617.21 166.14,617.41 166.32,617.60 166.42,617.79 166.45,618.00 166.27,618.25 166.20,618.59 166.20,618.99 166.07,619.37 165.93,619.84 165.80,620.43 165.85,621.02 165.93,621.57 165.97,622.02 165.93,622.47 165.85,622.95 165.94,623.52 165.99,624.04 165.99,624.49 165.84,624.78 165.67,625.02 165.53,625.22 165.31,625.37 165.06,625.51 164.88,626.03 164.78,626.32 164.78,626.32 164.59,626.21 164.35,626.04 164.09,625.79 163.71,625.74 163.24,625.82 162.62,626.07 162.10,626.18 161.71,626.12 161.34,625.84 160.95,625.63 160.45,625.76 159.90,626.27 159.34,626.96 158.62,627.47 158.01,628.19 157.52,629.16 157.10,630.24 156.79,631.30 156.74,632.25 156.62,633.18 156.44,634.11 156.26,635.02 156.06,636.10 155.84,637.39 155.76,638.30 155.72,639.22 155.68,640.41 155.58,641.99 155.44,643.83 155.31,645.58 155.15,647.56 154.97,649.82 154.72,651.92 154.48,653.89 154.30,655.56 154.12,657.29 153.95,659.03 153.90,660.19 153.86,661.29 153.81,662.33 153.58,663.74 153.29,665.18 152.89,666.47 152.43,667.76 151.93,669.10 151.36,671.08 150.74,672.91 150.07,674.53 149.65,676.37 149.35,677.83 149.22,678.27 149.24,678.60 149.32,678.82 149.32,678.70 149.44,678.93 149.71,679.59 149.86,680.63 150.05,681.65 150.40,682.47 150.50,683.27 150.47,684.05 150.65,684.77 150.99,685.21 151.53,685.34 151.99,685.30 152.48,685.18 153.09,684.93 153.65,684.84 154.16,685.00 154.12,687.50 154.17,688.90 154.36,688.96 154.46,689.97 154.48,691.10 154.35,692.21 154.28,693.19 154.24,694.05 154.33,694.31 154.50,694.37 154.76,694.17 154.77,694.20 154.72,694.16 154.68,693.84 154.69,693.05 154.73,692.06 154.64,691.94 154.59,691.90 154.59,691.96 154.44,692.25 154.26,692.67 154.08,693.39 154.05,693.93 154.11,694.35 154.43,694.35 154.70,694.38 154.91,694.44 155.29,694.56 155.61,694.86 155.70,695.62 155.76,696.44 155.80,697.29 155.71,698.07 155.64,698.60 155.59,698.86 155.70,699.34 155.86,699.74 156.08,699.80 156.21,700.12 156.31,700.55 156.49,700.48 156.67,700.45 156.85,700.45 157.06,700.73 157.18,700.97 157.00,700.97 156.70,701.66 156.37,702.57 156.28,701.86 156.13,701.30 155.90,700.92 155.48,702.05 155.25,702.45 155.55,700.42 155.40,700.61 155.00,701.93 154.73,702.45 154.52,702.94 154.39,703.40 154.06,703.50 153.65,703.08 153.08,701.35 152.59,700.67 152.14,700.48 151.79,699.31 151.45,698.45 151.14,697.93 151.06,697.09 151.05,696.30 151.14,695.77 151.23,695.46 151.31,695.32 151.27,695.95 151.26,696.34 151.31,696.41 151.39,696.76 151.52,696.71 151.73,695.58 151.78,695.80 151.74,696.74 151.83,697.00 151.84,697.34 151.75,697.79 151.63,698.14 151.55,698.43 151.64,698.62 151.70,698.59 151.74,698.42 151.79,698.26 151.77,698.12 151.69,697.99 151.67,698.02 151.63,698.07 151.45,698.07 151.32,697.94 151.22,697.82 150.95,698.60 150.66,699.06 150.35,699.19 150.20,698.87 150.05,698.64 149.88,698.83 149.73,698.62 149.59,698.18 149.18,698.58 148.83,699.26" fill="none" stroke="#f97316" stroke-width="2" opacity="0.65"/>
  <polyline points="" fill="none" stroke="#16a34a" stroke-width="2" opacity="0.65"/>
  <polyline points="247.27,381.29 247.26,381.29 247.26,381.29 247.25,381.29 247.25,381.30 247.25,381.30 247.24,381.30 247.27,381.39 247.31,381.30 247.31,381.30 247.31,381.30 247.31,381.30 247.31,381.30 247.31,381.30 247.31,381.30 247.31,381.30 247.27,381.29 247.31,381.30 247.27,381.29 247.27,381.29 247.27,381.29 247.27,381.29 247.27,381.29 247.27,381.29 247.27,381.29 247.27,381.29 247.27,381.29 247.27,381.29 247.27,381.29 247.27,381.29 247.27,381.29 247.29,381.30 247.31,381.30 247.31,381.30 247.30,381.30 247.29,381.30 247.29,381.30 247.28,381.29 247.27,381.29 247.27,381.29 247.27,381.29 247.27,381.29 247.27,381.29 247.27,381.29 247.27,381.29 247.27,381.29 247.27,381.29 247.27,381.29 247.27,381.29 247.27,381.29 247.27,381.29 247.27,381.29 247.31,381.31 247.28,381.32 247.28,381.33 247.28,381.34 247.27,381.35 247.27,381.36 247.27,381.37 247.27,381.38 247.27,381.39 247.27,381.39 247.24,381.31 247.24,381.32 247.25,381.33 247.25,381.34 247.25,381.35 247.26,381.36 247.26,381.37 247.26,381.38 247.27,381.39 247.31,381.41 247.29,381.38 247.29,381.38 247.29,381.38 247.28,381.39 247.28,381.39 247.27,381.39 247.27,381.39 247.31,381.41 247.29,381.38 247.27,381.40 247.26,381.38 247.25,381.36 247.25,381.34 247.24,381.33 247.24,381.31 247.23,381.29 247.22,381.28 247.33,381.40 247.27,381.29 247.28,381.31 247.29,381.33 247.31,381.35 247.32,381.37 247.31,381.31 247.29,381.28 247.29,381.28 247.28,381.23 247.59,381.14 248.01,380.76 248.45,380.54 248.62,380.40 248.53,380.13 248.32,380.12 248.02,380.03 247.73,380.14 247.48,380.40 247.27,380.78 247.47,381.17 247.75,381.33 248.03,381.50 248.17,381.56 248.17,381.44 248.16,381.17 248.05,380.94 247.72,380.93 247.63,380.91 247.53,380.90 247.43,380.88 247.33,380.86 247.24,380.85 247.14,380.83 247.12,380.64 247.13,380.53 247.17,380.87 247.20,381.39 247.22,381.91 247.24,382.43 247.27,382.95 247.29,383.47 247.31,383.99 247.43,383.39 247.53,382.73 247.58,381.99 247.27,381.31 247.10,381.16 246.94,381.01 246.78,380.86 246.61,380.71 246.45,380.56 246.29,380.40 246.12,380.25 246.82,380.75 247.51,381.40 247.32,382.59 247.14,383.78 246.96,384.97 246.78,386.16 246.60,387.36 246.41,388.55 246.23,389.74 246.05,390.93 245.49,392.37 245.80,393.21 246.11,394.05 246.42,394.88 246.73,395.72 247.04,396.56 247.34,397.40 248.01,398.07 248.60,398.76 249.02,399.34 249.31,399.96 249.58,400.34 249.63,400.56 249.68,400.79 249.73,401.02 249.79,401.24 249.84,401.47 249.77,401.57 249.73,401.63 249.66,401.62 249.69,401.68 249.69,401.70 249.69,401.71 249.69,401.73 249.69,401.75 249.68,401.77 249.63,401.79 249.63,401.79 249.63,401.79 249.63,401.79 249.63,401.79 249.63,401.80 249.64,401.80 249.64,401.81 249.64,401.81 249.65,401.82 249.65,401.83 249.63,401.79 249.63,401.79 249.63,401.79 249.63,401.79 249.63,401.79 249.63,401.79 249.63,401.79 249.63,401.79 249.63,401.79 249.63,401.79 249.63,401.79 249.63,401.79 249.65,401.72 249.64,401.73 249.64,401.74 249.64,401.75 249.63,401.76 249.63,401.77 249.63,401.79 249.63,401.79 249.63,401.79 249.63,401.79 249.63,401.79 249.63,401.79 249.63,401.79 249.63,401.80 249.63,401.80 249.64,401.80 249.63,401.79 249.63,401.79 249.63,401.79 249.63,401.79 249.63,401.80 249.64,401.80 249.63,401.79 249.64,401.80 249.63,401.79 249.64,401.80 249.63,401.79 249.63,401.79 249.63,401.78 249.63,401.79 249.63,401.79 249.63,401.79 249.56,401.80 249.63,401.79 249.63,401.79 249.63,401.79 249.63,401.79 249.63,401.79 249.63,401.79 249.64,401.80 249.63,401.79 249.64,401.80 249.63,401.78 249.63,401.76 249.64,401.74 249.65,401.72 249.65,401.72 249.65,401.72 249.65,401.72 249.65,401.72 249.65,401.72 249.62,401.68 249.65,401.72 249.65,401.72 249.64,401.71 249.64,401.71 249.64,401.71 249.64,401.70 249.63,401.70 249.66,401.74 249.66,401.74 249.64,401.70 249.63,401.71 249.63,401.73 249.63,401.74 249.63,401.76 249.63,401.77 249.63,401.79 249.64,401.80 249.63,401.79 249.63,401.79 249.63,401.79 249.63,401.79 249.63,401.79 249.63,401.79 249.63,401.79 249.63,401.79 249.65,401.83 249.63,401.79 249.63,401.79 249.63,401.79 249.62,401.78 249.62,401.77 249.62,401.77 249.61,401.76 249.61,401.75 249.60,401.75 249.60,401.75 249.66,401.73 249.58,401.81 249.59,401.81 249.60,401.80 249.61,401.79 249.61,401.79 249.62,401.78 249.63,401.78 249.64,401.79 249.64,401.78 249.69,401.74 249.70,401.73 249.72,401.72 249.73,401.70 249.75,401.69 249.76,401.67 249.78,401.66 249.69,401.59 249.68,401.52 249.55,401.43 249.28,401.36 249.01,401.30 248.74,401.23 248.47,401.16 248.20,401.09 247.93,401.03 247.62,400.95 247.21,400.92 246.81,400.86 246.34,400.87 245.87,400.87 245.40,400.87 244.93,400.87 244.47,400.87 244.00,400.87 243.47,400.69 243.05,400.50 242.65,400.22 242.24,399.89 241.85,399.56 241.47,399.23 241.08,398.90 240.70,398.57 240.31,398.23 239.93,397.90 239.55,397.52 239.13,397.25 238.79,396.95 238.40,396.69 238.01,396.43 237.62,396.17 237.23,395.91 236.84,395.65 236.44,395.39 236.16,395.08 235.83,394.83 235.56,394.48 235.26,394.32 234.95,394.17 234.64,394.02 234.34,393.87 234.03,393.71 233.73,393.56 233.47,393.50 233.27,393.36 233.10,393.24 232.95,393.19 232.81,393.13 232.74,393.03 232.67,392.93 232.60,392.72 232.59,392.62 232.69,392.46 232.98,392.23 233.36,391.95 233.91,391.57 234.45,391.18 235.23,390.65 235.98,390.09 236.81,389.38 237.71,388.74 238.61,388.07 239.51,387.53 240.47,386.79 241.41,386.05 242.42,385.16 243.42,384.27 244.44,383.34 245.45,382.40 246.40,381.48 247.35,380.46 248.20,379.32 249.04,378.18 249.89,377.05 250.73,375.91 251.58,374.77 252.37,373.68 253.06,372.49 253.83,371.39 254.20,370.21 254.56,369.04 254.93,367.86 255.30,366.69 255.67,365.52 256.03,364.34 256.21,363.16 256.38,362.01 256.47,360.80 256.50,359.54 256.54,358.27 256.58,357.00 256.62,355.74 256.65,354.47 256.69,353.21 256.56,351.90 256.54,350.46 256.41,349.05 256.22,347.59 256.02,346.13 255.83,344.66 255.63,343.20 255.44,341.74 255.25,340.28 254.96,338.62 254.73,337.04 254.48,335.37 254.50,333.40 254.52,331.44 254.55,329.48 254.57,327.51 254.59,325.55 254.62,323.58 254.64,321.62 255.04,319.47 255.54,317.43 256.15,315.43 256.75,313.63 257.34,311.84 257.94,310.04 258.53,308.24 259.13,306.44 259.73,304.64 260.32,302.84 260.68,301.21 261.04,299.58 261.32,297.99 261.60,296.40 261.89,294.81 262.17,293.22 262.45,291.63 262.73,290.04 263.02,288.45 263.30,286.86 263.49,285.12 263.73,283.21 263.96,281.29 264.20,279.38 264.44,277.47 264.68,275.56 264.92,273.64 265.03,271.50 265.30,269.55 265.38,267.43 265.53,265.23 265.68,263.02 265.83,260.82 265.97,258.62 266.12,256.42 266.27,254.21 266.44,251.92 266.58,249.54 266.70,247.02 266.89,244.50 267.07,241.98 267.26,239.46 267.45,236.94 267.64,234.42 267.82,231.90 268.01,229.37 268.28,226.70 268.55,224.02 268.88,221.25 269.14,218.46 269.41,215.66 269.67,212.87 269.94,210.08 270.20,207.29 270.46,204.50 270.69,201.70 270.85,198.87 271.01,196.04 271.12,193.28 271.23,190.52 271.33,187.76 271.44,185.01 271.55,182.25 271.65,179.49 271.75,176.95 271.80,174.38 271.87,171.94 271.88,169.58 271.90,167.21 271.90,164.83 271.87,162.52 271.92,160.30 271.98,157.88 272.08,155.59 272.17,153.25 272.27,150.91 272.41,148.48 272.55,146.04 272.72,143.65 272.84,141.29 273.01,138.91 273.19,136.53 273.43,134.22 273.66,131.90 274.02,129.73 274.24,127.50 274.47,125.26 274.61,123.10 274.82,121.19 274.94,119.19 274.98,117.40 275.03,115.61 274.71,113.93 274.38,112.26 274.06,110.58 273.74,108.90 273.41,107.22 272.75,105.58 272.02,104.10 270.88,102.69 269.75,101.28 268.62,99.87 267.48,98.46 266.35,97.05 265.22,95.64 264.09,94.24 262.58,92.98 261.06,91.73 259.38,90.52 257.53,89.45 255.68,88.38 253.84,87.31 251.99,86.24 250.14,85.17 248.30,84.10 246.45,83.03 244.51,82.16 242.56,81.19 240.79,80.46 239.02,79.73 237.24,79.00 235.47,78.27 233.70,77.54 231.93,76.81 230.19,76.13 228.38,75.45 226.53,74.73 224.69,74.11 222.85,73.49 221.01,72.87 219.16,72.25 217.32,71.63 215.48,71.01 213.56,70.49 211.72,69.91 209.89,69.34 207.99,68.81 206.10,68.28 204.21,67.75 202.33,67.23 200.44,66.70 198.55,66.17 196.66,65.64 194.67,65.13 192.87,64.69 190.91,64.16 189.00,63.70 187.09,63.24 185.18,62.79 183.27,62.33 181.36,61.87 179.45,61.41 177.61,60.94 175.77,60.47 173.93,59.95 172.21,59.55 170.50,59.14 168.78,58.73 167.07,58.32 165.35,57.92 163.64,57.51 161.91,57.10 160.36,56.89 158.76,56.57 157.18,56.47 155.60,56.38 154.02,56.28 152.45,56.19 150.87,56.09 149.29,56.00 147.69,56.09 146.09,56.31 144.58,56.60 143.27,57.00 141.97,57.41 140.67,57.81 139.36,58.21 138.06,58.62 136.76,59.02 135.45,59.42 134.15,59.83 133.11,60.43 132.22,61.19 131.33,61.94 130.44,62.70 129.55,63.45 128.66,64.20 127.77,64.96 126.88,65.71 126.08,66.52 125.27,67.36 124.51,68.28 123.75,69.27 122.99,70.27 122.24,71.26 121.48,72.25 120.72,73.25 119.97,74.24 119.29,75.37 118.58,76.53 117.92,77.70 117.26,78.87 116.59,80.04 115.96,81.31 115.30,82.45 114.66,83.72 114.02,85.01 113.38,86.30 112.74,87.55 112.10,88.89 111.52,90.22 110.94,91.55 110.24,92.92 109.64,94.25 109.02,95.61 108.38,96.93 107.75,98.30 107.11,99.63 106.46,101.18 105.86,102.74 105.26,104.29 104.62,105.94 104.03,107.67 103.46,109.44 102.85,111.37 102.24,113.31 101.63,115.25 101.02,117.18 100.41,119.12 99.80,121.06 99.19,122.99 98.52,124.95 97.94,127.12 97.33,129.09 96.68,131.26 96.03,133.43 95.37,135.61 94.72,137.78 94.07,139.95 93.42,142.12 92.77,144.39 92.17,146.58 91.64,148.74 91.25,151.05 90.86,153.37 90.47,155.69 90.09,158.00 89.70,160.32 89.31,162.64 88.92,164.95 88.67,167.39 88.45,169.77 88.24,172.28 88.03,174.79 87.82,177.31 87.62,179.82 87.41,182.34 87.20,184.85 87.09,187.41 86.98,189.97 86.94,192.66 86.81,195.16 86.69,197.65 86.56,200.14 86.43,202.64 86.30,205.13 86.17,207.63 85.92,209.88 85.66,211.93 85.40,214.09 84.95,216.10 84.49,218.10 84.04,220.10 83.59,222.11 83.14,224.11 82.68,226.12 82.23,228.12 81.61,230.22 80.98,232.22 80.33,234.24 79.60,236.29 78.86,238.34 78.13,240.39 77.40,242.45 76.66,244.50 75.93,246.55 75.19,248.68 74.32,250.70 73.55,252.87 72.72,254.94 71.89,257.00 71.06,259.07 70.23,261.13 69.40,263.20 68.58,265.26 67.77,267.28 66.97,269.28 66.16,271.27 65.55,273.23 64.93,275.18 64.31,277.14 63.70,279.09 63.08,281.05 62.47,283.00 61.93,284.88 61.44,286.69 60.88,288.50 60.37,290.26 59.87,292.03 59.36,293.80 58.86,295.57 58.35,297.33 57.85,299.10 57.39,300.77 57.15,302.49 56.84,304.20 56.73,305.87 56.62,307.53 56.51,309.19 56.40,310.85 56.28,312.52 56.17,314.18 56.06,315.84 56.00,317.41 56.16,319.01 56.13,320.59 56.23,322.20 56.34,323.82 56.42,325.43 56.50,327.05 56.56,328.60 56.61,330.15 56.74,331.65 56.87,333.24 57.12,334.79 57.26,336.44 57.40,338.09 57.55,339.85 57.68,341.48 57.80,343.28 58.02,345.06 58.13,346.76 58.26,348.59 58.49,350.27 58.64,352.11 58.80,353.95 58.93,355.83 59.10,357.65 59.25,359.57 59.41,361.48 59.57,363.38 59.85,365.17 60.13,366.97 60.40,368.76 60.68,370.55 60.96,372.35 61.32,374.10 61.66,375.95 62.07,377.63 62.48,379.32 62.88,381.00 63.29,382.69 63.70,384.37 64.11,386.06 64.57,387.45 65.19,388.83 65.64,390.12 66.19,391.32 66.74,392.41 67.28,393.50 67.83,394.59 68.37,395.68 68.92,396.77 69.46,397.86 70.08,398.75 70.72,399.48 71.45,400.14 72.10,400.55 72.75,400.97 73.40,401.39 74.05,401.80 74.70,402.22 75.34,402.64 76.00,402.78 76.72,402.80 77.42,402.72 78.06,402.60 78.70,402.48 79.34,402.36 79.98,402.24 80.62,402.11 81.25,401.99 81.87,401.84 82.45,401.55 83.17,401.26 83.71,401.18 84.25,401.11 84.79,401.03 85.33,400.95 85.88,400.87 86.42,400.80 86.87,400.72 87.27,400.78 87.66,400.92 88.00,401.00 88.34,401.09 88.68,401.17 89.03,401.25 89.37,401.34 89.71,401.42 89.94,401.54 90.21,401.63 90.49,401.73 90.75,401.88 91.02,402.00 91.29,402.13 91.56,402.25 91.83,402.37 92.10,402.49 92.37,402.61 92.82,402.74 93.17,402.84 93.67,402.91 94.29,402.94 94.92,402.98 95.55,403.01 96.17,403.04 96.80,403.07 97.43,403.10 98.16,403.16 98.97,403.28 99.98,403.42 100.99,403.56 102.01,403.70 103.02,403.84 104.03,403.98 105.05,404.12 106.06,404.26 107.29,404.49 108.71,404.60 110.31,404.80 111.91,405.01 113.50,405.21 115.10,405.42 116.88,405.66 118.78,406.01 120.80,406.34 122.95,406.64 125.11,407.01 127.46,407.42 130.03,407.74 132.60,408.06 135.17,408.37 137.99,408.67 140.84,408.89 143.73,409.34 146.62,409.71 149.67,410.29 152.67,410.60 155.81,411.01 158.95,411.44 162.09,411.86 165.27,412.36 168.55,412.71 171.60,413.39 174.64,413.99 177.33,414.69 180.03,415.39 182.72,416.09 185.42,416.79 188.11,417.49 190.73,418.12 193.22,418.90 195.70,419.67 198.01,420.63 200.32,421.59 202.62,422.54 204.93,423.50 207.24,424.45 209.55,425.41 211.65,426.38 213.73,427.31 215.83,428.15 218.03,428.83 220.24,429.51 222.44,430.19 224.64,430.87 226.84,431.56 229.04,432.24 231.45,432.74 233.87,433.28 236.47,433.76 239.08,434.41 241.70,435.05 244.31,435.70 246.93,436.35 249.54,436.99 252.16,437.64 254.73,438.38 257.30,439.12 259.71,440.03 262.04,440.98 264.36,441.93 266.69,442.88 269.01,443.83 271.33,444.79 273.66,445.74 275.98,446.69 278.13,447.74 280.30,448.82 282.43,449.83 284.37,450.89 286.31,451.95 288.25,453.01 290.19,454.06 292.13,455.12 294.07,456.18 295.92,457.29 297.67,458.29 299.37,459.31 301.01,460.31 302.65,461.30 304.28,462.30 305.92,463.30 307.56,464.30 309.20,465.30 310.70,466.23 312.19,467.16 313.59,468.16 314.90,469.06 316.21,469.96 317.52,470.87 318.83,471.77 320.14,472.67 321.45,473.57 322.61,474.41 323.71,475.24 324.81,476.07 325.81,476.78 326.81,477.50 327.81,478.21 328.81,478.92 329.81,479.63 330.81,480.34 331.71,481.03 332.65,481.56 333.30,482.00 333.94,482.44 334.58,482.88 335.23,483.33 335.87,483.77 336.52,484.21 337.16,484.65 337.80,485.09 337.87,485.40 337.95,485.71 338.03,485.83 337.87,486.12 337.70,486.40 337.54,486.68 337.36,486.94 337.15,487.15 336.89,487.40 336.54,487.63 336.28,487.77 335.95,488.01 335.50,488.19 335.06,488.37 334.63,488.58 334.12,488.76 333.60,489.04 333.08,489.21 332.46,489.55 331.90,489.78 331.20,490.11 330.54,490.39 329.87,490.66 329.21,491.05 328.42,491.36 327.76,491.64 326.93,491.99 326.19,492.25 325.37,492.53 324.55,492.81 323.73,493.09 322.91,493.37 322.08,493.65 321.25,493.92 320.39,494.21 319.43,494.58 318.47,494.95 317.51,495.33 316.55,495.70 315.59,496.07 314.63,496.44 313.70,496.85 312.69,497.45 311.64,497.98 310.58,498.64 309.44,499.49 308.30,500.33 307.16,501.17 306.02,502.02 304.88,502.86 303.74,503.71 302.55,504.76 301.34,505.77 300.09,507.05 298.82,508.42 297.55,509.79 296.28,511.16 295.00,512.54 293.73,513.91 292.46,515.28 291.18,516.77 289.85,518.14 288.55,519.53 287.20,520.96 285.85,522.40 284.49,523.83 283.14,525.27 281.78,526.71 280.43,528.14 278.87,529.64 277.35,531.13 275.79,532.59 274.25,534.09 272.70,535.59 271.16,537.09 269.61,538.59 268.07,540.09 266.52,541.59 265.05,543.09 263.54,544.53 262.09,545.95 260.64,547.36 259.19,548.77 257.74,550.19 256.30,551.60 254.85,553.01 253.40,554.43 252.07,555.59 250.74,556.65 249.36,557.75 248.02,558.79 246.73,559.65 245.45,560.51 244.17,561.37 242.88,562.23 241.60,563.08 240.31,563.94 239.07,564.71 237.82,565.49 236.56,566.25 235.06,566.85 233.56,567.45 232.06,568.05 230.56,568.65 229.07,569.24 227.57,569.84 225.58,570.07 223.57,570.26 221.35,570.37 219.01,569.92 216.67,569.48 214.33,569.03 211.99,568.58 209.64,568.14 207.30,567.69 204.88,567.25 202.32,566.95 199.68,566.77 197.06,566.65 194.44,566.53 191.82,566.42 189.20,566.30 186.69,566.18 184.15,566.22 181.74,566.24 179.33,566.47 177.27,566.90 175.21,567.33 173.16,567.76 171.10,568.19 169.48,568.81 168.16,569.41 166.93,570.00 165.94,570.62 164.97,571.18 164.18,571.87 163.42,572.48 162.71,573.16 162.01,573.84 161.32,574.59 160.55,575.35 159.69,576.07 158.84,576.73 157.99,577.43 157.14,578.13 156.29,578.83 155.44,579.53 154.59,580.23 153.95,580.96 153.23,581.58 152.70,582.10 152.37,582.36 152.04,582.62 151.71,582.87 151.38,583.13 151.05,583.39 150.72,583.64 150.41,583.92 150.03,584.19 149.56,584.42 149.10,584.66 148.64,584.89 148.18,585.13 147.72,585.36 147.26,585.60 146.80,585.83 146.20,586.18 145.55,586.56 144.96,586.92 144.32,587.25 143.67,587.58 143.03,587.92 142.39,588.25 141.75,588.58 141.11,588.91 140.46,589.24 139.75,589.66 139.15,590.07 138.55,590.49 137.96,590.91 137.36,591.32 136.76,591.74 136.16,592.15 135.56,592.57 134.97,592.98 134.61,593.40 134.33,593.80 134.18,594.24 134.40,594.55 134.62,594.86 134.84,595.17 135.06,595.47 135.28,595.78 135.50,596.09 135.93,596.34 136.42,596.64 136.81,596.85 137.31,597.18 137.82,597.52 138.32,597.85 138.83,598.18 139.33,598.52 139.84,598.85 140.31,599.30 140.85,599.73 141.39,600.18 141.86,600.58 142.32,600.97 142.78,601.36 143.25,601.75 143.71,602.15 144.17,602.54 144.45,603.03 144.72,603.52 145.00,604.01 145.10,604.45 145.20,604.90 145.31,605.34 145.41,605.79 145.52,606.23 145.62,606.68 145.52,607.16 145.57,607.63 145.51,608.05 145.45,608.46 145.39,608.88 145.33,609.30 145.27,609.72 145.21,610.13 145.17,610.41 145.26,610.79 145.18,610.99 145.30,611.28 145.22,611.52 145.19,611.79 145.15,612.06 144.99,612.32 144.99,612.58 144.93,612.90 144.80,613.14 144.75,613.27 144.56,613.32 144.43,613.55 144.20,613.56 143.96,613.57 143.67,613.44 143.37,613.42 143.11,613.31 142.79,613.07 142.46,612.83 142.18,612.61 141.90,612.40 141.63,612.19 141.35,611.97 141.06,611.91 140.87,611.79 140.66,611.77 140.47,611.86 140.28,611.95 140.10,612.04 139.91,612.13 139.73,612.23 139.54,612.32 139.48,612.60 139.38,612.95 139.31,613.49 139.27,613.75 139.24,614.01 139.20,614.27 139.17,614.53 139.13,614.80 139.10,615.06 138.96,615.37 138.92,615.50 138.91,615.64 138.83,615.76 138.74,615.89 138.66,616.01 138.58,616.14 138.50,616.26 138.42,616.38 138.33,616.51 138.25,616.63 138.00,616.51 137.70,616.39 137.49,616.09 137.28,615.79 137.06,615.48 136.85,615.18 136.64,614.88 136.42,614.58 136.33,614.04 136.24,613.84 136.16,613.60 136.26,613.36 136.37,613.12 136.47,612.88 136.58,612.64 136.68,612.39 136.78,612.15 137.13,611.98 137.43,611.79 137.79,611.85 138.21,611.88 138.62,611.92 139.04,611.95 139.45,611.99 139.87,612.02 140.29,612.06 140.82,612.41 141.19,612.77 141.69,613.09 141.97,613.45 142.24,613.81 142.52,614.17 142.79,614.53 143.07,614.89 143.34,615.25 143.55,615.65 143.77,615.86 143.87,616.31 143.98,616.50 144.08,616.72 144.18,616.94 144.28,617.16 144.38,617.37 144.48,617.59 144.57,617.81 144.65,617.89 144.60,618.15 144.54,618.41 144.51,618.57 144.48,618.73 144.45,618.89 144.42,619.05 144.55,619.28 144.63,619.51 144.76,619.78 144.88,620.08 145.21,620.58 145.33,621.09 145.44,621.60 145.36,621.90 145.43,622.07 145.42,622.50 145.59,622.51 145.81,622.72 145.86,622.59 146.29,622.58 146.47,622.77 146.64,622.95 146.97,623.57 147.08,623.99 147.19,624.28 147.14,624.61 146.78,625.80 146.35,626.09 145.92,626.38 145.49,626.66 145.07,626.95 144.87,627.17 144.57,627.14 144.26,627.31 143.97,627.52 143.69,627.74 143.40,627.95 143.11,628.16 142.82,628.38 142.53,628.59 142.25,628.80 141.96,629.02 141.89,629.39 141.49,629.75 141.26,629.88 141.04,630.00 140.81,630.13 140.59,630.26 140.36,630.38 140.14,630.51 139.93,630.74 139.95,631.15 139.98,631.51 140.01,631.76 140.04,632.02 140.07,632.27 140.10,632.52 140.13,632.77 140.15,633.02 140.18,633.27 140.05,633.63 139.92,633.99 139.89,634.09 139.87,634.19 139.84,634.29 139.82,634.39 139.79,634.49 139.76,634.59 139.61,634.98 139.43,635.41 139.28,635.61 139.09,635.90 138.90,636.18 138.72,636.47 138.53,636.75 138.34,637.03 138.16,637.32 137.91,637.44 137.79,637.60 137.54,637.70 137.37,637.85 137.21,638.00 137.04,638.15 136.87,638.30 136.71,638.46 136.54,638.61 136.37,638.76 136.14,639.59" fill="none" stroke="#111827" stroke-width="4" opacity="0.9"/>
  <polyline points="248.56,384.75 249.81,388.10 251.10,391.57 252.48,395.26 253.94,399.15 255.44,403.13 257.01,407.35 258.57,411.55 260.50,416.95 261.68,420.43 262.49,422.94 263.07,424.83 263.50,426.30 263.83,427.45 264.09,428.35 264.28,429.04 264.40,429.55 264.47,429.90 264.47,430.12 264.43,430.21 264.35,430.20 264.24,430.10 264.10,429.94 263.94,429.73 263.76,429.51 263.56,429.27 263.32,429.01 263.07,428.73 262.83,428.45 262.59,428.16 262.36,427.87 262.13,427.57 261.89,427.27 261.64,426.99 261.41,426.73 261.17,426.49 260.92,426.27 260.64,426.04 260.34,425.81 260.02,425.58 259.69,425.33 259.34,425.08 258.97,424.86 258.60,424.64 258.22,424.45 257.84,424.29 257.46,424.14 257.09,424.02 256.73,423.91 256.39,423.84 256.07,423.80 255.75,423.78 255.44,423.77 255.12,423.75 254.81,423.73 254.50,423.73 254.20,423.73 253.89,423.72 253.60,423.73 253.33,423.75 253.08,423.79 252.86,423.86 252.69,423.95 252.56,424.05 252.45,424.16 252.36,424.28 252.28,424.39 252.21,424.49 252.15,424.56 252.07,424.61 252.00,424.64 251.91,424.65 251.82,424.65 251.73,424.65 251.63,424.65 251.54,424.63 251.45,424.59 251.36,424.53 251.27,424.44 251.19,424.32 251.09,424.18 250.98,424.03 250.86,423.87 250.72,423.71 250.57,423.53 250.40,423.33 250.21,423.12 250.00,422.89 249.78,422.64 249.56,422.37 249.35,422.07 249.17,421.76 249.03,421.46 248.92,421.13 248.86,420.75 248.86,420.31 248.92,419.80 249.05,419.24 249.23,418.66 249.47,418.04 249.78,417.37 250.12,416.68 250.47,416.01 250.79,415.39 251.06,414.80 251.28,414.25 251.47,413.76 251.64,413.33 251.80,412.98 251.98,412.70 252.16,412.48 252.37,412.32 252.58,412.21 252.80,412.15 253.02,412.10 253.20,412.09 253.35,412.12 253.45,412.15 253.54,412.17 253.60,412.16 253.64,412.13 253.65,412.07 253.64,412.01 253.61,411.92 253.56,411.81 253.50,411.73 253.45,411.69 253.41,411.69 253.40,411.74 253.43,411.79 253.48,411.83 253.55,411.81 253.61,411.73 253.65,411.57 253.64,411.35 253.58,411.09 253.44,410.81 253.22,410.53 252.93,410.26 252.62,410.06 252.33,409.92 252.10,409.84 251.94,409.84 251.87,409.91 251.84,410.07 251.86,410.35 251.91,410.74 251.96,411.25 252.00,411.86 251.99,412.57 251.93,413.39 251.80,414.33 251.62,415.37 251.42,416.50 251.23,417.69 251.10,418.87 251.03,420.04 251.05,421.21 251.15,422.37 251.32,423.53 251.55,424.67 251.82,425.78 252.12,426.86 252.43,427.90 252.75,428.90 253.07,429.83 253.39,430.70 253.70,431.49 254.00,432.23 254.29,432.92 254.58,433.54 254.87,434.09 255.14,434.59 255.39,435.02 255.63,435.38 255.85,435.69 256.07,435.92 256.27,436.10 256.46,436.20 256.61,436.25 256.74,436.24 256.82,436.19 256.87,436.09 256.87,435.94 256.85,435.74 256.79,435.50 256.69,435.25 256.55,434.98 256.37,434.70 256.21,434.40 256.04,434.10 255.89,433.80 255.76,433.53 255.64,433.28 255.52,433.04 255.42,432.82 255.33,432.62 255.25,432.44 255.19,432.27 255.15,432.13 255.11,431.99 255.09,431.86 255.09,431.75 255.11,431.65 255.14,431.53 255.17,431.43 255.21,431.33 255.27,431.22 255.32,431.12 255.39,431.02 255.46,430.94 255.52,430.85 255.58,430.78 255.63,430.71 255.68,430.65 255.73,430.58 255.78,430.52 255.82,430.48 255.87,430.45 255.91,430.44 255.95,430.45 255.99,430.47 256.03,430.50 256.06,430.54 256.10,430.60 256.12,430.68 256.12,430.80 256.12,430.95 256.13,431.13 256.15,431.33 256.18,431.55 256.21,431.78 256.23,432.01 256.25,432.25 256.27,432.50 256.29,432.76 256.33,433.03 256.38,433.32 256.44,433.60 256.51,433.87 256.57,434.13 256.64,434.39 256.71,434.64 256.78,434.89 256.85,435.14 256.92,435.40 256.98,435.67 257.03,435.96 257.06,436.23 257.09,436.49 257.15,436.74 257.22,436.97 257.31,437.17 257.40,437.36 257.49,437.52 257.56,437.67 257.63,437.78 257.68,437.87 257.74,437.94 257.80,437.98 257.86,437.99 257.93,438.01 257.99,438.01 258.06,438.02 258.14,438.03 258.21,438.03 258.30,438.03 258.40,438.03 258.50,438.03 258.60,438.05 258.69,438.08 258.77,438.10 258.87,438.16 259.01,438.27 259.18,438.45 259.38,438.70 259.57,438.98 259.74,439.26 259.90,439.53 260.04,439.78 260.18,440.02 260.31,440.24 260.42,440.44 260.53,440.62 260.64,440.77 260.74,440.91 260.83,441.03 260.92,441.15 260.98,441.25 261.02,441.33 261.05,441.40 261.08,441.46 261.10,441.51 261.13,441.55 261.16,441.60 261.20,441.66 261.25,441.74 261.29,441.83 261.32,441.93 261.34,442.04 261.38,442.14 261.43,442.21 261.51,442.26 261.61,442.31 261.72,442.34 261.84,442.36 261.96,442.37 262.09,442.36 262.22,442.36 262.34,442.37 262.43,442.39 262.51,442.43 262.57,442.46 262.62,442.50 262.68,442.52 262.71,442.55 262.71,442.57 262.66,442.58 262.59,442.61 262.49,442.64 262.35,442.70 262.18,442.76 261.97,442.83 261.74,442.88 261.47,442.92 261.19,442.94 260.89,442.95 260.56,442.93 260.21,442.87 259.86,442.77 259.50,442.61 259.15,442.42 258.81,442.19 258.49,441.93 258.17,441.66 257.87,441.37 257.56,441.10 257.23,440.83 256.90,440.56 256.57,440.29 256.23,440.03 255.88,439.74 255.52,439.43 255.16,439.10 254.79,438.76 254.40,438.40 254.02,438.01 253.64,437.59 253.28,437.16 252.92,436.73 252.56,436.31 252.22,435.91 251.88,435.52 251.56,435.13 251.27,434.74 251.00,434.36 250.74,434.00 250.51,433.63 250.30,433.26 250.10,432.88 249.93,432.50 249.79,432.13 249.70,431.77 249.68,431.39 249.72,431.00 249.85,430.59 250.07,430.15 250.38,429.70 250.79,429.24 251.28,428.78 251.86,428.30 252.53,427.80 253.28,427.27 254.12,426.68 255.03,426.06 256.00,425.39 257.03,424.67 258.11,423.89 259.23,423.05 260.38,422.15 261.56,421.22 262.75,420.26 263.94,419.29 265.13,418.30 266.32,417.28 267.49,416.22 268.65,415.13 269.78,414.03 270.87,412.90 271.89,411.73 272.84,410.51 273.73,409.25 274.54,407.94 275.28,406.61 275.96,405.26 276.58,403.88 277.14,402.48 277.63,401.05 278.06,399.60 278.45,398.13 278.79,396.65 279.08,395.16 279.32,393.66 279.50,392.16 279.64,390.63 279.75,389.10 279.83,387.55 279.89,386.00 279.90,384.42 279.88,382.84 279.80,381.25 279.70,379.65 279.55,378.04 279.37,376.42 279.14,374.76 278.85,373.04 278.55,371.28 278.24,369.46 277.93,367.56 277.65,365.62 277.38,363.64 277.16,361.61 276.99,359.51 276.88,357.36 276.82,355.18 276.81,352.97 276.84,350.75 276.92,348.53 277.05,346.33 277.25,344.19 277.50,342.09 277.81,340.03 278.16,338.00 278.56,336.00 279.00,334.04 279.46,332.12 279.94,330.26 280.43,328.44 280.91,326.65 281.37,324.86 281.82,323.12 282.25,321.39 282.67,319.68 283.09,317.98 283.50,316.27 283.92,314.58 284.34,312.88 284.79,311.17 285.22,309.43 285.63,307.66 286.02,305.88 286.38,304.11 286.74,302.36 287.08,300.60 287.42,298.82 287.74,297.01 288.06,295.19 288.36,293.34 288.64,291.45 288.90,289.48 289.12,287.43 289.30,285.32 289.44,283.16 289.56,280.95 289.65,278.68 289.73,276.36 289.80,273.97 289.87,271.52 289.94,269.03 290.03,266.51 290.13,263.96 290.25,261.36 290.37,258.73 290.51,256.07 290.67,253.36 290.83,250.58 290.99,247.75 291.15,244.88 291.28,241.94 291.40,238.93 291.49,235.87 291.55,232.76 291.59,229.63 291.62,226.48 291.63,223.31 291.65,220.16 291.67,217.02 291.69,213.89 291.69,210.80 291.68,207.74 291.67,204.72 291.65,201.76 291.65,198.86 291.64,196.00 291.63,193.18 291.63,190.40 291.64,187.66 291.66,184.96 291.69,182.34 291.75,179.76 291.83,177.23 291.92,174.72 292.03,172.24 292.16,169.79 292.31,167.37 292.48,164.98 292.70,162.63 292.95,160.30 293.22,158.02 293.48,155.78 293.75,153.57 294.01,151.37 294.27,149.20 294.53,147.06 294.76,144.96 294.95,142.91 295.10,140.92 295.19,139.00 295.22,137.16 295.17,135.37 295.01,133.61 294.74,131.87 294.36,130.15 293.90,128.52 293.36,126.95 292.74,125.46 292.01,124.00 291.17,122.57 290.20,121.19 289.09,119.85 287.86,118.55 286.51,117.28 285.05,116.03 283.49,114.80 281.82,113.61 280.04,112.47 278.17,111.38 276.22,110.32 274.17,109.27 272.06,108.25 269.88,107.26 267.64,106.31 265.36,105.38 263.05,104.48 260.74,103.61 258.43,102.77 256.10,101.94 253.78,101.11 251.48,100.29 249.19,99.50 246.91,98.73 244.61,97.96 242.31,97.21 240.02,96.48 237.73,95.79 235.44,95.12 233.16,94.49 230.88,93.86 228.62,93.25 226.36,92.64 224.13,92.04 221.93,91.46 219.77,90.90 217.62,90.36 215.48,89.83 213.35,89.31 211.23,88.82 209.12,88.35 207.03,87.89 204.96,87.46 202.93,87.04 200.90,86.62 198.86,86.20 196.83,85.79 194.81,85.39 192.80,84.99 190.79,84.58 188.79,84.15 186.81,83.72 184.86,83.29 182.95,82.86 181.08,82.46 179.26,82.10 177.48,81.74 175.74,81.41 174.05,81.10 172.39,80.80 170.77,80.53 169.19,80.28 167.61,80.03 166.04,79.81 164.47,79.65 162.90,79.53 161.32,79.44 159.71,79.37 158.07,79.31 156.39,79.28 154.71,79.27 153.02,79.30 151.34,79.36 149.68,79.48 148.07,79.64 146.50,79.82 144.98,80.05 143.52,80.34 142.12,80.70 140.79,81.14 139.54,81.65 138.35,82.23 137.23,82.86 136.18,83.53 135.19,84.25 134.28,85.04 133.44,85.86 132.63,86.72 131.87,87.62 131.13,88.56 130.41,89.54 129.73,90.56 129.08,91.62 128.44,92.72 127.81,93.85 127.18,95.00 126.54,96.19 125.86,97.46 125.14,98.80 124.38,100.22 123.61,101.66 122.84,103.12 122.11,104.59 121.40,106.06 120.73,107.59 120.09,109.16 119.50,110.76 118.95,112.40 118.42,114.06 117.90,115.73 117.39,117.40 116.87,119.08 116.33,120.77 115.78,122.45 115.22,124.13 114.66,125.82 114.10,127.52 113.54,129.25 113.00,131.04 112.49,132.90 112.01,134.83 111.53,136.79 111.04,138.76 110.52,140.73 109.97,142.74 109.41,144.77 108.83,146.86 108.25,149.02 107.67,151.23 107.09,153.51 106.51,155.85 105.91,158.22 105.33,160.62 104.77,163.05 104.22,165.50 103.68,167.99 103.14,170.50 102.59,173.03 102.04,175.58 101.49,178.18 100.96,180.82 100.45,183.47 99.97,186.14 99.54,188.84 99.17,191.55 98.84,194.28 98.53,197.00 98.21,199.70 97.88,202.39 97.55,205.07 97.23,207.75 96.91,210.42 96.61,213.09 96.35,215.75 96.12,218.41 95.95,221.08 95.82,223.75 95.72,226.40 95.65,229.03 95.58,231.64 95.53,234.22 95.47,236.77 95.40,239.28 95.31,241.74 95.21,244.15 95.10,246.51 94.96,248.82 94.78,251.08 94.59,253.30 94.36,255.45 94.10,257.55 93.79,259.59 93.41,261.57 92.97,263.52 92.47,265.46 91.91,267.39 91.30,269.33 90.65,271.29 89.97,273.26 89.27,275.26 88.55,277.28 87.81,279.31 87.06,281.34 86.28,283.36 85.47,285.35 84.65,287.33 83.83,289.32 82.98,291.31 82.15,293.31 81.32,295.31 80.49,297.29 79.66,299.28 78.82,301.28 77.97,303.29 77.13,305.29 76.29,307.27 75.49,309.23 74.72,311.19 73.98,313.16 73.27,315.11 72.58,317.05 71.93,318.96 71.30,320.83 70.67,322.66 70.01,324.45 69.34,326.20 68.68,327.94 68.04,329.66 67.46,331.35 66.90,333.02 66.38,334.66 65.91,336.27 65.51,337.83 65.17,339.36 64.88,340.87 64.61,342.37 64.35,343.86 64.13,345.36 63.95,346.86 63.82,348.34 63.73,349.81 63.69,351.26 63.70,352.70 63.75,354.16 63.84,355.65 63.95,357.13 64.09,358.62 64.27,360.12 64.51,361.65 64.82,363.20 65.17,364.75 65.55,366.31 65.97,367.89 66.42,369.48 66.90,371.08 67.40,372.72 67.90,374.37 68.40,376.02 68.90,377.67 69.40,379.36 69.91,381.09 70.44,382.87 70.99,384.71 71.57,386.58 72.16,388.48 72.75,390.42 73.33,392.38 73.91,394.37 74.49,396.38 75.08,398.37 75.67,400.35 76.27,402.32 76.83,404.26 77.37,406.17 77.87,408.05 78.36,409.92 78.86,411.77 79.35,413.60 79.84,415.38 80.35,417.13 80.86,418.82 81.36,420.45 81.86,422.01 82.36,423.51 82.88,424.95 83.41,426.33 83.98,427.66 84.58,428.94 85.20,430.15 85.83,431.31 86.47,432.41 87.11,433.45 87.75,434.41 88.39,435.30 89.04,436.10 89.70,436.80 90.36,437.42 91.03,437.95 91.69,438.37 92.36,438.68 93.02,438.90 93.69,439.04 94.39,439.09 95.11,439.08 95.84,438.96 96.56,438.74 97.30,438.45 98.04,438.08 98.77,437.65 99.50,437.19 100.22,436.71 100.94,436.21 101.65,435.70 102.35,435.17 103.04,434.63 103.72,434.08 104.39,433.52 105.03,432.96 105.64,432.42 106.22,431.91 106.73,431.40 107.20,430.89 107.64,430.41 108.05,429.95 108.41,429.52 108.75,429.13 109.07,428.78 109.38,428.47 109.64,428.20 109.87,427.97 110.05,427.78 110.21,427.64 110.34,427.53 110.47,427.48 110.60,427.49 110.75,427.53 110.92,427.60 111.10,427.70 111.28,427.82 111.47,427.95 111.69,428.06 111.94,428.16 112.23,428.23 112.57,428.31 112.96,428.38 113.39,428.46 113.86,428.55 114.37,428.64 114.95,428.75 115.60,428.85 116.32,428.96 117.11,429.08 117.97,429.22 118.89,429.36 119.87,429.51 120.92,429.66 122.04,429.80 123.20,429.97 124.42,430.14 125.69,430.34 127.04,430.55 128.46,430.77 129.99,430.98 131.63,431.20 133.40,431.42 135.32,431.64 137.38,431.87 139.57,432.08 141.92,432.29 144.41,432.49 147.00,432.68 149.70,432.87 152.50,433.06 155.39,433.22 158.38,433.37 161.49,433.51 164.70,433.65 168.01,433.79 171.40,433.97 174.85,434.17 178.34,434.39 181.84,434.64 185.35,434.92 188.84,435.25 192.28,435.62 195.68,436.05 199.03,436.54 202.31,437.09 205.53,437.70 208.71,438.36 211.86,439.07 214.98,439.84 218.05,440.67 221.07,441.55 224.03,442.47 226.93,443.43 229.75,444.44 232.51,445.45 235.21,446.48 237.85,447.51 240.47,448.54 243.06,449.57 245.60,450.57 248.11,451.55 250.62,452.51 253.14,453.44 255.69,454.32 258.26,455.16 260.82,455.95 263.38,456.70 265.92,457.43 268.47,458.13 271.02,458.83 273.57,459.53 276.14,460.21 278.72,460.89 281.30,461.56 283.87,462.24 286.41,462.92 288.93,463.61 291.43,464.31 293.92,465.03 296.38,465.79 298.80,466.59 301.19,467.41 303.54,468.24 305.86,469.08 308.14,469.94 310.40,470.81 312.62,471.71 314.80,472.64 316.94,473.60 319.03,474.59 321.08,475.60 323.09,476.62 325.07,477.64 327.00,478.64 328.87,479.64 330.68,480.62 332.44,481.58 334.13,482.51 335.75,483.42 337.32,484.34 338.82,485.27 340.28,486.22 341.68,487.16 343.06,488.11 344.42,489.06 345.77,490.02 347.09,490.98 348.38,491.95 349.61,492.94 350.80,493.94 351.95,494.91 353.07,495.85 354.16,496.79 355.20,497.71 356.21,498.62 357.18,499.51 358.09,500.38 358.97,501.24 359.80,502.08 360.60,502.90 361.36,503.67 362.08,504.41 362.74,505.11 363.36,505.76 363.92,506.35 364.44,506.88 364.87,507.38 365.22,507.83 365.49,508.26 365.66,508.67 365.75,509.06 365.76,509.43 365.70,509.78 365.57,510.09 365.36,510.38 365.09,510.64 364.76,510.86 364.37,511.05 363.93,511.19 363.46,511.34 362.93,511.48 362.35,511.62 361.73,511.74 361.06,511.81 360.37,511.86 359.66,511.90 358.93,511.95 358.17,512.04 357.41,512.13 356.62,512.24 355.81,512.35 354.95,512.46 354.05,512.60 353.10,512.75 352.12,512.93 351.11,513.11 350.08,513.29 349.04,513.46 348.02,513.62 347.00,513.79 345.98,513.95 344.96,514.11 343.93,514.27 342.91,514.46 341.88,514.66 340.86,514.86 339.82,515.09 338.76,515.33 337.69,515.59 336.60,515.85 335.50,516.12 334.40,516.43 333.28,516.78 332.15,517.16 331.01,517.58 329.84,518.05 328.63,518.57 327.39,519.13 326.13,519.74 324.85,520.40 323.57,521.12 322.28,521.92 321.00,522.83 319.71,523.83 318.41,524.94 317.14,526.12 315.88,527.37 314.61,528.66 313.33,530.00 312.06,531.39 310.80,532.85 309.55,534.35 308.31,535.87 307.07,537.39 305.82,538.91 304.55,540.44 303.23,541.99 301.86,543.56 300.45,545.15 299.00,546.78 297.54,548.44 296.08,550.13 294.62,551.83 293.15,553.53 291.68,555.23 290.20,556.90 288.73,558.58 287.27,560.24 285.82,561.89 284.36,563.51 282.89,565.11 281.43,566.66 279.99,568.17 278.56,569.63 277.16,571.03 275.78,572.37 274.42,573.67 273.08,574.90 271.77,576.08 270.45,577.21 269.15,578.29 267.86,579.33 266.60,580.32 265.36,581.27 264.15,582.18 262.95,583.06 261.75,583.90 260.54,584.72 259.31,585.50 258.05,586.25 256.75,586.95 255.41,587.60 254.02,588.19 252.54,588.70 250.98,589.14 249.34,589.49 247.59,589.73 245.75,589.86 243.82,589.86 241.81,589.75 239.74,589.55 237.60,589.28 235.40,588.93 233.13,588.55 230.80,588.12 228.41,587.64 225.94,587.15 223.39,586.66 220.77,586.17 218.11,585.69 215.44,585.24 212.77,584.82 210.12,584.42 207.50,584.08 204.91,583.79 202.38,583.58 199.94,583.45 197.57,583.40 195.30,583.42 193.18,583.54 191.20,583.78 189.36,584.11 187.68,584.53 186.13,585.03 184.72,585.57 183.43,586.14 182.26,586.75 181.20,587.40 180.25,588.09 179.37,588.82 178.54,589.56 177.77,590.33 177.05,591.13 176.37,591.96 175.74,592.81 175.16,593.68 174.63,594.56 174.15,595.48 173.73,596.38 173.36,597.24 173.03,598.05 172.74,598.78 172.47,599.44 172.24,600.03 172.00,600.55 171.76,601.01 171.53,601.42 171.31,601.78 171.10,602.09 170.89,602.36 170.67,602.59 170.41,602.78 170.11,602.96 169.76,603.13 169.38,603.31 168.96,603.49 168.50,603.67 168.00,603.83 167.48,603.99 166.96,604.14 166.44,604.28 165.90,604.41 165.32,604.56 164.70,604.71 164.04,604.86 163.35,605.04 162.64,605.25 161.93,605.46 161.21,605.68 160.50,605.89 159.79,606.13 159.11,606.38 158.47,606.63 157.88,606.88 157.36,607.14 156.92,607.40 156.56,607.68 156.28,607.95 156.09,608.21 155.97,608.46 155.91,608.70 155.88,608.96 155.89,609.23 155.96,609.50 156.09,609.77 156.28,610.05 156.54,610.34 156.86,610.65 157.23,610.98 157.63,611.35 158.06,611.74 158.52,612.16 159.00,612.60 159.51,613.04 160.03,613.49 160.56,613.94 161.08,614.37 161.61,614.80 162.14,615.23 162.66,615.64 163.18,616.06 163.70,616.49 164.19,616.89 164.66,617.28 165.12,617.65 165.54,618.00 165.93,618.33 166.27,618.65 166.57,618.97 166.83,619.29 167.05,619.63 167.22,619.97 167.37,620.33 167.50,620.72 167.62,621.12 167.72,621.54 167.81,621.98 167.87,622.43 167.92,622.90 167.95,623.37 167.97,623.84 167.96,624.30 167.93,624.72 167.87,625.13 167.79,625.50 167.68,625.85 167.55,626.22 167.41,626.58 167.28,626.90 167.13,627.18 166.96,627.40 166.77,627.57 166.55,627.70 166.29,627.82 165.98,627.94 165.64,628.05 165.28,628.13 164.90,628.16 164.50,628.15 164.08,628.14 163.63,628.18 163.15,628.28 162.64,628.41 162.09,628.59 161.54,628.86 160.98,629.21 160.43,629.63 159.91,630.12 159.41,630.65 158.94,631.23 158.48,631.85 158.05,632.54 157.64,633.31 157.25,634.10 156.89,634.93 156.56,635.81 156.25,636.77 155.96,637.85 155.69,639.02 155.43,640.29 155.19,641.70 154.95,643.21 154.72,644.81 154.50,646.47 154.28,648.17 154.07,649.92 153.88,651.66 153.71,653.38 153.56,655.07 153.40,656.77 153.23,658.48 153.05,660.17 152.85,661.86 152.62,663.55 152.37,665.28 152.08,667.05 151.76,668.83 151.43,670.63 151.10,672.43 150.79,674.13 150.51,675.72 150.26,677.20 150.03,678.55 149.83,679.79 149.68,680.99 149.56,682.17 149.47,683.32 149.42,684.44 149.40,685.52 149.39,686.56 149.40,687.55 149.46,688.48 149.57,689.33 149.73,690.08 149.93,690.72 150.19,691.26 150.50,691.71 150.84,692.11 151.17,692.67 151.49,693.29 151.82,693.83 152.15,694.39 152.46,694.98 152.74,695.61 153.01,696.25 153.25,696.89 153.49,697.49 153.73,698.01 153.98,698.45 154.22,698.84 154.44,699.17 154.64,699.44 154.83,699.59 155.01,699.62 155.17,699.60 155.32,699.56 155.45,699.49 155.56,699.41 155.65,699.34 155.70,699.31 155.74,699.31 155.78,699.32 155.85,699.31 155.93,699.29 156.02,699.25 156.14,699.20 156.27,699.16 156.41,699.18 156.53,699.25 156.65,699.39 156.75,699.58 156.83,699.79 156.90,700.00 156.97,700.22 157.05,700.45 157.13,700.66 157.23,700.86 157.32,701.09 157.42,701.28 157.53,701.43 157.65,701.58 157.78,701.72 157.91,701.87 158.01,702.00 158.07,702.18 158.10,702.42 158.21,702.61 158.31,702.77 158.39,702.89 158.44,703.05 158.47,703.21 158.51,703.25 158.53,703.28 158.51,703.37 158.47,703.47 158.42,703.60 158.34,703.75 158.25,703.90 158.12,704.00 157.96,703.99 157.77,703.93 157.55,703.84 157.31,703.68 157.06,703.46 156.78,703.21 156.51,702.91 156.25,702.56 155.99,702.18 155.74,701.78 155.50,701.37 155.26,701.00 155.03,700.66 154.80,700.33 154.58,700.04 154.38,699.75 154.20,699.40 154.03,699.07 153.86,698.82 153.71,698.59 153.57,698.40 153.43,698.26 153.29,698.15 153.15,698.07 153.03,698.02 152.93,697.97 152.83,697.91 152.74,697.85 152.66,697.78 152.58,697.70 152.50,697.64 152.42,697.57 152.34,697.50 152.26,697.43 152.17,697.34 152.07,697.31 151.96,697.32 151.83,697.34 151.69,697.33 151.55,697.32 151.40,697.33 151.25,697.31 151.10,697.27 150.93,697.27 150.75,697.32" fill="none" stroke="#2563eb" stroke-width="4" opacity="0.9"/>
  <circle cx="247.27" cy="381.29" r="7" fill="#10b981"/>
  <circle cx="136.14" cy="639.59" r="7" fill="#ef4444"/>
  <g font-family="Arial, sans-serif" font-size="14">
    <rect x="724" y="32" width="220" height="116" fill="#ffffff" stroke="#d1d5db"/>
    <line x1="744" y1="58" x2="794" y2="58" stroke="#111827" stroke-width="4"/><text x="808" y="63" fill="#111827">Ground truth</text>
    <line x1="744" y1="84" x2="794" y2="84" stroke="#2563eb" stroke-width="4"/><text x="808" y="89" fill="#111827">Fused estimate</text>
    <line x1="744" y1="110" x2="794" y2="110" stroke="#f97316" stroke-width="3"/><text x="808" y="115" fill="#111827">GNSS</text>
    <line x1="744" y1="136" x2="794" y2="136" stroke="#16a34a" stroke-width="3"/><text x="808" y="141" fill="#111827">VIO / odom</text>
  </g>
</svg>
