<svg xmlns="http://www.w3.org/2000/svg" width="1000" height="760" viewBox="0 0 1000 760">
  <rect width="100%" height="100%" fill="#ffffff"/>
  <text x="56" y="42" font-family="Arial, sans-serif" font-size="26" font-weight="700" fill="#111827">INSANE Navigation Fusion Replay</text>
  <text x="56" y="72" font-family="Arial, sans-serif" font-size="15" fill="#4b5563">Fused RMSE 1.18 m | GNSS 5.09 m | VIO 1.20 m</text>
  <text x="56" y="724" font-family="Arial, sans-serif" font-size="13" fill="#6b7280">Bounds: x -20.4..51.2 m, y -27.4..2.5 m</text>
  <g stroke="#e5e7eb" stroke-width="1">
    <line x1="100" y1="100" x2="100" y2="690"/><line x1="200" y1="100" x2="200" y2="690"/><line x1="300" y1="100" x2="300" y2="690"/><line x1="400" y1="100" x2="400" y2="690"/><line x1="500" y1="100" x2="500" y2="690"/><line x1="600" y1="100" x2="600" y2="690"/><line x1="700" y1="100" x2="700" y2="690"/><line x1="800" y1="100" x2="800" y2="690"/><line x1="900" y1="100" x2="900" y2="690"/>
    <line x1="56" y1="120" x2="944" y2="120"/><line x1="56" y1="200" x2="944" y2="200"/><line x1="56" y1="280" x2="944" y2="280"/><line x1="56" y1="360" x2="944" y2="360"/><line x1="56" y1="440" x2="944" y2="440"/><line x1="56" y1="520" x2="944" y2="520"/><line x1="56" y1="600" x2="944" y2="600"/><line x1="56" y1="680" x2="944" y2="680"/>
  </g>
  <polyline points="315.68,387.75 315.92,387.72 316.09,387.74 316.09,388.00 316.14,388.30 316.27,388.65 316.17,388.69 316.04,388.67 315.87,388.58 315.24,387.46 314.33,385.79 313.38,385.79 312.83,385.67 312.77,385.42 312.96,385.59 313.24,385.85 313.72,386.10 314.09,386.47 314.38,386.92 314.50,387.35 314.49,387.89 314.31,388.58 314.23,389.42 314.26,390.15 314.56,390.49 314.70,390.84 314.78,391.17 315.07,391.17 315.06,391.56 314.65,392.51 314.71,392.76 314.89,392.93 315.06,393.44 315.42,393.86 315.92,394.23 316.40,394.75 316.95,395.19 317.61,395.53 318.01,395.29 318.24,395.16 318.13,395.67 317.44,396.91 316.40,398.54 315.04,399.74 313.68,400.91 312.31,402.03 310.85,403.48 309.39,404.97 307.96,406.38 306.51,408.12 305.11,409.97 304.39,410.58 303.57,411.22 302.62,411.91 301.93,412.82 301.60,413.54 302.17,413.62 302.69,413.92 303.17,414.37 303.41,415.05 303.24,415.70 302.53,416.30 302.35,415.84 302.41,415.13 302.82,414.45 303.32,414.15 303.82,414.07 303.76,414.16 303.46,414.12 302.95,413.95 302.15,413.40 301.34,412.99 300.58,413.07 299.37,411.57 297.98,409.34 297.33,408.91 297.32,408.61 298.03,408.43 299.42,409.84 300.61,410.69 301.02,409.42 301.40,408.63 301.74,408.08 301.86,407.30 302.01,406.73 302.19,406.39 302.69,406.65 303.40,407.00 304.48,407.35 305.58,407.63 306.59,407.84 306.65,407.67 306.53,407.58 306.24,407.58 305.22,407.21 304.20,406.85 303.49,406.67 303.70,406.39 304.38,406.03 305.39,405.60 306.09,405.50 306.45,405.76 306.80,406.24 307.12,406.66 307.35,406.83 307.28,406.89 307.05,406.91 306.99,407.08 306.99,407.09 307.05,406.92 307.11,407.26 307.17,407.74 307.23,408.44 306.75,409.19 306.02,409.99 306.08,411.12 306.14,412.16 306.19,413.10 306.00,413.39 305.68,413.69 305.16,414.37 304.47,415.06 303.70,415.77 303.23,416.55 302.64,417.20 301.93,417.72 301.27,418.16 300.71,418.50 300.42,418.59 299.93,418.51 299.32,418.40 298.79,419.07 298.64,420.26 298.93,422.07 299.38,423.51 299.81,424.65 300.10,425.07 300.18,425.29 300.12,425.38 299.93,425.38 299.97,425.49 300.26,425.75 300.41,425.94 300.52,426.04 300.58,425.96 300.84,426.28 301.26,426.94 302.45,429.17 304.05,431.56 306.12,434.14 306.76,435.01 307.25,435.57 307.88,435.99 308.37,436.08 308.82,436.03 309.65,436.55 310.57,437.07 311.58,437.58 312.54,437.88 313.31,438.02 313.61,437.85 314.06,437.68 314.56,437.51 314.50,437.42 314.42,437.22 314.30,436.87 314.33,436.60 314.33,436.34 314.15,436.09 314.13,435.89 314.18,435.68 314.12,435.06 313.91,434.32 313.57,433.48 313.83,433.08 314.13,432.79 314.31,432.61 314.53,432.60 314.76,432.69 314.88,432.69 314.95,432.49 314.95,432.06 314.95,431.33 314.96,430.73 315.02,430.65 314.85,430.56 314.52,430.48 313.87,430.39 313.30,430.26 312.83,430.09 312.36,429.71 311.97,429.34 311.85,429.16 311.81,428.81 311.80,428.36 311.62,427.30 311.38,426.47 311.09,425.87 310.95,425.56 310.78,425.26 310.48,424.83 310.31,424.57 310.19,424.41 310.13,424.32 310.01,424.15 309.84,423.89 309.71,423.48 309.66,423.04 309.77,422.53 309.59,421.96 309.24,421.37 309.24,421.19 309.30,421.02 309.42,420.84 309.64,420.52 309.81,420.12 309.81,419.53 309.89,418.82 310.02,418.04 310.44,417.26 310.88,416.75 311.36,416.58 311.83,416.77 312.26,417.01 312.56,417.17 312.78,417.08 312.95,416.82 312.95,416.73 312.90,416.49 312.78,416.06 312.61,415.85 312.57,415.68 312.92,415.51 313.47,415.45 314.11,415.41 314.41,414.80 314.68,414.28 314.92,413.84 315.41,413.57 315.94,413.35 316.47,413.27 316.89,413.18 317.26,413.08 317.74,412.73 318.30,412.43 318.95,412.17 319.92,411.76 320.87,411.29 321.67,410.70 322.28,410.26 322.77,409.91 323.31,409.47 323.82,409.00 324.29,408.49 324.62,408.03 324.89,407.70 325.06,407.61 325.24,407.35 325.39,407.03 325.21,407.03 325.15,407.11 325.21,407.29 325.47,407.61 325.74,407.93 325.92,408.19 325.85,408.22 325.67,408.14 325.37,408.14 325.07,408.05 324.78,407.88 324.95,407.80 325.20,407.73 325.55,407.62 325.88,407.64 326.18,407.73 326.55,407.91 326.93,408.20 327.34,408.62 327.35,408.83 327.23,409.01 326.94,409.17 326.87,409.51 326.92,409.96 326.86,410.39 326.86,410.62 326.92,410.62 326.67,410.77 326.39,410.98 326.16,411.32 325.88,411.56 325.57,411.74 325.03,412.08 324.82,412.58 325.00,413.27 325.12,413.52 325.11,413.65 324.68,413.65 324.16,413.88 323.59,414.21 323.10,414.74 322.86,415.15 322.92,415.40 322.93,415.96 322.80,416.60 322.34,417.27 321.90,417.80 321.46,418.27 320.87,419.12 320.14,419.86 319.24,420.47 318.82,420.47 318.57,420.43 318.63,420.52 318.92,420.61 319.32,420.69 319.32,420.69 319.10,420.61 318.62,420.43 318.10,420.26 317.59,420.05 317.12,419.71 316.50,419.31 315.78,418.91 315.12,419.17 314.49,419.54 313.89,420.06 313.55,420.66 313.28,421.17 313.10,421.43 312.93,421.57 312.77,421.67 312.89,421.84 312.95,422.09 312.95,422.44 312.95,423.01 312.94,423.52 312.88,423.77 312.94,424.15 313.11,424.59 313.76,424.92 314.32,425.27 314.79,425.61 315.38,426.11 316.03,426.53 316.80,426.70 317.73,426.46 318.72,426.05 319.61,425.88 320.59,425.79 321.66,425.79 322.57,426.24 323.28,426.60 323.51,426.51 323.48,426.20 323.26,425.77 322.44,425.43 321.66,425.20 320.94,425.11 320.84,425.18 320.75,425.27 320.46,425.35 320.17,425.44 319.88,425.53 319.70,425.70 319.69,425.91 319.87,426.17 319.58,426.13 319.26,426.04 319.02,425.96 318.90,426.21 318.83,426.62 318.66,426.71 318.53,426.84 318.47,427.01 318.31,427.11 318.22,427.15 318.40,427.07 318.57,426.93 318.76,426.76 319.50,426.94 320.28,427.07 321.11,427.16 322.24,427.02 323.51,426.81 325.01,426.47 326.67,426.34 328.44,426.35 330.46,426.61 332.42,426.83 334.32,427.01 336.56,427.39 338.88,427.82 341.25,428.25 343.51,428.63 345.70,428.97 348.18,429.41 350.73,429.73 353.35,429.90 355.66,430.30 357.96,430.84 360.43,431.71 362.93,432.46 365.45,433.13 367.95,433.74 370.43,434.41 372.91,435.18 375.37,435.53 377.79,435.77 380.13,435.93 382.48,436.22 384.85,436.57 387.25,437.00 389.60,437.35 391.87,437.61 393.95,438.30 396.08,439.11 398.49,440.11 401.06,441.16 403.75,442.23 406.67,442.92 409.67,443.50 412.79,443.94 415.69,444.22 418.49,444.49 421.04,444.84 423.63,445.40 426.23,446.09 429.08,447.04 431.89,447.69 434.64,447.95 437.75,447.72 440.86,447.41 443.66,447.24 446.07,447.48 448.22,448.00 450.55,448.25 452.78,448.48 454.85,448.65 457.00,448.28 459.13,447.80 461.09,447.54 463.10,447.72 465.15,448.14 467.31,448.14 469.46,448.03 471.60,447.77 473.71,448.49 475.80,449.36 477.87,449.98 479.85,450.04 481.77,449.79 484.13,449.35 486.50,449.07 488.88,448.98 491.06,449.25 493.22,449.60 495.48,449.94 497.89,450.28 500.38,450.62 502.77,450.19 505.04,449.61 507.15,448.83 509.21,448.18 511.23,447.64 513.12,447.31 515.25,447.02 517.52,446.75 519.74,446.32 521.93,445.96 524.07,445.70 526.21,445.44 528.36,445.10 530.49,444.50 532.61,443.95 534.71,443.45 536.88,443.27 539.08,443.02 541.30,442.67 543.42,442.62 545.52,442.60 547.61,442.51 549.70,442.48 551.81,442.47 553.98,442.30 556.12,442.32 558.22,442.58 560.31,442.76 562.43,443.00 564.61,443.43 566.77,443.97 568.92,444.56 570.93,444.82 572.88,444.96 574.74,444.96 576.69,445.04 578.66,445.06 580.64,444.89 582.50,444.88 584.28,444.98 586.07,445.41 587.97,445.77 589.99,446.03 591.95,446.57 593.90,447.19 595.91,447.90 597.72,448.48 599.41,448.97 600.97,449.15 602.46,449.24 603.87,449.24 605.56,449.39 607.33,449.69 609.21,450.37 611.02,450.99 612.80,451.57 614.42,451.67 616.04,451.89 617.64,452.32 619.38,452.41 621.10,452.54 622.61,453.04 624.42,453.40 626.43,453.67 628.42,453.92 630.29,454.03 632.00,453.94 633.60,453.64 635.27,453.27 637.22,452.84 639.22,452.30 641.25,451.70 643.27,451.09 645.34,450.49 647.47,449.89 649.66,449.29 651.87,448.70 654.07,448.20 656.34,447.69 658.66,447.17 660.90,446.65 663.10,446.17 665.22,445.73 667.23,445.58 669.21,445.58 671.19,445.83 673.27,446.15 675.40,446.52 677.11,447.10 678.83,447.59 680.55,447.95 682.38,448.44 684.22,448.94 686.03,449.36 687.81,449.68 689.56,449.95 691.25,450.20 693.01,450.53 694.85,450.96 696.73,451.68 698.61,452.39 700.46,452.91 702.23,453.32 703.95,453.65 705.79,453.39 707.61,453.20 709.39,453.12 711.17,453.18 712.92,453.26 714.59,453.35 716.36,453.38 718.18,453.37 719.68,453.11 721.19,452.85 722.72,452.60 724.35,452.83 726.00,453.15 727.66,453.41 729.29,453.61 730.90,453.78 732.64,453.79 734.43,453.89 736.31,454.15 738.35,454.41 740.44,454.65 742.58,454.83 744.90,455.10 747.32,455.44 750.11,455.80 752.98,456.11 755.97,456.36 759.07,456.27 762.23,456.24 765.53,456.75 768.76,457.36 771.96,458.05 775.35,458.31 778.78,458.66 782.28,459.18 785.84,460.04 789.41,460.98 792.97,461.76 796.54,462.38 800.10,462.90 803.81,463.15 807.53,463.41 811.29,463.67 815.09,464.06 818.90,464.53 822.74,465.15 826.47,465.70 830.14,466.21 833.74,466.72 837.19,467.20 840.42,467.64 843.56,468.42 846.68,469.21 849.76,469.72 852.78,470.18 855.75,470.60 858.91,471.22 862.04,471.96 865.10,472.83 867.88,473.60 870.58,474.33 873.21,474.92 875.89,475.47 878.61,476.00 881.27,477.12 883.99,478.28 886.81,479.52 889.44,480.71 892.03,481.90 894.57,483.19 896.90,484.58 899.09,486.03 901.08,487.52 903.06,488.86 905.02,489.98 906.88,491.03 908.69,492.09 910.40,493.29 911.84,494.50 913.09,495.70 914.31,496.89 915.64,498.21 917.14,499.78 918.45,501.34 919.65,502.94 920.66,504.74 921.52,506.69 922.26,508.75 923.15,510.54 924.03,512.34 924.92,514.14 925.70,515.86 926.48,517.57 927.31,519.29 927.97,521.08 928.51,522.90 929.03,524.77 929.63,526.70 930.33,528.75 931.14,530.62 931.97,532.47 932.82,534.49 933.52,536.51 934.12,538.52 934.71,540.48 935.33,542.45 935.98,544.44 936.55,546.24 937.10,548.05 937.67,550.05 938.30,552.07 938.98,554.11 939.72,556.10 940.39,558.11 940.92,560.18 941.24,562.34 941.48,564.55 941.72,566.86 941.96,569.18 942.20,571.49 942.56,573.91 942.91,576.16 943.26,578.20 943.52,580.13 943.75,582.09 943.93,584.33 944.00,586.53 944.00,588.69 944.00,591.17 943.90,593.64 943.66,596.08 943.33,598.36 942.99,600.56 942.70,602.66 942.38,604.74 942.02,606.80 941.36,608.92 940.63,611.06 939.79,613.23 938.86,615.53 937.90,617.83 936.90,620.05 935.79,622.29 934.60,624.54 933.24,626.94 931.83,629.25 930.35,631.40 928.95,633.57 927.57,635.72 926.20,637.80 924.63,639.97 922.92,642.20 921.13,644.52 919.35,646.77 917.60,648.90 915.64,650.84 913.58,652.76 911.31,654.75 909.01,656.54 906.68,658.19 904.44,659.73 902.08,661.32 899.51,663.01 897.04,664.38 894.54,665.66 891.88,666.86 889.09,668.10 886.22,669.38 883.45,670.75 880.69,672.07 877.96,673.30 875.32,674.56 872.66,675.80 869.85,676.90 866.99,677.88 864.08,678.76 861.44,679.26 858.74,679.71 855.94,680.06 853.09,680.42 850.20,680.77 847.25,681.10 844.33,681.49 841.43,681.92 838.71,682.28 836.02,682.59 833.36,682.85 830.65,682.90 827.98,682.98 825.49,683.41 822.86,683.85 820.13,684.31 817.56,684.90 815.12,685.46 812.87,685.96 810.70,686.14 808.53,686.21 806.26,686.21 803.98,686.16 801.68,686.08 799.34,685.99 797.11,685.90 795.01,685.82 792.86,685.73 790.70,685.63 788.54,685.46 786.39,685.28 784.25,685.11 782.04,684.94 779.83,684.73 777.62,684.47 775.43,684.28 773.28,684.12 771.28,684.04 769.31,683.96 767.35,683.87 765.34,683.52 763.45,683.32 761.73,683.32 760.11,683.59 758.54,683.90 757.07,684.07 755.58,683.99 754.08,683.73 752.67,683.99 751.18,684.21 749.57,684.38 747.83,684.35 746.02,684.31 744.13,684.49 742.47,684.96 740.99,685.65 739.65,686.10 738.31,686.60 736.97,687.20 735.64,687.80 734.31,688.37 732.98,688.79 731.73,689.37 730.52,690.07 729.32,690.94 728.16,691.70 727.04,692.30 725.94,693.05 724.88,693.82 723.93,694.51 723.06,695.03 722.24,695.46 721.33,695.90 720.45,696.33 719.61,696.77 718.54,696.83 717.37,696.89 716.01,697.15 714.50,697.25 712.90,697.25 710.88,697.51 708.80,697.66 706.65,697.66 704.42,697.52 702.17,697.31 699.91,696.97 697.60,696.52 695.26,696.01 692.64,695.59 689.93,695.25 687.07,695.07 684.16,694.82 681.18,694.57 678.02,694.31 674.79,694.16 671.52,694.08 668.25,694.08 664.98,694.04 661.69,693.95 658.80,693.94 655.95,693.92 652.92,693.84 649.79,693.95 646.57,694.21 643.26,694.30 639.92,694.49 636.54,694.83 633.20,694.70 629.87,694.44 626.56,694.18 623.28,693.82 620.01,693.39 616.79,693.47 613.65,693.42 610.65,693.16 607.58,693.46 604.56,693.73 601.81,693.39 598.96,692.83 596.04,692.12 593.33,691.29 590.51,690.33 587.51,689.17 584.73,687.90 582.03,686.58 579.47,685.14 576.53,684.19 573.34,683.58 569.95,683.07 566.59,682.48 563.28,681.79 560.07,680.89 556.93,679.93 553.90,678.98 551.06,678.25 548.34,677.64 545.63,676.70 543.00,676.07 540.51,675.90 538.03,675.44 535.52,675.08 532.91,675.25 530.63,675.11 528.56,674.76 526.50,674.42 524.55,673.90 522.76,673.14 521.03,672.63 519.37,672.15 517.90,671.55 516.29,671.16 514.60,670.86 512.99,669.74 511.54,668.36 510.29,666.64 508.80,665.63 507.28,664.69 505.82,663.51 504.11,662.56 502.22,661.79 500.10,661.44 498.24,660.97 496.69,660.39 495.25,659.31 493.88,658.09 492.64,656.71 491.29,655.64 489.85,654.77 488.29,654.50 486.71,654.21 485.09,653.86 483.54,653.38 482.06,652.80 480.81,652.02 479.60,651.14 478.41,650.20 477.16,649.51 475.83,649.07 474.39,648.99 473.26,648.97 472.17,649.03 470.99,649.29 469.92,649.49 468.91,649.67 467.96,650.10 467.01,650.53 466.07,650.96 465.12,651.04 464.17,651.12 463.28,651.46 462.39,651.59 461.50,651.59 460.37,651.42 459.24,651.13 458.10,650.70 456.58,650.63 454.99,650.49 453.37,649.89 451.73,649.12 450.06,648.27 448.14,647.85 446.21,647.56 444.27,647.47 442.67,647.31 441.05,647.09 439.12,646.66 437.31,646.18 435.58,645.66 434.08,645.57 432.50,645.59 430.79,645.76 429.07,645.66 427.34,645.49 425.62,645.32 423.93,644.99 422.27,644.56 420.33,644.39 418.39,644.11 416.45,643.66 414.56,643.59 412.65,643.72 410.66,644.23 408.91,644.53 407.31,644.76 405.81,645.51 404.18,646.24 402.39,646.93 400.54,647.48 398.80,647.89 397.41,647.97 395.95,648.11 394.46,648.27 393.09,647.92 391.71,647.51 390.31,647.00 388.95,646.14 387.54,645.32 385.94,644.98 384.25,644.68 382.50,644.41 380.90,643.72 379.24,643.28 377.52,643.19 375.63,643.11 373.76,643.00 372.04,642.83 370.35,642.56 368.67,642.22 366.86,642.30 365.28,642.21 364.03,641.86 362.88,642.08 361.66,642.50 360.11,643.19 358.68,643.45 357.32,643.46 356.14,643.72 354.93,643.90 353.68,643.99 352.24,644.15 350.73,644.39 349.13,644.88 347.37,645.39 345.47,645.91 343.89,645.60 342.37,645.24 340.89,644.90 339.21,644.69 337.46,644.52 335.68,644.35 333.91,644.12 332.13,643.87 330.29,643.61 328.35,643.31 326.26,642.97 324.03,642.55 321.78,642.16 319.57,641.90 317.23,641.80 314.80,641.81 312.19,642.15 309.64,642.42 307.18,642.59 304.84,642.70 302.61,642.78 300.74,642.87 298.94,643.01 297.18,643.18 295.58,643.44 294.06,643.66 292.69,643.83 291.47,644.28 290.34,644.73 289.46,644.90 288.74,644.92 288.14,644.83 287.36,644.92 286.66,644.90 286.07,644.73 285.23,644.77 284.30,644.80 283.22,644.62 282.16,644.50 281.11,644.42 279.97,644.07 278.71,643.80 277.26,643.62 275.74,643.66 274.25,643.81 272.88,644.15 271.56,644.55 270.28,644.97 269.02,645.40 267.91,645.87 267.01,646.39 266.11,646.56 265.25,646.63 264.49,646.63 263.75,646.79 263.02,647.04 262.31,646.95 261.65,646.94 261.06,647.03 260.23,646.83 259.31,646.59 258.24,646.42 256.96,646.24 255.50,646.07 253.47,646.07 251.15,646.15 248.45,646.32 245.37,646.00 242.24,645.70 239.19,645.87 236.31,646.15 233.54,646.49 231.10,646.58 228.85,646.70 226.86,646.87 224.97,646.97 223.17,647.04 221.63,647.04 220.13,647.28 218.68,647.72 217.44,647.90 216.14,648.17 214.74,648.61 213.40,648.62 212.08,648.56 210.79,648.56 209.49,648.40 208.19,648.14 206.64,647.84 205.10,647.54 203.55,647.24 201.86,646.97 200.14,646.73 198.41,646.55 196.76,646.49 195.16,646.49 193.74,646.32 192.45,646.25 191.33,646.33 190.18,646.42 189.03,646.50 187.97,646.59 186.99,646.52 186.05,646.35 185.45,645.91 184.77,645.66 184.00,645.66 182.88,645.45 181.60,645.06 179.97,644.21 178.09,643.61 176.03,643.17 173.70,642.82 171.38,642.48 169.07,642.13 166.71,641.93 164.27,641.82 161.59,641.90 159.07,641.94 156.65,641.94 154.39,641.94 152.22,641.94 150.17,641.94 148.32,641.59 146.46,641.25 144.33,641.25 142.11,641.09 139.84,640.83 137.66,640.57 135.37,640.38 132.91,640.30 130.28,640.28 127.68,640.24 125.34,640.07 122.91,639.58 120.41,638.91 117.68,638.73 114.94,638.73 112.18,638.99 109.60,639.31 107.04,639.62 104.33,639.79 101.70,640.02 99.12,640.28 96.62,640.54 94.19,640.80 91.85,641.07 89.78,641.25 87.79,641.38 85.91,641.38 84.11,641.18 82.37,640.83 80.95,640.49 79.59,640.08 78.34,639.56 77.23,639.11 76.22,638.69 75.41,638.27 74.58,637.89 73.74,637.54 73.14,637.44 72.67,637.45 72.42,637.63 72.23,637.80 72.08,637.99 72.02,638.25 72.07,638.62 72.20,639.06 72.54,639.47 72.94,639.86 73.43,640.22 73.90,640.76 74.38,641.37 74.98,642.06 75.44,642.76 75.80,643.46 76.04,643.98 76.28,644.42 76.51,644.76 76.74,645.37 76.97,646.00 77.16,646.36 77.66,646.70 78.37,647.04 79.26,647.04 80.19,647.01 81.17,646.92 82.16,646.63 83.14,646.37 84.02,646.46 85.01,646.65 86.05,646.90 87.21,646.55 88.36,646.09 89.49,645.48 90.42,644.52 91.25,643.55 91.90,642.78 92.77,642.43 93.78,642.34 94.55,641.91 95.29,641.37 96.00,640.69 96.78,640.34 97.66,640.06 98.82,639.72 99.93,639.54 101.01,639.46 101.73,639.90 102.18,640.56 102.30,641.49 102.66,642.58 103.06,643.45 103.41,643.45 103.59,642.82 103.65,641.77 103.59,640.98 103.36,640.71 102.96,641.05 102.40,642.25 101.79,643.51 101.14,644.37 100.30,644.69 99.33,644.69 98.31,644.51 97.52,644.30 96.99,644.05 96.75,643.43 96.58,642.65 96.46,641.60 96.27,640.73 96.03,639.94 95.67,638.65 95.34,637.90 95.05,637.81 95.05,637.52 95.12,637.20 95.23,636.94 95.35,636.88 95.47,636.96 95.86,637.05 96.34,637.29 96.94,637.81 97.47,637.45 97.95,636.87 98.35,636.45 98.88,636.28 99.50,636.29 100.15,636.55 100.72,636.50 101.20,636.07 101.67,636.37 102.12,636.83 102.54,637.43 102.92,637.87 103.27,638.21 103.39,638.30 103.56,638.20 103.79,637.86 104.17,637.52 104.57,637.17 104.86,636.83 105.24,636.42 105.65,635.98 105.71,635.38 105.79,634.70 105.91,633.92 105.98,632.85 106.05,631.86 106.17,631.26 106.25,630.71 106.32,630.16 106.56,629.41 106.66,628.79 106.61,628.36 106.84,626.93 107.10,625.48 107.21,624.71 107.22,624.63 107.15,624.99 106.92,625.51 106.65,625.95 106.36,626.29 105.76,627.29 105.03,628.44 104.07,629.66 103.04,630.92 102.00,632.12 101.47,631.78 100.82,631.31 100.05,630.71 99.52,630.63 99.10,630.84 98.81,631.58 98.63,632.31 98.49,633.14 98.08,635.79 97.72,637.87 97.42,639.25 97.68,639.38 98.03,639.27 98.38,639.10 98.59,638.88 98.72,638.58 99.01,637.28 99.15,635.41 99.09,632.83 99.13,629.04 99.11,624.98 98.82,620.75 98.60,617.34 98.42,614.48 98.36,611.44 98.30,608.56 98.24,605.87 98.38,601.64 98.53,597.13 98.59,592.82 98.61,589.00 98.61,585.47 98.49,581.34 98.42,578.33 98.42,577.18 98.61,576.35 98.80,575.65 98.80,575.21 98.65,574.19 98.41,572.80 98.17,572.02 98.07,571.51 98.12,571.34 98.38,571.17 98.84,570.66 99.88,568.98 100.66,568.47 101.29,568.54 101.64,568.10" fill="none" stroke="#f97316" stroke-width="2" opacity="0.65"/>
  <polyline points="299.43,339.13 299.43,339.13 299.43,339.13 299.43,339.13 299.43,339.13 299.43,339.13 299.43,339.13 299.43,339.13 299.43,339.13 299.43,339.13 299.43,339.13 299.43,339.13 299.43,339.13 299.43,339.13 299.43,339.13 299.43,339.12 299.43,339.13 299.43,339.12 299.43,339.13 299.43,339.13 299.43,339.13 299.43,339.13 299.43,339.13 299.43,339.13 299.43,339.12 299.43,339.12 299.43,339.12 299.44,339.11 299.43,339.11 299.43,339.13 299.43,339.12 299.43,339.12 299.44,339.12 299.43,339.13 299.43,339.12 299.43,339.13 299.43,339.12 299.44,339.12 299.44,339.11 299.43,339.13 299.43,339.13 299.42,339.13 299.43,339.13 299.43,339.13 299.43,339.13 299.43,339.12 299.43,339.13 299.43,339.13 299.43,339.13 299.43,339.13 299.43,339.13 299.43,339.13 299.43,339.13 299.43,339.13 299.43,339.13 299.43,339.13 299.43,339.12 299.43,339.12 299.43,339.12 299.43,339.13 299.42,339.12 299.43,339.12 299.43,339.12 299.44,339.12 299.45,339.11 299.63,338.93 300.04,338.39 300.41,337.64 300.44,336.83 300.02,336.16 299.34,335.65 298.58,335.27 297.94,335.10 297.51,335.27 297.51,335.67 297.95,336.17 298.69,336.42 299.48,336.43 299.91,336.18 300.00,335.70 299.86,335.07 299.50,334.67 299.00,334.48 298.49,334.30 297.94,334.37 297.98,334.79 298.49,335.41 299.56,335.95 301.11,336.40 302.61,336.68 303.58,336.88 303.65,337.00 302.67,336.86 301.10,336.48 299.39,336.15 298.08,335.85 297.53,335.17 297.66,334.36 297.96,333.79 298.19,333.80 298.24,334.37 298.22,335.02 298.32,335.45 298.47,335.61 298.62,335.49 298.72,335.29 298.71,335.03 298.52,334.92 298.40,334.96 298.24,335.35 298.15,336.13 297.78,337.51 297.23,339.37 296.51,341.36 295.71,343.22 294.84,344.93 293.93,346.45 292.86,347.79 291.43,348.94 289.75,350.04 288.07,351.21 286.28,352.34 284.50,353.54 282.64,354.65 280.80,355.57 279.09,356.51 277.43,357.71 275.70,358.77 274.09,359.17 272.64,359.59 271.44,360.37 270.65,361.24 270.23,362.14 270.19,363.19 270.55,364.36 270.68,365.41 270.65,366.23 270.56,366.71 270.76,366.84 270.59,366.98 270.59,366.98 270.57,366.88 270.65,366.99 270.66,367.11 270.52,367.27 270.41,367.30 270.37,367.29 270.31,367.28 270.27,367.30 270.19,367.22 270.16,367.17 270.12,367.17 270.10,367.17 269.97,367.02 269.86,367.00 269.89,367.01 269.85,367.02 269.84,366.99 269.88,367.04 269.90,367.08 269.89,367.07 269.85,367.01 269.86,367.05 269.90,367.09 269.90,367.09 269.88,367.04 269.91,367.07 269.93,367.09 269.95,367.13 269.93,367.11 269.91,367.11 269.92,367.12 269.93,367.14 269.92,367.14 269.89,367.11 269.89,367.12 269.89,367.15 269.86,367.10 269.89,367.14 269.90,367.18 269.92,367.20 269.88,367.15 269.88,367.16 269.88,367.19 269.89,367.21 269.86,367.18 269.85,367.17 269.86,367.20 269.86,367.22 269.84,367.19 269.83,367.19 269.84,367.21 269.86,367.24 269.85,367.24 269.85,367.23 269.85,367.26 269.87,367.29 269.85,367.24 269.84,367.26 269.83,367.27 269.83,367.28 269.79,367.23 269.81,367.25 269.82,367.28 269.83,367.30 269.81,367.26 269.79,367.27 269.79,367.30 269.80,367.32 269.79,367.31 269.78,367.31 269.79,367.33 269.79,367.34 269.77,367.34 269.75,367.31 269.76,367.34 269.76,367.36 269.72,367.32 269.74,367.36 269.76,367.38 269.77,367.40 269.74,367.37 269.76,367.40 269.76,367.42 269.76,367.43 269.73,367.40 269.73,367.40 269.72,367.41 269.72,367.42 269.69,367.38 269.71,367.40 269.72,367.42 269.72,367.44 269.70,367.39 269.71,367.41 269.72,367.43 269.74,367.46 269.74,367.47 269.72,367.44 269.73,367.47 269.74,367.49 269.72,367.44 269.73,367.46 269.75,367.47 269.75,367.48 269.72,367.45 269.72,367.46 269.73,367.47 269.73,367.48 269.72,367.46 269.72,367.46 269.74,367.48 269.75,367.50 269.72,367.46 269.73,367.47 269.73,367.48 269.75,367.51 269.73,367.47 269.73,367.48 269.74,367.50 269.75,367.52 269.72,367.48 269.72,367.49 269.73,367.50 269.73,367.51 269.71,367.49 269.71,367.49 269.72,367.51 269.72,367.52 269.71,367.50 269.70,367.50 269.71,367.51 269.72,367.52 269.71,367.52 269.69,367.50 269.66,367.47 269.70,367.52 269.72,367.54 269.69,367.51 269.70,367.53 269.67,367.50 269.66,367.49 269.66,367.48 269.67,367.50 269.70,367.54 269.68,367.51 269.68,367.51 269.68,367.52 269.66,367.50 269.67,367.51 269.67,367.54 269.69,367.55 269.71,367.57 269.67,367.53 269.63,367.49 269.63,367.48 269.63,367.49 269.66,367.48 269.65,367.46 269.64,367.47 269.65,367.47 269.64,367.47 269.70,367.50 269.70,367.51 269.69,367.52 269.61,367.42 269.67,367.49 269.73,367.53 269.75,367.57 269.71,367.53 269.68,367.50 269.69,367.52 269.68,367.49 269.67,367.50 269.67,367.48 269.71,367.50 269.69,367.45 269.67,367.49 269.66,367.40 269.65,367.43 269.66,367.46 269.67,367.45 269.68,367.43 269.62,367.40 269.60,367.39 269.63,367.38 269.63,367.34 269.58,367.32 269.54,367.30 269.49,367.13 269.38,367.12 269.52,367.32 269.84,367.64 270.30,368.11 270.87,368.46 271.82,368.70 272.94,368.91 274.00,368.94 274.73,368.90 275.66,369.07 276.85,369.26 278.01,369.39 279.08,369.78 280.11,370.01 281.09,370.19 281.98,370.18 282.68,370.36 283.22,370.43 283.71,370.38 284.17,370.18 284.49,369.79 284.76,369.36 284.97,368.80 285.32,368.29 285.74,368.18 285.55,368.07 285.33,367.77 285.10,367.41 285.01,367.19 285.02,366.82 285.06,366.50 285.06,366.21 285.15,365.88 285.27,365.58 285.38,365.26 285.61,364.80 285.90,364.46 286.00,364.29 286.12,364.30 286.31,364.28 286.50,364.23 286.62,364.27 286.86,364.25 287.13,364.27 287.36,364.29 287.66,364.44 287.90,364.49 288.23,364.53 288.67,364.58 289.17,364.88 289.82,365.14 290.78,365.44 291.83,365.85 293.18,366.21 294.61,366.52 296.20,366.89 297.87,367.32 299.59,367.80 301.40,368.42 303.41,368.99 305.65,369.50 307.97,370.09 310.36,370.74 312.84,371.31 315.36,371.92 318.04,372.52 320.69,373.06 323.30,373.48 325.81,374.18 328.57,374.84 331.27,375.42 333.95,375.80 336.58,376.26 339.32,376.76 342.08,377.23 344.84,377.75 347.47,378.39 349.95,378.92 352.51,379.34 355.11,379.67 357.74,380.25 360.27,380.94 362.75,381.69 365.22,382.37 367.71,383.00 370.17,383.79 372.70,384.56 375.31,385.27 378.02,385.87 380.71,386.55 383.45,387.22 386.29,387.82 389.01,388.49 391.81,389.27 394.54,389.97 397.20,390.56 399.60,391.20 401.83,391.93 404.52,392.56 407.18,393.07 409.91,393.67 412.53,394.40 415.06,395.01 417.65,395.58 419.98,396.24 422.28,396.90 424.86,397.66 427.30,398.36 429.84,398.92 432.19,399.50 434.57,400.11 436.85,400.62 439.03,401.14 441.44,401.58 443.84,402.27 446.21,402.87 448.51,403.55 450.73,404.31 453.14,405.00 455.39,405.58 457.66,406.22 459.85,406.88 461.98,407.47 464.13,407.94 466.27,408.37 468.55,408.96 470.76,409.43 472.99,409.61 475.25,409.57 477.54,409.55 479.77,409.55 482.01,409.36 484.19,409.42 486.39,409.40 488.40,409.37 490.50,409.21 492.63,409.02 494.74,408.77 496.71,408.73 498.83,408.65 500.91,408.73 503.08,408.72 505.32,408.71 507.56,408.67 509.85,408.86 512.07,409.26 514.17,409.67 516.35,410.13 518.52,410.62 520.73,410.98 522.89,411.30 525.03,411.52 527.07,411.88 529.06,412.30 531.12,412.68 533.10,412.99 535.06,413.40 537.13,413.72 539.19,414.11 541.17,414.36 543.25,414.56 545.31,414.68 547.36,414.94 549.34,415.11 551.24,415.33 553.08,415.70 555.00,415.95 556.94,416.33 558.75,416.55 560.59,416.79 562.45,417.15 564.34,417.39 566.19,417.71 568.14,417.94 569.92,418.29 571.74,418.57 573.55,418.89 575.46,419.20 577.30,419.48 579.12,419.83 580.93,420.11 582.79,420.45 584.60,420.81 586.32,421.10 588.06,421.45 589.96,421.79 591.83,422.11 593.72,422.53 595.75,422.95 597.66,423.37 599.65,423.62 601.49,423.84 603.35,424.03 605.28,424.26 606.79,424.34 608.51,423.98 610.46,423.74 612.48,423.62 614.44,423.42 616.49,423.02 618.53,422.61 620.66,422.07 622.77,421.49 625.07,420.94 627.36,420.19 629.65,419.39 632.11,418.47 634.76,417.68 637.31,417.01 639.56,416.68 641.53,416.63 643.46,416.64 645.48,416.79 647.50,417.05 649.60,417.34 651.74,417.62 653.83,417.99 655.87,418.33 657.76,418.69 659.62,419.00 661.39,419.35 663.21,419.79 664.95,420.26 666.76,420.72 668.58,421.19 670.47,421.76 672.47,422.43 674.33,422.90 676.25,423.27 677.97,423.76 679.80,424.32 681.51,424.70 683.23,424.73 685.18,424.51 687.19,424.31 689.12,424.24 690.81,424.43 692.54,424.60 693.85,424.57 695.35,424.60 696.91,424.71 698.47,424.79 700.13,424.95 701.84,425.08 703.62,425.17 705.41,425.19 707.15,425.29 708.91,425.44 710.65,425.76 712.44,426.19 714.34,426.61 716.20,426.95 718.24,427.27 720.21,427.68 722.38,428.20 724.78,428.59 727.27,428.93 729.85,429.26 732.66,429.53 735.60,429.75 738.53,430.00 741.58,430.41 744.61,430.84 747.70,431.33 750.93,431.93 754.04,432.49 757.61,433.21 761.02,433.67 764.46,434.09 767.82,434.43 771.23,434.79 774.65,435.33 778.03,435.84 781.59,436.34 785.07,436.93 788.70,437.53 792.48,438.31 796.15,439.03 799.87,439.58 803.53,440.13 807.19,440.76 810.63,441.68 813.94,442.55 817.15,443.61 820.24,444.49 823.40,445.36 826.60,446.02 829.65,446.63 832.77,447.27 835.79,447.89 838.70,448.55 841.61,449.25 844.16,449.92 846.70,450.57 849.17,451.22 851.63,451.97 854.18,452.79 856.68,453.91 858.86,455.02 861.05,456.38 863.25,457.65 865.45,459.13 867.43,460.46 869.28,461.73 871.15,462.98 873.02,464.37 874.80,465.73 876.53,467.19 878.14,468.80 879.57,470.38 880.96,472.09 882.23,473.68 883.46,475.40 884.51,477.17 885.57,479.03 886.54,480.76 887.52,482.71 888.43,484.56 889.41,486.54 890.16,488.44 890.77,490.32 891.36,492.07 891.80,493.83 892.42,495.59 893.15,497.34 893.95,498.92 894.69,500.58 895.31,502.23 895.71,503.96 896.22,505.63 896.75,507.52 897.45,509.28 898.01,511.11 898.41,513.06 898.79,515.12 899.26,516.91 899.61,518.74 900.01,520.62 900.41,522.36 900.92,524.10 901.18,525.96 901.49,528.01 901.73,530.10 902.09,532.10 902.56,534.29 903.24,536.13 903.77,538.24 904.15,540.40 904.74,542.78 905.42,545.17 905.75,547.67 906.01,550.00 906.37,552.37 906.76,554.91 906.96,557.39 907.21,559.79 907.43,562.31 907.55,564.82 907.52,567.45 907.26,570.12 906.71,573.18 906.42,576.04 906.16,578.86 905.91,581.81 905.42,584.66 904.74,587.79 904.04,590.48 903.39,592.98 902.55,595.53 901.82,597.97 900.98,600.21 900.23,602.43 899.18,604.98 898.08,607.37 896.92,609.82 895.53,612.51 893.95,615.25 892.40,617.61 890.82,620.08 889.21,622.37 887.59,624.46 886.06,626.40 884.49,628.41 882.74,630.27 880.88,632.05 879.13,633.49 877.22,635.26 875.37,636.69 873.46,638.20 871.61,639.59 869.77,640.86 867.83,642.24 865.71,643.59 863.45,644.86 861.40,645.94 859.43,646.94 856.97,648.17 854.29,649.31 851.57,650.56 848.92,651.79 846.16,652.84 843.37,653.83 840.87,654.84 838.45,655.82 835.70,656.93 833.08,657.85 830.41,658.63 827.84,659.25 825.11,659.74 822.31,660.33 819.50,660.81 816.92,661.18 814.22,661.56 811.37,661.97 808.55,662.34 806.01,662.50 803.34,662.75 800.71,662.77 798.03,662.85 795.49,663.05 792.81,663.20 790.10,663.12 787.60,662.79 785.42,662.58 783.06,662.52 780.57,662.57 778.18,662.87 775.89,662.96 773.50,662.89 771.07,662.92 768.89,662.86 766.85,662.79 764.53,662.74 762.19,662.74 759.86,662.56 757.78,662.46 755.67,662.34 753.54,662.09 751.43,662.07 749.48,661.76 747.58,661.61 745.72,661.29 743.69,660.74 741.86,660.23 740.05,659.92 738.22,659.53 736.35,659.13 734.71,658.78 732.89,658.57 731.04,658.47 729.30,658.30 727.54,658.23 725.86,658.08 724.24,657.80 722.56,657.61 720.78,657.66 719.25,657.75 718.35,658.03 716.84,658.54 715.34,659.09 713.65,659.80 711.94,660.36 710.34,660.91 708.89,661.48 707.50,662.16 706.07,662.86 704.68,663.49 703.38,664.11 702.08,664.93 700.69,665.63 699.48,666.21 698.28,666.89 697.09,667.56 696.26,668.51 695.30,669.70 694.57,670.70 693.61,670.78 692.98,670.69 692.30,670.76 691.45,671.10 690.63,671.39 689.88,671.87 689.22,671.83 688.48,671.75 687.64,671.48 686.65,671.15 685.34,670.96 684.07,671.00 682.32,671.00 680.54,670.98 678.45,670.71 676.28,670.53 674.19,670.15 671.95,670.07 669.66,669.88 667.37,669.75 664.83,669.66 662.22,669.36 659.53,669.33 656.96,669.11 654.24,668.87 651.49,668.82 648.67,668.76 645.90,668.75 642.97,668.66 640.01,668.61 637.06,668.55 634.14,668.50 631.04,668.56 628.14,668.66 625.08,668.78 622.15,668.81 618.93,668.82 615.88,668.94 612.82,669.15 609.59,669.53 606.35,669.78 602.91,669.71 599.75,669.71 596.71,670.02 593.73,670.35 590.78,670.63 587.61,670.87 584.72,670.71 581.73,670.25 578.93,669.86 576.05,669.42 573.31,669.01 570.50,668.41 567.81,667.79 565.13,667.04 562.57,666.19 560.15,665.27 557.49,664.40 554.42,663.78 551.37,663.29 548.29,662.92 545.14,662.52 542.06,661.94 539.11,661.41 536.09,660.90 532.99,660.51 530.02,660.18 527.08,659.92 523.95,659.90 521.00,659.89 518.13,659.80 515.75,659.89 513.17,660.00 510.64,660.09 508.18,659.96 505.91,659.94 503.53,659.94 501.36,659.97 499.32,660.16 497.27,660.29 495.20,660.15 493.40,659.63 491.86,659.06 490.45,658.40 488.77,657.71 486.97,657.10 485.40,656.64 483.57,656.11 481.83,655.51 479.76,655.11 477.88,654.80 476.03,654.38 474.25,654.01 472.43,653.51 470.74,653.21 469.12,652.91 467.40,652.53 465.71,652.17 463.86,651.68 462.10,651.24 460.36,650.67 458.50,650.39 456.54,650.15 454.72,650.08 452.93,649.98 451.09,649.70 449.28,649.57 447.60,649.43 446.02,649.42 444.57,649.36 443.23,649.35 441.86,649.41 440.62,649.48 439.31,649.36 437.83,649.49 436.68,649.75 435.39,649.98 434.24,650.14 433.19,650.22 432.14,650.35 431.21,650.69 430.27,650.83 429.30,650.92 428.17,651.09 427.08,651.14 425.74,651.30 424.30,651.34 422.95,651.23 421.54,650.81 420.18,650.02 418.86,649.20 417.46,648.59 415.98,648.07 414.35,647.63 412.59,647.30 411.06,646.80 409.57,646.30 407.88,645.86 406.04,645.47 404.25,645.30 402.59,644.87 401.19,644.46 399.64,644.07 398.04,643.72 396.49,643.63 393.89,643.76 391.93,643.87 390.29,643.89 388.51,644.10 386.81,644.04 384.93,644.02 383.00,644.22 381.41,644.56 379.88,644.80 378.30,644.92 376.72,645.03 374.85,645.23 372.97,645.64 371.28,646.20 369.70,646.78 367.98,647.27 366.49,647.71 365.18,647.80 363.57,647.92 362.08,647.95 360.59,647.88 359.12,647.73 357.76,647.59 356.33,647.51 354.65,647.41 353.00,647.37 351.52,647.47 349.92,647.58 348.16,647.56 346.33,647.74 344.60,647.97 343.10,648.04 341.35,648.27 339.70,648.46 338.24,648.76 336.96,648.84 335.75,648.85 334.63,648.82 333.68,648.85 332.81,648.85 331.73,649.12 330.68,649.47 329.49,649.91 328.68,650.04 327.64,650.00 326.43,650.12 325.07,650.39 323.61,650.87 322.31,651.08 320.94,651.30 319.72,651.20 318.56,651.17 317.29,651.08 316.00,650.95 314.56,650.95 313.10,651.10 311.33,651.20 309.52,651.23 307.66,651.26 305.69,651.19 303.86,651.04 302.12,650.99 300.36,650.87 298.42,650.84 296.26,650.80 293.95,650.70 291.75,650.52 289.25,650.52 286.96,650.24 284.29,650.25 282.16,650.26 280.57,650.36 279.47,650.47 278.16,650.37 276.83,650.43 275.27,650.79 273.55,651.15 271.95,651.53 270.62,651.75 269.61,652.02 268.52,652.33 267.50,652.62 266.81,652.79 266.12,652.62 265.34,652.45 264.66,652.35 263.84,652.18 263.15,652.06 262.48,651.98 261.90,651.89 261.28,651.67 260.55,651.61 259.54,651.53 258.44,651.63 257.32,651.67 256.21,651.65 255.00,651.67 253.85,651.75 252.75,652.04 251.71,652.28 250.69,652.34 249.96,652.23 249.38,652.26 248.52,652.33 247.64,652.45 246.88,652.48 246.14,652.44 245.31,652.43 244.50,652.26 243.87,652.07 243.11,651.78 242.32,651.37 241.49,651.06 240.40,650.79 238.77,650.51 236.64,650.28 234.42,650.15 232.19,650.02 230.09,649.87 227.90,649.63 225.58,649.36 223.04,649.29 220.69,649.39 218.31,649.53 216.08,649.70 213.99,649.76 211.99,649.80 210.13,649.71 208.58,649.78 207.05,650.05 205.66,650.20 204.37,650.51 203.13,650.86 201.96,650.90 201.01,650.70 200.12,650.45 198.98,650.21 197.71,650.05 196.39,649.98 194.88,649.87 193.14,649.64 191.49,649.38 189.86,649.10 188.23,648.86 186.63,648.46 185.05,648.10 183.58,648.01 182.01,648.09 180.72,648.09 179.60,648.17 178.40,648.31 177.20,648.32 176.22,648.38 175.26,648.37 174.44,648.33 173.72,648.24 173.18,648.04 172.47,647.70 171.53,647.42 170.34,647.22 168.85,647.03 167.19,646.79 165.41,646.53 163.58,646.31 161.61,646.16 159.68,646.00 157.67,645.75 155.62,645.49 153.41,645.30 151.16,645.24 148.87,645.27 146.64,645.18 144.73,645.05 142.86,644.87 141.18,644.66 139.44,644.55 137.50,644.55 135.48,644.67 133.47,644.68 131.42,644.66 129.38,644.33 127.31,643.97 125.10,643.66 122.84,643.33 120.61,642.81 117.86,642.49 114.98,642.47 112.23,642.93 109.70,643.11 107.24,643.07 104.83,643.09 102.53,643.25 100.17,643.58 97.65,644.20 95.40,644.57 93.42,645.05 91.27,645.57 89.37,645.90 87.44,646.02 85.61,645.85 84.14,645.50 82.51,645.03 81.06,644.56 79.59,644.08 78.07,643.55 76.62,643.05 75.34,642.49 74.32,641.85 73.38,641.37 72.52,640.96 71.77,640.65 71.13,640.35 70.62,640.04 70.27,639.83 69.97,639.82 69.87,639.86 69.67,640.10 69.70,640.17 69.77,640.17 69.98,640.12 70.27,640.25 70.59,640.56 71.00,641.24 71.28,641.91 71.70,642.65 72.09,643.50 72.40,644.24 72.60,644.80 73.03,645.26 73.39,645.70 74.00,646.22 74.51,646.83 75.00,647.50 75.67,648.07 76.46,648.46 77.22,648.64 78.26,648.73 79.16,648.58 80.17,648.75 81.04,648.82 81.86,648.81 82.74,648.71 83.59,648.65 84.42,648.56 85.27,648.56 86.09,648.68 86.83,648.61 87.57,648.65 88.25,648.65 88.87,648.76 89.54,648.91 90.35,649.13 91.42,649.55 92.51,650.12 93.62,650.73 94.56,651.30 95.39,651.83 96.22,652.42 97.14,652.95 98.00,653.50 98.71,654.19 99.73,655.03 100.60,655.92 101.49,656.60 102.06,656.84 102.53,657.12 102.94,657.42 103.21,657.64 103.40,657.84 103.36,658.00 103.15,658.09 102.66,658.08 102.07,657.92 101.36,657.64 100.45,657.32 99.58,657.03 98.81,656.56 98.20,656.01 97.70,655.32 97.35,654.54 97.13,653.75 96.93,653.08 96.78,652.55 96.57,652.16 96.31,651.88 96.09,651.70 95.99,651.61 95.99,651.55 95.88,651.57 95.93,651.63 96.01,651.85 96.10,652.13 96.23,652.43 96.46,652.70 96.78,653.07 97.10,653.49 97.46,653.91 97.81,654.46 98.23,654.96 98.68,655.54 99.17,656.22 99.75,656.84 100.35,657.53 100.95,658.24 101.48,658.94 101.83,659.50 102.05,660.13 102.30,660.74 102.59,661.44 102.90,661.94 103.30,662.45 103.74,662.93 104.22,663.49 104.67,664.06 105.10,664.65 105.58,665.28 105.98,665.96 106.36,666.59 106.67,667.15 106.99,667.68 107.23,668.11 107.48,668.35 107.64,668.59 107.74,668.79 107.86,668.94 107.86,669.11 107.87,669.26 107.77,669.47 107.56,669.68 107.23,669.96 106.87,670.31 106.45,670.74 106.01,671.17 105.62,671.58 105.24,672.04 104.85,672.44 104.48,672.85 104.09,673.28 103.65,673.74 103.18,674.23 102.59,674.73 101.98,675.33 101.43,676.02 100.97,676.62 100.75,677.28 100.59,677.88 100.52,678.44 100.49,679.07 100.51,679.71 100.55,680.38 100.62,681.06 100.67,681.65 100.70,682.27 100.76,682.94 100.89,683.54 101.01,684.08 100.96,684.55 100.89,684.93 100.71,685.22 100.40,685.55 99.98,685.95 99.55,686.35 99.20,686.78 98.81,687.18 98.37,687.58 97.96,687.95 97.50,688.27 97.03,688.48 96.51,688.79 96.08,689.07 95.77,689.41 95.41,689.88 95.07,690.55 94.77,691.24 94.47,692.09 94.14,692.93 93.67,693.75 93.05,694.61 92.35,695.40 91.67,696.21 90.99,697.11 90.28,697.96 89.60,698.76 89.05,699.70 88.68,700.57 88.46,701.56 88.36,702.43 88.44,703.31 88.58,704.00" fill="none" stroke="#16a34a" stroke-width="2" opacity="0.65"/>
  <polyline points="295.97,354.82 295.90,354.74 295.80,354.88 295.83,354.80 295.83,354.81 295.83,354.84 295.84,354.88 295.84,354.88 295.84,354.88 295.83,354.93 295.85,354.87 295.82,354.94 295.82,354.95 295.82,354.94 295.82,354.95 295.83,354.94 295.73,354.93 295.83,354.94 295.81,354.87 295.82,354.94 295.80,354.87 295.81,354.90 295.82,354.94 295.82,354.91 295.81,354.89 295.81,354.87 295.83,354.93 295.78,354.93 295.73,354.92 295.75,354.93 295.76,354.93 295.77,354.93 295.79,354.93 295.80,354.93 295.81,354.93 295.82,354.94 295.80,354.87 295.82,354.94 295.80,354.87 295.80,354.89 295.80,354.91 295.80,354.93 295.80,354.95 295.80,354.97 295.80,354.99 295.80,355.01 295.80,355.01 295.82,354.94 295.71,355.00 295.82,354.94 295.82,354.94 295.82,354.94 295.82,354.93 295.82,354.93 295.83,354.93 295.82,354.94 295.83,354.93 295.82,354.93 295.82,354.93 295.82,354.93 295.82,354.93 295.82,354.94 295.82,354.94 295.82,354.94 295.82,354.94 295.82,354.94 295.95,354.97 296.18,354.70 295.94,354.43 295.69,354.17 295.44,353.91 295.19,353.64 294.95,353.38 294.70,353.11 294.45,352.85 294.20,352.59 294.26,352.96 294.71,353.16 295.24,353.19 295.20,352.94 295.17,352.68 295.13,352.43 295.09,352.17 295.05,351.92 294.36,351.75 294.05,351.53 294.01,351.88 294.48,352.06 294.96,352.25 295.43,352.44 295.91,352.62 296.38,352.81 296.86,353.00 297.33,353.18 296.24,352.82 295.10,352.63 294.17,352.53 293.78,352.08 293.93,351.68 294.08,351.29 294.23,350.89 294.24,351.14 294.15,351.85 294.24,352.12 294.40,352.30 294.61,352.24 294.68,352.33 294.63,352.48 294.36,352.64 294.10,352.80 293.84,352.96 293.52,353.62 293.21,354.47 292.82,355.75 292.25,357.13 291.58,358.31 290.90,359.49 290.02,360.35 289.14,361.21 288.25,362.07 287.10,362.65 285.84,363.46 284.70,364.15 283.48,364.96 282.25,365.77 281.03,366.58 279.80,367.39 278.57,368.20 277.35,369.02 276.27,369.59 275.36,370.34 274.65,371.35 273.88,372.47 273.69,373.23 273.49,373.98 273.29,374.74 273.10,375.49 272.90,376.25 273.04,376.58 273.02,376.68 272.87,376.76 272.89,376.78 272.88,376.75 272.87,376.72 272.86,376.68 272.85,376.65 272.84,376.62 272.84,376.59 272.83,376.56 272.72,376.53 272.75,376.44 272.65,376.44 272.65,376.41 272.65,376.39 272.65,376.36 272.64,376.33 272.64,376.30 272.56,376.33 272.56,376.33 272.56,376.33 272.56,376.32 272.57,376.30 272.57,376.29 272.58,376.28 272.58,376.27 272.58,376.25 272.59,376.24 272.67,376.22 272.59,376.24 272.59,376.24 272.60,376.24 272.62,376.23 272.63,376.23 272.64,376.23 272.65,376.22 272.67,376.22 272.60,376.27 272.67,376.22 272.59,376.24 272.60,376.24 272.61,376.24 272.63,376.24 272.64,376.24 272.65,376.24 272.67,376.24 272.68,376.24 272.58,376.24 272.68,376.25 272.60,376.27 272.71,376.16 272.64,376.19 272.57,376.22 272.68,376.25 272.57,376.22 272.57,376.23 272.58,376.24 272.58,376.25 272.58,376.25 272.66,376.22 272.58,376.25 272.59,376.24 272.58,376.25 272.58,376.25 272.58,376.25 272.58,376.25 272.66,376.22 272.58,376.25 272.58,376.25 272.58,376.25 272.58,376.25 272.58,376.25 272.58,376.25 272.58,376.25 272.59,376.27 272.59,376.27 272.59,376.27 272.59,376.27 272.59,376.27 272.59,376.27 272.59,376.27 272.59,376.27 272.58,376.25 272.62,376.19 272.62,376.19 272.62,376.21 272.61,376.22 272.60,376.24 272.60,376.26 272.59,376.27 272.59,376.27 272.59,376.27 272.59,376.27 272.62,376.19 272.62,376.19 272.62,376.18 272.61,376.18 272.61,376.18 272.61,376.17 272.61,376.17 272.61,376.16 272.61,376.16 272.58,376.25 272.58,376.25 272.59,376.27 272.59,376.26 272.58,376.25 272.58,376.24 272.58,376.23 272.58,376.21 272.61,376.27 272.58,376.22 272.61,376.27 272.61,376.27 272.61,376.27 272.61,376.27 272.61,376.27 272.61,376.27 272.61,376.27 272.61,376.27 272.61,376.27 272.53,376.29 272.61,376.27 272.60,376.28 272.60,376.29 272.59,376.30 272.59,376.32 272.58,376.33 272.58,376.34 272.58,376.35 272.58,376.35 272.58,376.35 272.59,376.33 272.61,376.32 272.63,376.30 272.65,376.28 272.67,376.26 272.69,376.24 272.68,376.24 272.57,376.35 272.57,376.35 272.58,376.37 272.59,376.39 272.60,376.40 272.69,376.24 272.57,376.35 272.61,376.27 272.60,376.27 272.60,376.27 272.57,376.35 272.57,376.35 272.59,376.31 272.60,376.27 272.69,376.24 272.60,376.27 272.67,376.22 272.67,376.22 272.67,376.22 272.69,376.25 272.59,376.25 272.59,376.25 272.59,376.25 272.56,376.33 272.61,376.27 272.56,376.33 272.58,376.33 272.59,376.32 272.60,376.32 272.62,376.32 272.63,376.31 272.64,376.31 272.61,376.26 272.61,376.26 272.61,376.26 272.62,376.26 272.62,376.26 272.62,376.26 272.63,376.26 272.63,376.27 272.64,376.27 272.63,376.26 272.61,376.25 272.60,376.25 272.60,376.23 272.60,376.21 272.61,376.19 272.61,376.17 272.61,376.15 272.61,376.13 272.56,376.07 272.56,375.93 272.48,375.82 272.67,375.66 273.12,375.90 273.58,376.14 274.03,376.38 274.49,376.62 274.94,376.86 275.39,377.10 276.12,377.66 276.94,377.96 277.77,378.27 278.76,378.42 279.76,378.57 280.75,378.72 281.75,378.87 282.75,379.02 283.74,379.17 284.55,379.23 285.18,379.25 285.82,379.28 286.00,379.25 286.18,379.22 286.36,379.19 286.55,379.15 286.73,379.12 286.91,379.09 286.57,379.01 286.30,378.89 285.97,378.81 285.85,378.70 285.72,378.58 285.60,378.47 285.48,378.36 285.35,378.24 285.23,378.13 285.18,378.20 285.16,378.17 285.10,378.22 285.19,378.27 285.27,378.31 285.36,378.36 285.44,378.40 285.53,378.44 285.62,378.49 285.77,378.59 285.99,378.65 286.27,378.78 286.43,378.86 286.72,379.00 287.01,379.14 287.59,379.31 288.18,379.46 289.02,379.71 289.98,380.00 291.38,380.24 292.71,380.62 294.26,380.95 296.01,381.34 297.77,381.74 299.65,382.27 301.74,382.69 303.84,383.27 306.14,383.85 308.69,384.41 311.23,384.97 313.77,385.52 316.31,386.08 318.85,386.64 321.47,387.13 324.14,387.71 326.76,388.23 329.46,388.66 332.16,389.10 334.86,389.53 337.55,389.96 340.25,390.40 342.95,390.83 345.63,391.24 348.19,391.75 350.79,392.33 353.33,392.78 355.86,393.24 358.40,393.69 360.93,394.15 363.46,394.60 366.00,395.06 368.47,395.61 371.07,396.23 373.73,396.78 376.50,397.39 379.26,397.99 382.03,398.59 384.79,399.19 387.56,399.79 390.32,400.39 393.08,401.00 395.84,401.62 398.60,402.24 401.24,402.91 403.87,403.49 406.49,404.08 409.11,404.66 411.73,405.25 414.35,405.83 416.98,406.42 419.38,407.14 422.00,407.64 424.45,408.31 426.83,408.91 429.21,409.51 431.59,410.11 433.97,410.72 436.35,411.32 438.73,411.92 441.05,412.40 443.41,412.91 445.76,413.30 448.04,413.80 450.32,414.30 452.60,414.81 454.88,415.31 457.16,415.81 459.44,416.31 461.65,416.89 463.88,417.37 466.10,417.83 468.27,418.01 470.45,418.19 472.63,418.36 474.81,418.54 476.99,418.72 479.17,418.90 481.41,418.68 483.59,418.54 485.78,418.26 487.88,418.09 489.98,417.92 492.08,417.76 494.10,417.64 496.24,417.52 498.39,417.39 500.53,417.33 502.74,417.37 504.99,417.34 507.15,417.47 509.33,417.67 511.50,417.88 513.71,418.16 515.78,418.54 517.83,418.86 519.91,419.37 522.07,419.61 524.18,420.06 526.26,420.33 528.38,420.66 530.49,420.99 532.56,421.24 534.56,421.65 536.55,421.93 538.54,422.22 540.54,422.50 542.53,422.78 544.52,423.06 546.51,423.34 548.50,423.62 550.42,423.79 552.42,424.06 554.29,424.29 556.16,424.54 558.02,424.80 559.89,425.05 561.76,425.30 563.63,425.55 565.49,425.80 567.37,426.05 569.27,426.33 571.12,426.53 572.95,426.85 574.78,427.16 576.61,427.47 578.45,427.78 580.28,428.09 582.11,428.40 583.91,428.53 585.75,428.99 587.49,429.18 589.31,429.60 591.20,429.91 593.09,430.22 594.98,430.53 596.88,430.84 598.77,431.15 600.66,431.47 602.72,431.56 604.55,431.59 606.51,431.54 608.51,431.15 610.52,430.75 612.53,430.36 614.54,429.96 616.55,429.56 618.56,429.17 620.70,428.55 622.85,427.95 625.07,427.17 627.51,426.46 629.95,425.74 632.39,425.03 634.83,424.32 637.26,423.60 639.70,422.89 642.08,422.51 644.29,422.26 646.56,422.23 648.56,422.52 650.56,422.82 652.55,423.12 654.55,423.42 656.55,423.72 658.54,424.02 660.41,424.38 662.39,424.78 664.26,425.15 666.19,425.51 668.11,425.87 670.04,426.23 671.97,426.60 673.90,426.96 675.82,427.32 677.74,427.62 679.74,428.03 681.59,428.39 683.42,428.72 685.25,428.91 687.08,429.09 688.95,429.01 690.84,428.96 692.72,428.89 694.52,428.88 696.33,428.75 698.03,428.75 699.65,428.90 701.27,428.93 702.90,428.95 704.59,428.92 706.25,429.11 707.96,429.11 709.74,429.28 711.52,429.45 713.31,429.62 715.09,429.79 717.03,430.13 718.97,430.47 720.97,430.74 723.09,431.07 725.33,431.44 728.07,431.69 730.81,431.94 733.55,432.19 736.29,432.43 739.03,432.68 741.76,432.93 744.99,433.17 748.27,433.37 751.40,433.78 754.73,434.16 758.06,434.54 761.40,434.92 764.73,435.30 768.06,435.68 771.39,436.05 774.80,436.61 778.32,437.03 781.84,437.44 785.56,437.91 789.29,438.39 793.01,438.87 796.74,439.34 800.47,439.82 804.19,440.29 807.92,440.77 811.62,441.32 815.31,441.99 818.86,442.72 822.09,443.48 825.32,444.24 828.56,445.01 831.79,445.77 835.02,446.53 838.26,447.30 841.20,447.84 844.19,448.47 847.04,449.16 849.71,449.81 852.37,450.46 855.04,451.11 857.70,451.76 860.37,452.41 863.04,453.06 865.47,453.96 867.78,455.09 870.09,456.22 872.10,457.50 874.11,458.78 876.12,460.06 878.13,461.34 880.14,462.61 882.14,463.89 883.85,465.32 885.54,466.86 887.18,468.31 888.39,470.01 889.60,471.71 890.81,473.41 892.02,475.11 893.24,476.81 894.45,478.51 895.40,480.30 896.40,482.09 897.18,483.97 897.98,485.87 898.77,487.77 899.48,489.57 900.00,491.40 900.62,493.29 901.23,495.01 901.84,496.76 902.43,498.43 903.13,500.16 903.71,501.97 904.34,503.72 904.97,505.46 905.54,507.26 906.11,509.00 906.68,510.74 907.24,512.54 907.88,514.29 908.52,516.16 909.10,517.98 909.67,519.81 910.25,521.63 910.79,523.58 911.32,525.51 911.86,527.45 912.28,529.49 912.71,531.53 913.13,533.58 913.55,535.62 913.98,537.66 914.40,539.71 914.78,541.77 915.10,543.99 915.42,546.20 915.66,548.44 915.90,550.68 916.14,552.92 916.38,555.15 916.62,557.39 916.87,559.63 916.96,561.99 916.91,564.26 916.78,566.64 916.43,568.95 916.07,571.26 915.71,573.57 915.35,575.88 914.99,578.20 914.63,580.51 914.01,582.72 913.32,584.81 912.46,587.10 911.73,589.37 910.68,591.67 909.63,593.98 908.58,596.28 907.54,598.59 906.49,600.89 905.44,603.20 904.17,605.43 902.92,607.71 901.58,609.99 900.07,612.17 898.55,614.34 897.04,616.51 895.52,618.68 894.01,620.86 892.49,623.03 890.72,625.03 888.87,626.92 886.88,628.74 884.75,630.33 882.62,631.92 880.49,633.51 878.36,635.10 876.23,636.69 874.09,638.28 871.74,639.69 869.39,640.99 867.04,642.26 864.51,643.27 861.98,644.27 859.45,645.28 856.92,646.28 854.39,647.29 851.86,648.29 849.32,649.12 846.70,649.81 844.17,650.50 841.51,651.13 838.85,651.77 836.20,652.40 833.62,652.94 831.04,653.34 828.37,653.72 825.79,654.10 823.16,654.49 820.53,654.70 817.86,654.82 815.26,654.91 812.66,654.99 810.19,655.07 807.63,655.00 805.14,655.10 802.74,655.17 800.34,655.24 797.93,655.31 795.66,655.41 793.35,655.45 791.04,655.48 788.86,655.44 786.61,655.54 784.53,655.50 782.42,655.42 780.32,655.35 778.21,655.27 776.11,655.19 774.00,655.12 771.90,655.04 769.79,654.96 767.76,654.86 765.82,654.62 763.93,654.37 762.05,654.12 760.17,653.87 758.28,653.62 756.40,653.37 754.52,653.12 752.68,652.85 750.99,652.49 749.21,652.28 747.49,652.18 745.76,652.08 744.04,651.98 742.31,651.88 740.59,651.79 738.86,651.69 737.29,651.75 735.87,651.75 734.19,651.93 732.68,652.44 731.18,652.96 729.67,653.48 728.17,653.99 726.66,654.51 725.16,655.02 723.65,655.54 722.31,656.06 721.02,656.54 719.79,657.09 718.61,657.64 717.44,658.19 716.26,658.74 715.09,659.29 713.91,659.84 712.74,660.40 711.57,661.03 710.57,661.48 709.58,662.09 708.63,662.48 707.69,662.88 706.74,663.27 705.79,663.67 704.84,664.06 703.89,664.46 702.95,664.85 701.85,664.94 700.76,665.17 698.97,665.10 697.17,665.03 695.38,664.97 693.59,664.90 691.80,664.83 690.01,664.77 687.56,664.54 685.07,664.24 682.60,663.97 679.93,663.75 677.27,663.53 674.60,663.31 671.94,663.09 669.12,662.72 666.25,662.55 663.30,662.41 660.25,662.32 657.20,662.23 654.15,662.14 651.10,662.05 648.05,661.96 644.91,662.06 641.80,662.10 638.62,662.15 635.37,662.34 632.12,662.54 628.88,662.74 625.63,662.94 622.38,663.14 619.13,663.34 615.68,663.58 612.38,663.64 608.82,663.88 605.59,664.00 602.36,664.12 599.14,664.24 595.91,664.36 592.68,664.48 589.45,664.60 586.46,664.54 583.53,664.29 580.66,663.85 577.77,663.23 574.88,662.38 572.00,661.53 569.12,660.68 566.24,659.83 563.35,658.97 560.56,658.00 557.52,657.31 554.39,656.67 551.19,656.25 547.99,655.83 544.79,655.41 541.60,654.99 538.40,654.57 535.20,654.15 531.99,653.91 528.96,653.79 525.92,653.65 523.39,653.70 520.87,653.75 518.35,653.80 515.82,653.84 513.30,653.89 510.78,653.94 508.26,653.99 506.15,653.98 504.23,654.09 502.33,654.09 500.63,653.71 498.92,653.33 497.22,652.95 495.51,652.57 493.81,652.19 492.10,651.81 490.44,651.06 488.82,650.34 487.19,649.62 485.43,649.03 483.66,648.44 481.90,647.84 480.13,647.25 478.20,646.78 476.30,646.36 474.44,646.00 472.58,645.62 470.63,645.41 468.80,645.12 466.96,644.83 465.11,644.59 463.15,644.47 461.30,644.24 459.37,644.17 457.49,644.01 455.71,643.94 453.83,643.87 452.16,643.86 450.49,643.85 448.87,643.85 447.33,643.92 446.01,643.97 444.75,644.16 443.48,644.36 442.22,644.56 440.96,644.76 439.70,644.96 438.43,645.16 437.29,645.43 436.31,645.62 435.34,645.83 434.20,645.90 433.06,645.98 431.92,646.05 430.78,646.13 429.63,646.20 428.49,646.28 427.35,646.35 425.92,646.08 424.42,645.57 422.94,644.99 421.24,644.39 419.54,643.78 417.85,643.18 416.15,642.57 414.45,641.97 412.75,641.37 411.10,640.82 409.35,640.42 407.61,640.03 405.90,639.83 404.18,639.62 402.47,639.42 400.76,639.21 399.04,639.01 397.33,638.81 395.48,638.74 393.79,638.77 391.89,638.78 390.03,638.97 388.17,639.17 386.31,639.37 384.45,639.57 382.59,639.78 380.73,639.98 379.03,640.27 377.40,640.64 375.65,641.01 374.05,641.46 372.46,641.92 370.86,642.37 369.26,642.83 367.66,643.28 366.06,643.74 364.60,643.91 363.03,644.10 361.53,643.99 359.97,643.82 358.41,643.64 356.84,643.46 355.28,643.29 353.72,643.11 352.15,642.94 350.59,642.76 348.82,642.83 346.92,642.87 345.12,643.02 343.32,643.25 341.53,643.49 339.80,643.74 338.38,644.00 336.94,644.26 335.71,644.42 334.56,644.56 333.41,644.82 332.40,644.89 331.44,645.07 330.47,645.26 329.46,645.58 328.36,645.62 327.27,645.69 325.95,645.82 324.63,646.01 323.22,646.17 321.77,646.29 320.28,646.33 318.79,646.38 317.29,646.40 315.88,646.29 314.34,646.23 312.46,646.20 310.59,646.17 308.71,646.14 306.83,646.11 304.95,646.08 303.08,646.05 301.00,645.94 298.64,645.79 296.27,645.65 293.90,645.51 291.54,645.37 289.17,645.22 286.80,645.08 284.44,644.94 282.07,644.80 279.70,644.65 277.31,644.76 275.25,644.82 273.30,644.88 271.82,645.18 270.35,645.48 268.87,645.78 267.40,646.08 265.93,646.38 264.45,646.68 263.36,646.90 262.35,647.22 261.56,647.20 260.88,647.08 260.20,646.97 259.52,646.86 258.84,646.74 258.16,646.63 257.48,646.52 256.68,646.33 255.81,646.17 255.13,646.00 254.01,646.05 252.89,646.10 251.77,646.15 250.65,646.20 249.52,646.25 248.40,646.30 247.07,646.44 245.91,646.68 245.00,646.86 244.25,646.89 243.49,646.93 242.74,646.96 241.98,647.00 241.23,647.03 240.47,647.07 239.86,646.74 239.05,646.65 238.29,646.37 237.00,646.05 235.70,645.73 234.41,645.41 233.11,645.08 231.82,644.76 230.53,644.44 229.23,644.12 226.97,643.99 224.38,643.91 221.80,643.78 219.11,643.68 216.41,643.59 213.86,643.65 211.42,643.70 208.99,643.93 206.85,644.09 204.71,644.24 202.85,644.45 201.24,644.59 199.76,644.71 198.27,644.83 196.94,644.97 195.70,645.24 194.59,645.28 193.36,645.06 192.14,644.84 190.91,644.62 189.68,644.39 188.46,644.17 187.23,643.95 185.67,643.64 183.92,643.32 182.18,643.03 180.61,642.84 179.04,642.65 177.47,642.47 175.90,642.28 174.33,642.09 172.76,641.91 171.44,641.93 170.28,641.91 169.36,642.08 168.54,642.04 167.73,642.01 166.92,641.97 166.11,641.94 165.29,641.90 164.48,641.87 163.63,641.67 162.58,641.44 161.28,641.18 159.63,641.12 157.52,640.91 155.41,640.71 153.29,640.50 151.17,640.30 149.06,640.09 146.94,639.89 144.59,639.80 142.32,639.68 139.94,639.68 137.91,639.57 135.88,639.46 133.86,639.34 131.83,639.23 129.80,639.12 127.78,639.00 125.67,638.83 123.47,638.80 121.35,638.60 118.85,638.45 116.34,638.29 113.83,638.13 111.33,637.98 108.82,637.82 106.31,637.67 103.37,637.54 100.52,637.32 97.50,637.36 95.02,637.50 92.53,637.64 90.05,637.78 87.57,637.92 85.09,638.06 82.61,638.20 80.33,638.48 78.03,638.75 75.90,638.84 74.04,638.66 72.18,638.48 70.32,638.30 68.64,637.83 67.05,637.31 65.62,636.90 64.16,636.31 62.85,635.69 61.60,635.11 60.35,634.53 59.36,634.07 58.37,633.62 57.68,633.31 57.15,632.99 56.63,632.69 56.28,632.32 56.00,632.33 56.04,632.38 56.05,632.38 56.19,632.57 56.34,632.75 56.60,632.84 56.74,632.98 57.14,633.18 57.56,633.70 57.97,634.22 58.38,634.74 58.79,635.26 59.20,635.78 59.61,636.30 59.79,636.73 60.20,637.11 60.72,637.35 61.43,637.50 62.14,637.66 62.86,637.81 63.57,637.97 64.29,638.12 65.00,638.28 66.09,638.18 67.02,638.23 68.09,638.00 68.96,637.87 69.83,637.74 70.70,637.60 71.57,637.47 72.44,637.34 73.31,637.21 74.14,637.08 74.78,637.13 75.49,636.99 76.09,636.97 76.69,636.94 77.29,636.92 77.90,636.89 78.56,637.16 79.22,637.44 79.88,637.71 80.52,638.33 81.11,638.94 81.93,639.73 82.70,640.23 83.48,640.72 84.25,641.22 85.02,641.71 85.80,642.20 86.57,642.69 86.88,643.29 87.45,643.50 87.33,643.63 87.20,643.77 87.08,643.90 86.95,644.04 86.83,644.18 86.70,644.31 86.57,644.45 86.05,644.02 84.71,643.30 83.96,642.81 83.60,642.28 83.24,641.74 82.89,641.21 82.53,640.67 82.17,640.14 82.04,639.50 81.85,638.95 81.67,638.72 81.44,638.72 81.31,638.69 81.19,638.67 81.15,638.60 81.21,638.66 81.27,638.86 81.36,639.10 81.60,639.31 81.73,639.48 81.91,639.79 82.09,640.09 82.27,640.40 82.38,640.82 82.86,641.23 83.20,641.79 83.54,642.34 83.98,642.86 84.42,643.37 84.86,643.89 85.30,644.41 85.74,644.92 86.17,645.44 86.48,645.80 86.69,646.43 86.99,646.78 87.38,647.22 87.76,647.66 88.15,648.10 88.53,648.53 88.92,648.97 89.30,649.41 89.71,649.66 90.04,650.21 90.37,650.82 90.47,651.06 90.57,651.30 90.67,651.54 90.77,651.78 90.86,652.02 90.96,652.26 90.93,652.37 90.87,652.37 90.72,652.48 90.34,652.66 89.96,652.83 89.57,653.01 89.19,653.18 88.81,653.36 88.42,653.53 88.24,653.79 87.91,654.40 87.79,654.75 87.42,655.19 87.05,655.63 86.68,656.07 86.31,656.51 85.94,656.95 85.57,657.39 85.35,657.62 85.14,657.99 85.04,658.32 85.03,658.78 85.02,659.23 85.02,659.69 85.01,660.15 85.01,660.60 85.00,661.06 85.00,661.51 85.03,662.07 85.09,662.69 85.23,663.06 85.03,663.27 84.84,663.47 84.64,663.68 84.44,663.88 84.25,664.09 84.05,664.29 83.69,664.36 83.38,664.98 83.00,664.86 82.56,664.87 82.11,664.88 81.71,664.90 81.33,665.27 81.18,665.53 81.06,665.76 80.98,666.15 80.72,666.82 80.35,667.86 80.11,668.23 79.87,668.60 79.48,669.07 78.93,669.91 77.98,670.24 77.68,670.63 77.38,671.02 77.08,671.41 76.78,671.80 76.48,672.18 76.18,672.57 76.09,673.48 76.34,674.00 76.08,675.19" fill="none" stroke="#111827" stroke-width="4" opacity="0.9"/>
  <polyline points="298.17,346.23 298.74,343.94 299.00,342.87 299.15,342.25 299.25,341.85 299.32,341.56 299.37,341.35 299.40,341.19 299.44,341.05 299.46,340.94 299.48,340.85 299.49,340.77 299.50,340.70 299.51,340.64 299.53,340.59 299.54,340.54 299.54,340.50 299.55,340.46 299.56,340.43 299.56,340.40 299.57,340.38 299.57,340.36 299.58,340.33 299.58,340.31 299.59,340.29 299.58,340.28 299.59,340.27 299.60,340.24 299.60,340.23 299.60,340.23 299.60,340.22 299.61,340.20 299.61,340.20 299.61,340.19 299.61,340.18 299.61,340.18 299.62,340.17 299.63,340.16 299.63,340.15 299.63,340.15 299.63,340.15 299.63,340.15 299.63,340.14 299.63,340.14 299.63,340.14 299.64,340.13 299.63,340.13 299.63,340.13 299.63,340.13 299.63,340.13 299.62,340.13 299.62,340.13 299.61,340.13 299.61,340.14 299.61,340.15 299.61,340.16 299.61,340.16 299.61,340.18 299.61,340.19 299.61,340.21 299.60,340.21 299.60,340.23 299.60,340.24 299.61,340.25 299.62,340.25 299.71,340.17 299.94,339.91 300.20,339.48 300.29,338.88 300.02,338.29 299.49,337.79 298.83,337.39 298.21,337.22 297.78,337.33 297.97,337.99 298.50,338.50 299.22,338.68 299.93,338.66 300.35,338.43 300.52,338.03 300.51,337.49 300.28,337.06 299.76,336.80 299.29,336.54 298.77,336.47 298.70,336.74 299.03,337.21 299.80,337.65 300.95,338.05 302.23,338.35 303.21,338.55 303.15,338.62 302.70,338.56 301.76,338.33 300.48,338.06 299.25,337.75 298.59,337.11 298.52,336.33 298.71,335.72 298.93,335.70 298.94,335.96 298.92,336.42 298.98,336.80 299.07,337.01 299.18,337.04 299.26,336.98 299.29,336.83 299.16,336.71 299.02,336.71 298.83,337.12 298.73,337.72 298.42,338.76 297.97,340.21 297.36,341.90 296.63,343.63 295.81,345.30 294.92,346.85 293.89,348.24 292.56,349.48 291.00,350.66 289.39,351.87 287.66,353.03 285.90,354.24 284.06,355.38 282.20,356.36 280.45,357.33 278.73,358.51 276.96,359.57 275.30,360.07 273.79,360.54 272.48,361.30 271.57,362.15 271.00,363.04 270.75,364.03 270.84,365.13 270.87,366.16 270.83,367.02 270.74,367.58 270.90,367.83 270.75,368.00 270.77,368.02 270.76,367.93 270.84,368.03 270.85,368.13 270.76,368.28 270.66,368.31 270.62,368.31 270.56,368.31 270.53,368.32 270.46,368.26 270.43,368.21 270.39,368.19 270.37,368.18 270.27,368.07 270.18,368.02 270.17,368.02 270.15,368.01 270.13,367.98 270.16,368.01 270.18,368.04 270.18,368.04 270.16,367.99 270.17,368.01 270.20,368.03 270.21,368.03 270.20,368.00 270.23,368.01 270.25,368.02 270.27,368.05 270.27,368.04 270.26,368.03 270.26,368.04 270.27,368.05 270.27,368.05 270.25,368.03 270.25,368.02 270.25,368.04 270.23,368.01 270.25,368.02 270.26,368.05 270.28,368.07 270.26,368.03 270.26,368.04 270.26,368.05 270.27,368.06 270.25,368.04 270.24,368.03 270.25,368.05 270.25,368.06 270.23,368.04 270.23,368.03 270.23,368.04 270.25,368.06 270.25,368.06 270.24,368.05 270.25,368.07 270.27,368.09 270.26,368.06 270.25,368.06 270.24,368.07 270.24,368.07 270.21,368.04 270.22,368.04 270.23,368.06 270.24,368.07 270.22,368.04 270.21,368.04 270.21,368.06 270.21,368.08 270.21,368.07 270.19,368.07 270.20,368.08 270.20,368.09 270.19,368.08 270.17,368.06 270.17,368.08 270.18,368.09 270.15,368.06 270.16,368.08 270.17,368.10 270.18,368.12 270.17,368.10 270.18,368.11 270.18,368.12 270.19,368.13 270.17,368.11 270.16,368.11 270.16,368.11 270.16,368.12 270.14,368.09 270.15,368.09 270.15,368.10 270.16,368.12 270.15,368.09 270.15,368.10 270.17,368.11 270.19,368.13 270.19,368.14 270.18,368.12 270.19,368.13 270.20,368.15 270.19,368.11 270.20,368.12 270.21,368.13 270.22,368.14 270.20,368.11 270.20,368.11 270.21,368.12 270.22,368.13 270.21,368.11 270.22,368.10 270.23,368.11 270.25,368.13 270.23,368.10 270.23,368.10 270.23,368.11 270.25,368.12 270.25,368.12 270.26,368.12 270.27,368.14 270.29,368.15 270.28,368.13 270.28,368.14 270.30,368.15 270.32,368.17 270.31,368.16 270.32,368.17 270.33,368.18 270.34,368.19 270.34,368.19 270.34,368.19 270.35,368.20 270.37,368.21 270.38,368.22 270.37,368.20 270.36,368.19 270.40,368.23 270.42,368.25 270.42,368.23 270.44,368.25 270.42,368.24 270.43,368.23 270.44,368.24 270.46,368.26 270.50,368.30 270.50,368.29 270.50,368.28 270.50,368.29 270.50,368.29 270.51,368.29 270.51,368.32 270.53,368.33 270.54,368.34 270.51,368.31 270.47,368.27 270.46,368.25 270.46,368.25 270.47,368.23 270.46,368.21 270.45,368.21 270.45,368.20 270.44,368.20 270.48,368.22 270.48,368.23 270.48,368.23 270.42,368.17 270.45,368.21 270.49,368.24 270.51,368.27 270.49,368.26 270.47,368.23 270.47,368.24 270.45,368.22 270.44,368.22 270.44,368.20 270.46,368.22 270.45,368.19 270.43,368.21 270.42,368.15 270.40,368.16 270.41,368.18 270.42,368.17 270.42,368.16 270.38,368.13 270.35,368.12 270.36,368.11 270.36,368.08 270.32,368.06 270.28,368.03 270.23,367.91 270.14,367.88 270.21,368.00 270.42,368.24 270.76,368.59 271.20,368.92 271.93,369.19 272.87,369.43 273.85,369.53 274.61,369.54 275.53,369.69 276.64,369.86 277.76,370.01 278.84,370.34 279.89,370.57 280.91,370.77 281.86,370.84 282.65,371.02 283.28,371.11 283.86,371.12 284.40,370.99 284.81,370.71 285.16,370.36 285.43,369.86 285.80,369.38 286.22,369.23 286.13,369.07 286.01,368.79 285.85,368.45 285.77,368.21 285.77,367.85 285.79,367.53 285.78,367.23 285.84,366.90 285.93,366.60 286.03,366.28 286.22,365.83 286.48,365.48 286.58,365.28 286.71,365.24 286.88,365.19 287.07,365.13 287.19,365.14 287.41,365.12 287.66,365.13 287.89,365.14 288.17,365.27 288.40,365.32 288.72,365.37 289.14,365.42 289.60,365.67 290.20,365.91 291.05,366.19 292.00,366.55 293.20,366.89 294.53,367.21 296.01,367.57 297.59,367.97 299.26,368.42 301.02,368.99 302.94,369.54 305.06,370.06 307.30,370.63 309.62,371.27 312.04,371.84 314.53,372.45 317.16,373.06 319.80,373.62 322.43,374.08 324.99,374.75 327.73,375.40 330.46,376.00 333.17,376.43 335.85,376.92 338.62,377.43 341.41,377.92 344.20,378.45 346.88,379.07 349.45,379.60 352.06,380.06 354.70,380.44 357.37,381.00 359.95,381.66 362.48,382.37 365.00,383.05 367.53,383.69 370.03,384.46 372.57,385.21 375.19,385.94 377.88,386.57 380.58,387.25 383.31,387.93 386.13,388.56 388.87,389.24 391.68,390.00 394.43,390.71 397.14,391.32 399.61,391.97 401.93,392.70 404.59,393.35 407.24,393.90 409.95,394.51 412.59,395.21 415.16,395.84 417.77,396.42 420.17,397.09 422.53,397.74 425.09,398.47 427.55,399.17 430.09,399.76 432.48,400.36 434.89,400.97 437.21,401.51 439.43,402.05 441.82,402.52 444.21,403.17 446.58,403.77 448.90,404.42 451.15,405.15 453.54,405.83 455.81,406.44 458.09,407.07 460.31,407.73 462.47,408.33 464.63,408.84 466.78,409.29 469.04,409.87 471.25,410.35 473.47,410.60 475.73,410.66 478.01,410.70 480.24,410.73 482.49,410.60 484.68,410.63 486.89,410.60 488.94,410.57 491.05,410.42 493.19,410.25 495.30,410.02 497.30,409.94 499.41,409.84 501.49,409.85 503.64,409.82 505.85,409.79 508.07,409.74 510.33,409.86 512.56,410.15 514.69,410.49 516.87,410.90 519.05,411.34 521.25,411.70 523.42,412.03 525.57,412.28 527.64,412.62 529.66,413.02 531.72,413.39 533.72,413.71 535.70,414.10 537.75,414.43 539.81,414.81 541.81,415.09 543.87,415.32 545.92,415.48 547.97,415.73 549.97,415.92 551.90,416.13 553.77,416.47 555.69,416.72 557.63,417.07 559.45,417.30 561.30,417.54 563.16,417.88 565.05,418.13 566.90,418.44 568.82,418.69 570.62,419.02 572.45,419.31 574.26,419.63 576.15,419.94 578.00,420.22 579.82,420.57 581.63,420.85 583.48,421.18 585.29,421.53 587.04,421.83 588.79,422.18 590.64,422.51 592.49,422.84 594.37,423.24 596.36,423.65 598.26,424.06 600.23,424.35 602.09,424.60 603.96,424.81 605.88,425.05 607.45,425.16 609.17,424.92 611.07,424.74 613.03,424.62 614.98,424.44 616.99,424.10 619.01,423.73 621.11,423.24 623.20,422.69 625.44,422.15 627.70,421.46 629.97,420.70 632.37,419.84 634.93,419.04 637.46,418.32 639.78,417.89 641.83,417.73 643.83,417.65 645.88,417.69 647.93,417.86 650.03,418.08 652.17,418.31 654.27,418.63 656.37,419.01 658.36,419.41 660.28,419.78 662.13,420.19 664.01,420.66 665.81,421.16 667.65,421.66 669.50,422.16 671.39,422.74 673.37,423.41 675.26,423.93 677.20,424.38 678.98,424.91 680.83,425.49 682.58,425.94 684.33,426.10 686.25,426.05 688.23,425.96 690.16,425.93 691.91,426.10 693.68,426.27 695.07,426.27 696.61,426.32 698.14,426.38 699.67,426.41 701.28,426.52 702.94,426.60 704.65,426.66 706.39,426.67 708.11,426.73 709.84,426.83 711.56,427.08 713.32,427.43 715.16,427.78 717.00,428.10 718.97,428.40 720.91,428.77 723.01,429.23 725.28,429.61 727.67,429.96 730.16,430.29 732.84,430.57 735.66,430.81 738.53,431.06 741.51,431.43 744.51,431.82 747.58,432.26 750.76,432.80 753.89,433.33 757.35,433.98 760.74,434.46 764.17,434.90 767.57,435.28 771.01,435.66 774.46,436.17 777.88,436.67 781.44,437.16 784.95,437.73 788.58,438.31 792.32,439.01 796.01,439.71 799.75,440.29 803.45,440.86 807.15,441.49 810.69,442.34 814.10,443.17 817.41,444.17 820.60,445.05 823.82,445.92 827.06,446.64 830.17,447.29 833.33,447.96 836.39,448.60 839.36,449.28 842.30,449.97 844.95,450.65 847.55,451.31 850.09,451.96 852.59,452.69 855.14,453.49 857.65,454.50 859.90,455.57 862.14,456.84 864.37,458.07 866.58,459.48 868.61,460.81 870.51,462.10 872.41,463.37 874.29,464.74 876.09,466.11 877.84,467.55 879.49,469.13 880.98,470.69 882.40,472.37 883.71,473.97 884.97,475.67 886.07,477.42 887.15,479.26 888.15,481.00 889.13,482.91 890.05,484.78 891.01,486.72 891.79,488.64 892.44,490.54 893.03,492.34 893.51,494.13 894.10,495.91 894.77,497.68 895.52,499.32 896.22,501.00 896.83,502.68 897.27,504.41 897.78,506.09 898.29,507.93 898.93,509.70 899.48,511.52 899.91,513.44 900.31,515.44 900.77,517.27 901.12,519.12 901.52,521.00 901.91,522.78 902.38,524.55 902.67,526.41 902.98,528.41 903.24,530.46 903.57,532.46 903.99,534.61 904.61,536.50 905.11,538.59 905.51,540.73 906.05,543.03 906.67,545.38 907.06,547.82 907.37,550.17 907.73,552.55 908.11,555.06 908.36,557.54 908.61,559.97 908.84,562.48 908.99,565.00 909.02,567.60 908.85,570.25 908.45,573.19 908.17,576.03 907.91,578.86 907.65,581.78 907.20,584.65 906.60,587.71 905.94,590.48 905.28,593.07 904.48,595.68 903.73,598.18 902.90,600.50 902.12,602.78 901.13,605.29 900.06,607.70 898.93,610.15 897.62,612.76 896.14,615.44 894.62,617.85 893.06,620.34 891.45,622.67 889.82,624.84 888.24,626.84 886.64,628.89 884.91,630.80 883.06,632.64 881.28,634.16 879.39,635.92 877.51,637.41 875.60,638.94 873.71,640.37 871.83,641.68 869.88,643.06 867.79,644.41 865.57,645.71 863.48,646.83 861.46,647.87 859.08,649.06 856.51,650.20 853.87,651.40 851.23,652.61 848.48,653.68 845.70,654.70 843.11,655.71 840.60,656.70 837.87,657.78 835.20,658.72 832.50,659.54 829.87,660.21 827.13,660.76 824.32,661.37 821.51,661.88 818.85,662.28 816.11,662.67 813.27,663.08 810.43,663.45 807.81,663.63 805.10,663.88 802.43,663.94 799.73,664.03 797.13,664.19 794.44,664.33 791.72,664.28 789.16,664.02 786.89,663.81 784.49,663.71 781.99,663.71 779.57,663.91 777.25,663.98 774.85,663.93 772.42,663.94 770.19,663.89 768.09,663.81 765.78,663.75 763.46,663.73 761.14,663.59 759.01,663.47 756.88,663.35 754.73,663.12 752.61,663.06 750.62,662.78 748.69,662.61 746.80,662.32 744.78,661.84 742.92,661.35 741.09,661.01 739.25,660.62 737.38,660.21 735.71,659.84 733.90,659.59 732.06,659.42 730.31,659.23 728.55,659.13 726.86,658.96 725.21,658.71 723.54,658.52 721.79,658.50 720.22,658.56 719.27,658.82 717.81,659.22 716.35,659.69 714.73,660.29 713.07,660.84 711.48,661.39 710.00,661.96 708.58,662.62 707.13,663.31 705.73,663.95 704.41,664.59 703.09,665.37 701.71,666.08 700.47,666.70 699.25,667.39 698.05,668.07 697.15,668.98 696.16,670.07 695.38,671.07 694.44,671.28 693.79,671.26 693.10,671.39 692.28,671.70 691.48,672.00 690.72,672.43 690.05,672.50 689.31,672.49 688.50,672.32 687.59,672.07 686.43,671.89 685.23,671.88 683.69,671.84 682.04,671.81 680.13,671.62 678.09,671.46 676.03,671.14 673.85,671.02 671.59,670.84 669.30,670.70 666.82,670.58 664.26,670.32 661.60,670.24 659.00,670.04 656.29,669.81 653.52,669.72 650.69,669.65 647.89,669.60 645.02,669.57 642.10,669.56 639.18,669.55 636.26,669.55 633.21,669.62 630.29,669.74 627.26,669.87 624.30,669.95 621.14,670.01 618.08,670.14 615.00,670.35 611.80,670.70 608.57,670.96 605.19,671.01 601.99,671.06 598.89,671.35 595.84,671.65 592.84,671.93 589.67,672.18 586.71,672.12 583.69,671.81 580.83,671.50 577.92,671.14 575.13,670.76 572.30,670.23 569.56,669.66 566.85,668.97 564.24,668.16 561.76,667.29 559.11,666.42 556.16,665.72 553.19,665.13 550.16,664.66 547.07,664.19 543.99,663.60 541.01,663.04 537.98,662.51 534.89,662.06 531.88,661.67 528.91,661.35 525.79,661.21 522.80,661.12 519.89,660.99 517.39,661.02 514.76,661.07 512.19,661.13 509.68,661.02 507.35,660.99 504.95,660.98 502.73,661.00 500.64,661.14 498.56,661.25 496.49,661.14 494.64,660.72 493.05,660.20 491.59,659.59 489.93,658.94 488.19,658.34 486.61,657.84 484.85,657.28 483.14,656.67 481.19,656.20 479.35,655.82 477.52,655.36 475.75,654.96 473.95,654.45 472.25,654.09 470.62,653.76 468.91,653.36 467.23,652.98 465.44,652.49 463.70,652.03 461.99,651.46 460.18,651.11 458.29,650.80 456.49,650.65 454.72,650.49 452.85,650.21 451.00,650.04 449.27,649.87 447.63,649.81 446.11,649.72 444.70,649.68 443.29,649.70 442.00,649.73 440.66,649.63 439.20,649.70 437.99,649.91 436.69,650.11 435.50,650.26 434.41,650.35 433.34,650.48 432.36,650.76 431.39,650.91 430.42,651.02 429.32,651.18 428.24,651.24 426.98,651.39 425.61,651.45 424.28,651.38 422.89,651.07 421.53,650.44 420.20,649.72 418.81,649.11 417.35,648.57 415.77,648.08 414.06,647.67 412.51,647.17 410.99,646.66 409.31,646.20 407.52,645.77 405.74,645.52 404.05,645.10 402.58,644.69 401.00,644.29 399.39,643.92 397.81,643.76 395.56,643.74 393.60,643.78 391.88,643.79 390.07,643.95 388.32,643.92 386.45,643.91 384.52,644.06 382.86,644.35 381.26,644.59 379.63,644.72 378.03,644.85 376.19,645.05 374.34,645.40 372.61,645.90 370.98,646.45 369.25,646.94 367.71,647.39 366.33,647.56 364.73,647.74 363.22,647.83 361.72,647.82 360.23,647.72 358.83,647.61 357.39,647.53 355.77,647.44 354.15,647.39 352.65,647.45 351.05,647.53 349.34,647.51 347.56,647.65 345.82,647.83 344.27,647.91 342.54,648.10 340.87,648.29 339.37,648.55 338.02,648.66 336.76,648.69 335.58,648.69 334.55,648.72 333.62,648.72 332.55,648.93 331.49,649.22 330.34,649.61 329.47,649.77 328.43,649.79 327.27,649.92 325.99,650.15 324.60,650.55 323.31,650.78 321.95,651.01 320.71,651.00 319.51,651.00 318.24,650.95 316.95,650.85 315.54,650.84 314.10,650.95 312.43,651.03 310.69,651.05 308.87,651.08 306.96,651.04 305.12,650.92 303.35,650.87 301.57,650.75 299.64,650.71 297.55,650.65 295.32,650.56 293.13,650.40 290.71,650.36 288.40,650.12 285.81,650.08 283.59,650.06 281.88,650.14 280.67,650.23 279.26,650.16 277.86,650.20 276.29,650.48 274.59,650.79 272.98,651.13 271.59,651.36 270.49,651.64 269.35,651.94 268.27,652.24 267.49,652.43 266.73,652.37 265.93,652.27 265.21,652.19 264.41,652.05 263.70,651.93 263.01,651.84 262.40,651.74 261.78,651.55 261.07,651.47 260.16,651.37 259.13,651.42 258.06,651.44 256.98,651.42 255.80,651.43 254.66,651.49 253.54,651.72 252.48,651.93 251.43,652.01 250.62,651.96 249.95,652.00 249.10,652.07 248.23,652.17 247.44,652.22 246.68,652.21 245.86,652.20 245.05,652.08 244.37,651.92 243.62,651.67 242.83,651.32 242.02,651.03 241.02,650.75 239.61,650.47 237.78,650.22 235.77,650.04 233.66,649.89 231.58,649.72 229.41,649.50 227.12,649.25 224.64,649.14 222.26,649.17 219.85,649.26 217.54,649.40 215.37,649.46 213.28,649.51 211.32,649.45 209.65,649.52 208.03,649.76 206.55,649.92 205.17,650.21 203.87,650.53 202.64,650.62 201.62,650.50 200.65,650.31 199.52,650.11 198.28,649.96 196.99,649.88 195.55,649.77 193.92,649.58 192.30,649.34 190.68,649.08 189.05,648.84 187.43,648.48 185.83,648.13 184.32,647.99 182.74,648.00 181.38,647.97 180.20,648.04 178.97,648.14 177.74,648.17 176.70,648.23 175.70,648.23 174.82,648.20 174.04,648.14 173.42,647.98 172.69,647.70 171.80,647.44 170.71,647.24 169.38,647.03 167.88,646.80 166.22,646.54 164.47,646.31 162.58,646.14 160.69,645.96 158.71,645.72 156.68,645.47 154.52,645.26 152.29,645.16 150.01,645.14 147.76,645.04 145.76,644.92 143.82,644.75 142.04,644.56 140.23,644.44 138.28,644.41 136.27,644.47 134.25,644.48 132.19,644.46 130.14,644.20 128.06,643.91 125.87,643.62 123.63,643.32 121.39,642.86 118.78,642.52 116.01,642.41 113.29,642.69 110.71,642.82 108.18,642.80 105.71,642.82 103.33,642.95 100.92,643.23 98.39,643.74 96.07,644.11 94.00,644.57 91.80,645.07 89.82,645.43 87.83,645.62 85.94,645.56 84.36,645.31 82.68,644.95 81.15,644.55 79.63,644.12 78.10,643.63 76.62,643.15 75.29,642.60 74.20,641.98 73.20,641.48 72.28,641.04 71.48,640.68 70.80,640.35 70.23,640.02 69.82,639.78 69.47,639.71 69.31,639.69 69.10,639.85 69.06,639.91 69.09,639.92 69.24,639.90 69.49,639.99 69.78,640.24 70.15,640.77 70.45,641.35 70.87,642.01 71.27,642.79 71.63,643.51 71.90,644.13 72.34,644.65 72.73,645.15 73.30,645.70 73.82,646.31 74.34,646.97 74.99,647.56 75.76,648.01 76.52,648.29 77.52,648.46 78.43,648.42 79.44,648.60 80.34,648.69 81.21,648.71 82.13,648.64 83.01,648.60 83.88,648.52 84.76,648.52 85.62,648.60 86.41,648.55 87.19,648.58 87.91,648.57 88.58,648.65 89.29,648.76 90.09,648.94 91.08,649.28 92.14,649.76 93.23,650.31 94.19,650.86 95.08,651.37 95.94,651.93 96.88,652.47 97.76,653.02 98.52,653.68 99.51,654.47 100.40,655.32 101.30,656.01 101.92,656.34 102.44,656.66 102.89,656.99 103.21,657.23 103.44,657.45 103.46,657.63 103.32,657.74 102.92,657.76 102.40,657.64 101.77,657.42 100.96,657.16 100.13,656.89 99.35,656.47 98.69,655.97 98.12,655.33 97.70,654.60 97.40,653.84 97.15,653.15 96.96,652.58 96.74,652.15 96.48,651.81 96.25,651.58 96.11,651.44 96.06,651.34 95.95,651.33 95.97,651.36 96.02,651.52 96.09,651.75 96.20,652.01 96.39,652.26 96.65,652.60 96.95,652.98 97.28,653.39 97.62,653.88 98.01,654.36 98.43,654.91 98.90,655.54 99.45,656.15 100.02,656.81 100.61,657.50 101.15,658.19 101.55,658.78 101.83,659.42 102.12,660.04 102.42,660.72 102.74,661.25 103.13,661.78 103.56,662.28 104.02,662.82 104.47,663.40 104.91,663.98 105.38,664.60 105.79,665.26 106.19,665.87 106.52,666.44 106.86,666.99 107.12,667.43 107.38,667.70 107.56,667.96 107.68,668.18 107.81,668.34 107.84,668.52 107.86,668.67 107.84,668.85 107.73,669.02 107.51,669.25 107.23,669.52 106.88,669.88 106.49,670.25 106.11,670.63 105.74,671.04 105.35,671.42 104.98,671.82 104.58,672.23 104.11,672.72 103.62,673.22 103.03,673.74 102.47,674.24 101.92,674.82 101.42,675.38 101.09,676.00 100.84,676.58 100.70,677.13 100.60,677.73 100.57,678.35 100.57,679.00 100.71,679.73 100.77,680.34 100.80,680.99 100.85,681.67 100.92,682.28 101.01,682.84 100.99,683.35 100.96,683.77 100.82,684.10 100.60,684.45 100.29,684.82 99.95,685.19 99.63,685.58 99.27,685.94 98.86,686.29 98.47,686.61 98.03,686.89 97.58,687.08 97.09,687.32 96.66,687.53 96.32,687.77 95.94,688.10 95.58,688.55 95.24,689.03 94.92,689.61 94.57,690.20 94.14,690.82 93.59,691.45 92.98,692.06 92.36,692.68 91.74,693.37 91.08,694.03 90.43,694.67 89.88,695.40 89.48,696.09 89.19,696.86 89.03,697.54 89.02,698.22 89.13,698.74" fill="none" stroke="#2563eb" stroke-width="4" opacity="0.9"/>
  <circle cx="295.97" cy="354.82" r="7" fill="#10b981"/>
  <circle cx="76.08" cy="675.19" r="7" fill="#ef4444"/>
  <g font-family="Arial, sans-serif" font-size="14">
    <rect x="724" y="32" width="220" height="116" fill="#ffffff" stroke="#d1d5db"/>
    <line x1="744" y1="58" x2="794" y2="58" stroke="#111827" stroke-width="4"/><text x="808" y="63" fill="#111827">Ground truth</text>
    <line x1="744" y1="84" x2="794" y2="84" stroke="#2563eb" stroke-width="4"/><text x="808" y="89" fill="#111827">Fused estimate</text>
    <line x1="744" y1="110" x2="794" y2="110" stroke="#f97316" stroke-width="3"/><text x="808" y="115" fill="#111827">GNSS</text>
    <line x1="744" y1="136" x2="794" y2="136" stroke="#16a34a" stroke-width="3"/><text x="808" y="141" fill="#111827">VIO / odom</text>
  </g>
</svg>
