<svg xmlns="http://www.w3.org/2000/svg" width="1000" height="760" viewBox="0 0 1000 760">
  <rect width="100%" height="100%" fill="#ffffff"/>
  <text x="56" y="42" font-family="Arial, sans-serif" font-size="26" font-weight="700" fill="#111827">INSANE Navigation Fusion Replay</text>
  <text x="56" y="72" font-family="Arial, sans-serif" font-size="15" fill="#4b5563">Fused RMSE 1.19 m | GNSS 5.14 m | VIO 1.21 m</text>
  <text x="56" y="724" font-family="Arial, sans-serif" font-size="13" fill="#6b7280">Bounds: x -20.4..51.2 m, y -27.4..2.4 m</text>
  <g stroke="#e5e7eb" stroke-width="1">
    <line x1="100" y1="100" x2="100" y2="690"/><line x1="200" y1="100" x2="200" y2="690"/><line x1="300" y1="100" x2="300" y2="690"/><line x1="400" y1="100" x2="400" y2="690"/><line x1="500" y1="100" x2="500" y2="690"/><line x1="600" y1="100" x2="600" y2="690"/><line x1="700" y1="100" x2="700" y2="690"/><line x1="800" y1="100" x2="800" y2="690"/><line x1="900" y1="100" x2="900" y2="690"/>
    <line x1="56" y1="120" x2="944" y2="120"/><line x1="56" y1="200" x2="944" y2="200"/><line x1="56" y1="280" x2="944" y2="280"/><line x1="56" y1="360" x2="944" y2="360"/><line x1="56" y1="440" x2="944" y2="440"/><line x1="56" y1="520" x2="944" y2="520"/><line x1="56" y1="600" x2="944" y2="600"/><line x1="56" y1="680" x2="944" y2="680"/>
  </g>
  <polyline points="315.68,387.77 315.92,387.74 316.09,387.76 316.09,388.01 316.15,388.32 316.18,388.70 316.05,388.68 315.87,388.60 315.24,387.48 314.33,385.81 313.38,385.81 312.83,385.69 312.77,385.43 312.96,385.61 313.25,385.86 313.72,386.12 314.09,386.49 314.39,386.93 314.50,387.36 314.49,387.91 314.23,389.43 314.70,390.86 314.78,391.19 315.06,391.58 316.40,394.76 316.96,395.20 317.61,395.55 318.01,395.30 312.31,402.04 310.85,403.50 309.39,404.98 307.96,406.39 306.52,408.14 301.93,412.83 301.60,413.55 302.17,413.64 302.70,413.93 302.83,414.46 303.32,414.16 303.82,414.09 303.76,414.18 297.33,408.93 297.32,408.62 298.04,408.45 299.42,409.86 301.86,407.32 302.01,406.75 302.19,406.40 302.69,406.67 306.24,407.60 305.22,407.22 304.20,406.86 303.49,406.69 303.70,406.40 306.09,405.52 306.45,405.78 306.80,406.26 307.12,406.68 307.35,406.85 307.29,406.91 307.06,406.92 307.00,407.09 307.11,407.27 307.17,407.76 307.23,408.45 306.75,409.20 306.02,410.00 306.14,412.18 305.68,413.71 305.16,414.38 304.47,415.07 303.71,415.78 300.42,418.60 299.93,418.52 299.32,418.41 298.79,419.09 298.64,420.28 300.18,425.31 300.12,425.39 299.94,425.39 299.97,425.51 300.26,425.76 304.05,431.58 306.12,434.15 306.76,435.03 307.25,435.59 310.57,437.08 311.58,437.60 312.54,437.89 313.32,438.04 314.34,436.62 314.33,436.36 314.16,436.10 314.13,435.90 314.13,432.80 314.31,432.63 314.53,432.62 314.76,432.70 314.85,430.58 314.52,430.49 313.87,430.40 313.30,430.28 312.83,430.11 311.97,429.35 311.85,429.17 311.81,428.83 311.38,426.48 311.09,425.88 310.95,425.58 310.78,425.27 310.48,424.84 310.31,424.59 310.19,424.42 310.13,424.33 310.02,424.17 309.84,423.91 309.71,423.50 309.59,421.97 309.25,421.38 309.25,421.21 309.30,421.04 309.42,420.86 310.89,416.76 311.36,416.59 311.84,416.79 312.27,417.02 312.90,416.51 312.78,416.08 312.61,415.87 312.57,415.69 312.92,415.52 315.94,413.37 316.47,413.29 316.89,413.20 317.26,413.09 317.74,412.75 321.68,410.72 322.28,410.28 322.77,409.92 323.31,409.49 325.39,407.05 325.21,407.05 325.15,407.13 325.21,407.30 325.07,408.07 324.78,407.90 324.95,407.81 326.93,408.22 327.34,408.64 327.35,408.85 327.23,409.02 326.92,409.97 326.86,410.41 326.86,410.63 326.92,410.63 326.67,410.78 326.39,411.00 326.16,411.33 325.88,411.57 325.03,412.10 324.82,412.60 325.00,413.29 325.13,413.54 325.11,413.67 324.69,413.67 324.16,413.89 323.59,414.23 322.86,415.16 322.92,415.42 322.93,415.98 322.81,416.61 319.24,420.49 318.82,420.49 318.58,420.45 318.63,420.53 318.10,420.28 317.59,420.07 317.12,419.73 316.50,419.33 313.28,421.19 313.11,421.45 312.93,421.59 312.77,421.68 312.89,421.85 312.94,424.16 313.12,424.60 314.32,425.28 318.72,426.07 319.61,425.90 321.66,425.81 322.44,425.45 321.66,425.22 320.94,425.13 320.84,425.19 319.69,425.93 319.87,426.19 319.58,426.15 319.26,426.06 318.47,427.02 318.31,427.12 318.22,427.17 318.40,427.08 318.58,426.94 319.50,426.95 320.28,427.09 321.11,427.17 322.25,427.04 323.51,426.82 325.01,426.49 326.67,426.36 328.44,426.37 332.42,426.85 334.32,427.02 336.56,427.41 338.88,427.84 341.26,428.27 353.35,429.92 355.66,430.31 357.96,430.85 360.43,431.73 375.37,435.54 377.79,435.78 380.13,435.95 382.49,436.23 396.08,439.13 398.49,440.13 401.06,441.18 403.75,442.25 423.63,445.41 429.08,447.06 431.89,447.71 448.22,448.01 450.55,448.27 452.78,448.49 454.85,448.66 467.31,448.15 469.46,448.04 471.60,447.78 473.71,448.51 486.50,449.08 488.88,449.00 491.06,449.26 493.22,449.61 507.15,448.84 509.21,448.20 511.23,447.65 513.12,447.32 519.74,446.33 521.93,445.97 526.22,445.45 528.36,445.11 530.49,444.51 532.61,443.97 534.71,443.46 539.08,443.04 541.30,442.69 543.42,442.63 545.52,442.62 547.61,442.53 549.70,442.50 551.81,442.49 553.98,442.31 558.22,442.59 560.32,442.78 562.43,443.02 576.69,445.05 578.66,445.07 580.64,444.90 582.50,444.90 593.90,447.21 595.91,447.92 597.72,448.49 599.41,448.99 609.21,450.39 611.02,451.00 612.80,451.59 614.42,451.69 616.04,451.91 626.43,453.68 628.42,453.94 630.29,454.05 632.00,453.96 643.27,451.11 645.34,450.51 647.47,449.91 649.66,449.30 663.10,446.18 665.22,445.75 667.23,445.60 669.21,445.59 680.54,447.96 682.38,448.46 684.22,448.95 686.03,449.38 696.73,451.69 698.61,452.41 700.46,452.93 702.23,453.33 703.95,453.66 707.61,453.22 709.39,453.13 711.17,453.19 712.92,453.28 714.59,453.36 716.36,453.39 718.18,453.39 719.68,453.13 722.72,452.61 724.35,452.84 726.00,453.17 727.66,453.43 734.43,453.90 738.35,454.43 740.44,454.67 742.58,454.84 744.89,455.12 762.23,456.25 765.53,456.76 768.76,457.38 771.96,458.06 792.97,461.77 796.53,462.39 803.81,463.17 830.14,466.22 833.74,466.74 837.19,467.22 840.42,467.65 858.91,471.24 862.04,471.97 865.10,472.84 867.88,473.62 883.99,478.30 886.81,479.54 892.02,481.92 905.02,490.00 906.88,491.05 908.69,492.11 910.40,493.31 918.44,501.35 919.65,502.95 920.66,504.76 921.51,506.71 923.14,510.56 924.03,512.35 924.92,514.16 925.70,515.88 926.48,517.58 927.31,519.31 927.97,521.09 928.51,522.92 929.03,524.78 930.33,528.77 931.14,530.64 931.97,532.48 932.82,534.50 933.52,536.52 934.12,538.53 934.71,540.50 936.55,546.25 937.10,548.07 937.67,550.07 938.30,552.09 941.48,564.56 941.72,566.88 941.96,569.19 942.20,571.51 943.93,584.35 944.00,586.54 944.00,588.71 944.00,591.19 942.38,604.75 942.02,606.82 941.36,608.94 940.63,611.08 939.79,613.24 933.24,626.96 931.83,629.26 930.35,631.42 928.95,633.58 919.36,646.79 917.60,648.91 915.64,650.86 913.58,652.77 899.51,663.02 897.04,664.39 894.54,665.67 891.88,666.87 875.32,674.58 872.66,675.81 869.85,676.92 866.99,677.89 858.74,679.73 855.94,680.08 853.09,680.43 850.21,680.78 847.25,681.12 844.33,681.51 841.43,681.94 838.72,682.29 833.36,682.86 830.65,682.92 827.98,682.99 825.49,683.42 817.56,684.92 815.12,685.47 810.70,686.16 808.53,686.23 806.26,686.23 803.98,686.18 788.54,685.47 786.39,685.30 784.25,685.13 771.28,684.06 769.31,683.97 767.35,683.88 765.34,683.54 755.58,684.01 754.08,683.75 752.67,684.00 751.18,684.23 739.65,686.11 738.31,686.62 736.97,687.21 735.64,687.82 728.16,691.71 727.04,692.31 725.94,693.06 724.88,693.83 718.54,696.85 717.37,696.91 716.01,697.17 704.42,697.54 702.18,697.33 699.92,696.98 697.61,696.53 687.08,695.09 684.16,694.84 681.18,694.58 678.02,694.33 661.66,693.96 658.78,693.95 655.93,693.94 652.90,693.85 633.17,694.71 629.85,694.45 626.54,694.20 623.26,693.83 604.54,693.74 601.79,693.40 598.94,692.84 596.02,692.13 593.31,691.29 579.45,685.15 576.51,684.21 573.31,683.60 569.92,683.08 551.04,678.26 548.33,677.65 545.61,676.71 542.98,676.09 526.48,674.43 524.54,673.91 522.75,673.15 521.02,672.64 511.53,668.36 510.29,666.64 508.79,665.64 507.27,664.70 500.08,661.45 498.23,660.98 496.67,660.40 495.24,659.32 493.87,658.09 492.63,656.72 489.84,654.78 488.28,654.52 486.70,654.22 485.08,653.87 483.53,653.39 482.05,652.81 480.80,652.03 479.59,651.15 477.15,649.52 475.82,649.09 474.38,649.00 473.26,648.99 467.00,650.55 466.06,650.98 465.11,651.06 464.17,651.13 456.57,650.64 454.98,650.50 453.36,649.90 451.72,649.13 441.04,647.10 439.11,646.68 437.30,646.19 435.57,645.68 425.61,645.33 423.92,645.00 422.26,644.57 420.32,644.40 408.90,644.55 407.30,644.78 405.80,645.53 404.17,646.26 394.45,648.28 393.08,647.94 391.70,647.52 390.30,647.01 379.23,643.29 377.51,643.21 375.62,643.12 373.75,643.02 370.34,642.58 368.66,642.23 366.84,642.32 365.27,642.22 364.02,641.87 362.87,642.10 361.65,642.52 360.10,643.21 357.31,643.48 356.13,643.73 354.92,643.92 353.67,644.01 352.23,644.16 350.72,644.40 349.12,644.90 347.36,645.41 343.88,645.61 342.36,645.25 340.88,644.91 339.20,644.71 328.33,643.32 326.24,642.98 304.82,642.71 302.59,642.80 300.72,642.88 298.93,643.02 290.34,644.75 289.45,644.92 288.74,644.93 288.14,644.85 283.22,644.64 282.15,644.52 281.10,644.43 279.97,644.09 271.55,644.56 270.27,644.99 269.01,645.42 267.90,645.89 263.02,647.05 262.31,646.97 261.65,646.96 261.06,647.04 251.14,646.16 248.43,646.33 245.35,646.01 242.22,645.71 236.29,646.17 233.52,646.51 231.09,646.59 228.84,646.71 224.96,646.99 223.16,647.06 221.62,647.06 218.67,647.74 217.43,647.92 216.13,648.19 214.73,648.63 206.63,647.85 205.09,647.55 203.54,647.25 201.85,646.98 192.44,646.26 191.33,646.35 190.17,646.43 189.03,646.52 183.99,645.68 182.88,645.46 181.59,645.06 179.96,644.22 178.08,643.62 164.25,641.83 161.57,641.92 159.05,641.95 156.63,641.95 144.31,641.26 142.10,641.10 139.83,640.84 137.65,640.59 122.89,639.59 120.40,638.92 117.66,638.75 114.92,638.74 99.10,640.29 96.61,640.55 94.17,640.82 91.84,641.08 85.90,641.40 84.10,641.20 82.36,640.85 80.94,640.50 79.58,640.09 78.33,639.57 77.23,639.12 76.21,638.70 74.58,637.90 73.74,637.55 73.14,637.45 72.67,637.46 72.42,637.64 72.23,637.82 72.08,638.01 72.02,638.27 72.20,639.07 72.55,639.49 72.95,639.88 73.43,640.23 76.04,644.00 76.28,644.44 76.51,644.78 76.75,645.39 80.20,647.02 81.18,646.94 82.17,646.64 83.14,646.39 89.50,645.49 90.43,644.52 91.26,643.56 91.91,642.79 95.30,641.38 97.67,640.07 98.83,639.74 99.94,639.55 101.01,639.48 103.42,643.47 103.59,642.83 103.65,641.78 100.29,644.71 99.32,644.70 98.31,644.53 97.51,644.32 96.27,640.74 96.03,639.94 95.67,638.66 95.34,637.91 95.05,637.83 95.12,637.21 95.24,636.95 95.35,636.90 95.47,636.98 95.87,637.07 96.35,637.31 96.95,637.83 98.36,636.46 98.89,636.30 99.51,636.31 100.73,636.51 103.27,638.23 103.39,638.32 103.56,638.22 103.80,637.88 105.71,635.39 105.79,634.70 105.91,633.93 105.98,632.86 106.67,628.80 106.61,628.37 106.84,626.93 107.10,625.48 106.36,626.31 105.76,627.31 105.02,628.46 104.07,629.68 99.52,630.64 99.10,630.86 98.81,631.60 98.63,632.33 98.39,639.12 98.59,638.89 98.72,638.59 99.02,637.29 98.60,617.33 98.42,614.47 98.36,611.44 98.30,608.56 98.38,601.62 98.53,597.11 98.59,592.80 98.61,588.99 98.61,585.46 98.49,581.32 98.42,578.33 98.42,577.18 98.80,575.66 98.80,575.22 98.65,574.19 98.41,572.81 99.89,568.98 100.66,568.49 101.29,568.55 101.65,568.12" fill="none" stroke="#f97316" stroke-width="2" opacity="0.65"/>
  <polyline points="299.49,339.33 299.49,339.33 299.49,339.33 299.49,339.33 299.49,339.33 299.49,339.33 299.49,339.33 299.50,339.33 299.49,339.33 299.50,339.33 299.49,339.33 299.49,339.33 299.50,339.33 299.50,339.33 299.50,339.33 299.50,339.33 299.50,339.33 299.50,339.33 299.50,339.33 299.50,339.34 299.50,339.33 299.49,339.33 299.50,339.33 299.50,339.32 299.50,339.33 299.50,339.33 299.50,339.33 299.50,339.32 299.50,339.33 299.50,339.33 299.50,339.33 299.50,339.34 299.50,339.34 299.50,339.34 299.50,339.33 299.50,339.32 299.50,339.33 299.52,339.31 299.69,339.14 300.11,338.60 300.47,337.85 298.01,336.38 298.75,336.63 299.55,336.63 299.97,336.38 298.56,334.50 298.00,334.57 298.04,335.00 298.55,335.61 301.16,336.69 299.45,336.35 298.15,336.05 297.60,335.38 297.73,334.57 298.30,334.57 298.29,335.22 298.38,335.65 298.54,335.81 298.69,335.70 298.78,335.50 298.77,335.23 298.59,335.12 298.21,336.33 297.84,337.71 297.29,339.57 296.57,341.56 295.76,343.42 293.98,346.65 289.81,350.24 288.13,351.40 286.34,352.54 284.55,353.74 274.15,359.35 272.70,359.77 271.50,360.55 270.71,361.42 270.29,362.33 270.62,366.89 270.83,367.03 270.65,367.17 270.65,367.16 270.63,367.06 270.33,367.48 270.25,367.41 270.23,367.36 270.18,367.35 269.92,367.20 269.90,367.17 269.95,367.23 269.96,367.26 269.97,367.25 270.00,367.28 270.01,367.31 270.00,367.30 269.95,367.30 269.95,367.33 269.92,367.29 269.96,367.32 269.92,367.36 269.92,367.36 269.92,367.38 269.92,367.40 269.90,367.38 269.90,367.39 269.92,367.42 269.91,367.42 269.93,367.47 269.92,367.43 269.90,367.44 269.90,367.46 269.89,367.47 269.85,367.42 269.87,367.44 269.89,367.46 269.89,367.48 269.87,367.44 269.86,367.45 269.85,367.50 269.84,367.49 269.85,367.51 269.85,367.52 269.84,367.52 269.83,367.59 269.80,367.56 269.82,367.58 269.82,367.60 269.79,367.61 269.76,367.57 269.77,367.58 269.78,367.60 269.79,367.62 269.79,367.65 269.81,367.67 269.78,367.62 269.80,367.64 269.81,367.66 269.80,367.67 269.78,367.65 269.79,367.64 269.80,367.66 269.79,367.66 269.80,367.68 269.81,367.70 269.78,367.66 269.78,367.70 269.77,367.68 269.77,367.68 269.76,367.70 269.78,367.73 269.75,367.69 269.76,367.71 269.72,367.66 269.73,367.68 269.77,367.72 269.75,367.70 269.74,367.69 269.75,367.71 269.72,367.69 269.73,367.69 269.75,367.73 269.77,367.75 269.73,367.71 269.69,367.67 269.69,367.66 269.70,367.67 269.72,367.66 269.71,367.65 269.71,367.65 269.70,367.65 269.76,367.68 269.76,367.69 269.78,367.71 269.74,367.68 269.76,367.70 269.74,367.67 269.72,367.59 269.71,367.61 269.72,367.64 269.74,367.63 269.64,367.50 269.60,367.48 269.55,367.31 269.44,367.30 269.58,367.50 274.06,369.12 274.79,369.09 276.91,369.44 282.73,370.54 283.26,370.61 284.22,370.36 285.59,368.25 285.37,367.95 285.14,367.59 285.04,367.37 285.41,365.44 285.64,364.97 285.93,364.63 286.03,364.47 287.15,364.45 287.39,364.46 287.69,364.61 287.92,364.66 288.25,364.71 289.19,365.05 289.84,365.31 290.80,365.62 291.84,366.02 293.19,366.38 294.63,366.70 296.21,367.06 297.88,367.49 301.42,368.59 303.43,369.16 305.66,369.68 307.98,370.26 310.37,370.92 323.30,373.66 325.81,374.36 328.56,375.02 331.27,375.60 347.45,378.58 349.93,379.10 352.49,379.53 355.09,379.86 370.14,383.98 372.67,384.75 375.28,385.47 377.99,386.06 397.17,390.76 401.79,392.13 404.48,392.77 419.93,396.45 422.23,397.11 424.81,397.87 427.24,398.57 441.38,401.79 443.78,402.48 446.14,403.08 448.44,403.77 461.91,407.69 464.05,408.16 466.19,408.59 468.47,409.18 481.93,409.58 484.10,409.65 486.30,409.62 488.31,409.60 494.64,409.00 496.61,408.96 500.82,408.96 502.98,408.95 505.22,408.94 507.46,408.90 509.75,409.09 514.07,409.90 516.25,410.37 518.42,410.85 520.62,411.22 522.78,411.54 524.92,411.76 526.96,412.12 528.95,412.54 532.98,413.23 534.95,413.64 537.01,413.96 551.12,415.57 552.95,415.94 554.87,416.19 556.82,416.58 568.00,418.19 569.78,418.54 571.60,418.81 573.41,419.14 584.46,421.06 586.18,421.35 587.92,421.71 589.81,422.04 591.68,422.37 603.20,424.28 605.13,424.52 606.63,424.60 608.35,424.24 620.50,422.34 622.61,421.75 624.91,421.21 627.20,420.46 641.37,416.90 643.30,416.92 645.31,417.07 647.33,417.33 659.45,419.29 661.22,419.64 663.04,420.07 664.78,420.55 676.08,423.56 677.80,424.05 679.63,424.61 681.33,425.00 683.05,425.02 687.02,424.60 688.94,424.54 690.63,424.73 692.36,424.90 693.67,424.87 695.17,424.89 696.73,425.01 698.29,425.09 701.66,425.38 703.43,425.47 705.22,425.49 706.97,425.59 714.15,426.91 718.05,427.58 720.02,427.99 722.19,428.51 724.58,428.90 741.38,430.72 744.40,431.16 747.50,431.64 750.72,432.25 771.01,435.12 774.43,435.66 781.37,436.67 806.96,441.10 810.40,442.02 813.71,442.89 816.92,443.94 835.54,448.23 838.46,448.90 841.36,449.59 843.91,450.27 858.60,455.37 860.79,456.73 865.19,459.48 876.25,467.54 877.86,469.15 879.30,470.74 880.68,472.44 887.24,483.06 888.15,484.91 889.12,486.88 889.87,488.79 891.07,492.42 891.51,494.18 892.13,495.93 892.85,497.68 893.66,499.26 894.39,500.93 895.01,502.58 895.41,504.31 895.92,505.97 897.15,509.62 897.70,511.46 898.10,513.40 898.48,515.46 898.95,517.25 899.29,519.08 899.70,520.96 900.87,526.30 901.17,528.34 901.41,530.44 901.76,532.44 905.09,545.50 905.42,548.00 905.68,550.32 906.03,552.70 907.18,567.77 906.92,570.44 906.37,573.50 906.07,576.36 903.03,593.29 902.19,595.84 901.46,598.28 900.62,600.51 899.87,602.74 892.04,617.90 890.46,620.37 888.84,622.66 887.22,624.75 876.85,635.54 875.00,636.97 873.09,638.48 871.23,639.86 859.06,647.21 856.59,648.44 853.91,649.58 851.20,650.82 835.33,657.19 832.71,658.10 830.05,658.88 827.47,659.50 819.14,661.06 816.55,661.42 813.85,661.81 811.00,662.21 808.19,662.58 805.65,662.74 802.97,662.99 800.35,663.01 795.13,663.28 792.45,663.44 789.74,663.35 787.24,663.02 780.21,662.80 777.82,663.09 773.14,663.12 770.71,663.15 768.54,663.08 766.50,663.01 751.09,662.29 749.13,661.97 747.24,661.82 736.00,659.34 734.37,658.99 732.55,658.78 730.69,658.68 720.44,657.86 718.91,657.96 718.01,658.24 716.50,658.75 705.73,663.06 704.34,663.69 703.05,664.31 701.75,665.12 694.97,669.89 694.23,670.89 693.28,670.96 692.65,670.87 687.30,671.66 686.32,671.34 685.01,671.14 673.86,670.33 671.62,670.25 669.33,670.06 667.04,669.92 656.63,669.29 653.92,669.04 651.16,668.98 648.34,668.93 633.80,668.67 630.70,668.72 627.80,668.82 624.74,668.93 606.01,669.93 602.57,669.86 599.41,669.86 596.38,670.17 578.60,669.99 575.72,669.55 572.98,669.14 570.18,668.53 567.48,667.92 554.10,663.91 551.03,663.42 547.97,663.05 544.83,662.64 526.77,660.03 523.64,660.01 520.69,660.00 517.82,659.92 501.07,660.07 499.02,660.27 496.93,660.39 494.91,660.25 485.11,656.73 483.26,656.20 481.54,655.60 479.47,655.20 472.15,653.60 470.45,653.29 468.83,652.98 467.11,652.62 465.42,652.26 463.57,651.76 460.08,650.75 458.22,650.48 456.26,650.23 454.44,650.16 452.64,650.06 450.81,649.78 449.00,649.65 447.32,649.51 444.29,649.44 442.95,649.43 441.57,649.48 440.35,649.56 432.92,650.30 431.87,650.43 430.95,650.77 430.00,650.91 421.27,650.88 419.91,650.09 418.59,649.26 417.20,648.66 407.62,645.93 405.78,645.54 403.99,645.35 402.33,644.94 391.68,643.94 390.02,643.95 388.26,644.17 386.56,644.10 376.45,645.07 374.60,645.29 372.73,645.70 371.02,646.25 361.84,648.00 360.35,647.93 358.88,647.78 357.50,647.65 346.10,647.79 344.38,648.01 342.86,648.09 341.12,648.31 338.02,648.80 336.74,648.89 335.53,648.89 334.41,648.87 333.45,648.88 332.59,648.89 331.52,649.16 330.46,649.51 328.46,650.08 327.42,650.04 326.21,650.16 324.84,650.43 323.39,650.91 322.09,651.12 320.73,651.34 319.51,651.24 317.07,651.12 315.79,650.98 314.35,650.99 312.89,651.14 301.91,651.03 300.16,650.89 280.37,650.39 279.28,650.50 277.97,650.40 276.64,650.46 268.34,652.35 267.29,652.64 266.62,652.81 265.94,652.65 261.73,651.89 261.11,651.69 260.38,651.64 259.37,651.55 252.57,652.06 251.54,652.31 250.52,652.36 249.80,652.25 245.14,652.45 244.33,652.28 243.71,652.09 242.95,651.80 232.02,650.04 229.94,649.88 227.74,649.65 225.42,649.38 220.53,649.40 218.16,649.54 215.93,649.72 213.84,649.77 209.99,649.72 208.43,649.79 206.91,650.06 204.22,650.52 202.99,650.87 201.82,650.90 200.87,650.71 192.99,649.65 191.35,649.37 189.72,649.10 188.09,648.86 179.47,648.18 178.25,648.30 177.07,648.32 176.09,648.39 171.40,647.42 170.21,647.22 168.73,647.03 167.07,646.79 165.29,646.53 153.29,645.29 151.04,645.24 148.74,645.27 146.53,645.17 135.37,644.66 133.36,644.68 131.31,644.64 129.28,644.31 114.87,642.46 112.13,642.92 109.60,643.09 107.14,643.05 93.33,645.03 91.18,645.55 89.28,645.88 87.35,645.99 82.43,645.00 80.98,644.53 79.51,644.05 78.00,643.51 76.55,643.02 75.26,642.46 74.25,641.82 73.31,641.34 71.70,640.61 71.07,640.32 70.56,640.01 70.22,639.80 69.90,639.80 69.81,639.84 69.61,640.07 69.65,640.15 69.93,640.10 70.22,640.23 70.55,640.54 70.94,641.23 72.99,645.24 73.35,645.69 73.95,646.22 74.47,646.82 79.13,648.57 80.14,648.74 81.00,648.81 81.83,648.80 86.80,648.60 87.54,648.65 88.22,648.64 88.84,648.76 92.49,650.13 95.37,651.84 96.19,652.43 97.12,652.96 97.97,653.51 102.50,657.13 102.91,657.43 103.18,657.65 100.41,657.32 99.55,657.04 98.77,656.56 98.17,656.01 96.75,652.55 96.55,652.17 96.29,651.89 96.07,651.71 95.96,651.61 95.85,651.58 95.91,651.64 95.98,651.86 96.08,652.14 96.20,652.43 96.44,652.71 96.75,653.08 97.79,654.47 98.20,654.97 98.66,655.56 99.73,656.85 102.28,660.76 102.57,661.45 102.88,661.96 103.28,662.47 105.96,665.98 106.34,666.61 106.65,667.16 106.97,667.69 107.83,669.12 107.84,669.27 107.75,669.49 107.54,669.70 105.21,672.05 104.83,672.45 104.46,672.86 104.06,673.29 100.95,676.63 100.73,677.29 100.56,677.90 100.49,678.46 100.74,682.95 100.86,683.55 100.99,684.08 100.93,684.56 99.17,686.79 98.78,687.19 98.34,687.59 97.94,687.95 97.00,688.48 96.48,688.79 96.05,689.07 95.74,689.41 95.38,689.89 95.04,690.55 94.74,691.25 94.44,692.09 93.64,693.76 93.02,694.61 92.31,695.40 91.64,696.22 88.43,701.57 88.34,702.43 88.41,703.31 88.56,704.00" fill="none" stroke="#16a34a" stroke-width="2" opacity="0.65"/>
  <polyline points="295.97,354.84 295.90,354.76 295.81,354.89 295.83,354.81 295.83,354.82 295.85,354.89 295.85,354.89 295.85,354.89 295.83,354.95 295.85,354.88 295.83,354.95 295.82,354.96 295.83,354.95 295.82,354.96 295.83,354.95 295.73,354.94 295.83,354.95 295.81,354.88 295.83,354.95 295.81,354.88 295.83,354.95 295.81,354.88 295.83,354.95 295.73,354.94 295.83,354.95 295.81,354.88 295.83,354.95 295.81,354.88 295.81,355.02 295.81,355.02 295.83,354.95 295.71,355.01 295.83,354.95 295.83,354.95 295.83,354.95 295.83,354.95 295.83,354.95 295.83,354.95 295.82,354.96 295.95,354.98 296.19,354.71 294.20,352.60 294.26,352.97 294.71,353.18 295.24,353.21 295.05,351.93 294.37,351.77 294.05,351.55 294.01,351.89 297.33,353.20 296.25,352.84 295.10,352.64 294.18,352.55 293.78,352.09 294.23,350.91 294.24,351.16 294.15,351.87 294.25,352.14 294.41,352.32 294.62,352.25 294.68,352.34 294.63,352.49 293.84,352.97 293.52,353.64 293.22,354.48 292.82,355.77 292.26,357.15 290.90,359.51 288.26,362.08 287.11,362.66 285.84,363.48 284.71,364.17 277.35,369.03 276.27,369.61 275.36,370.35 274.65,371.37 273.88,372.49 272.90,376.27 273.04,376.59 273.02,376.70 272.87,376.77 272.89,376.79 272.83,376.57 272.72,376.55 272.75,376.46 272.65,376.46 272.64,376.32 272.56,376.34 272.56,376.34 272.56,376.34 272.59,376.26 272.67,376.23 272.59,376.26 272.59,376.26 272.67,376.24 272.60,376.29 272.67,376.23 272.59,376.26 272.68,376.26 272.59,376.26 272.68,376.26 272.60,376.28 272.71,376.18 272.57,376.23 272.68,376.26 272.57,376.23 272.58,376.26 272.59,376.26 272.67,376.24 272.59,376.26 272.59,376.26 272.58,376.26 272.59,376.26 272.58,376.26 272.58,376.26 272.66,376.24 272.58,376.26 272.58,376.26 272.58,376.26 272.58,376.26 272.58,376.26 272.59,376.29 272.60,376.29 272.58,376.26 272.62,376.20 272.62,376.20 272.59,376.29 272.59,376.29 272.59,376.29 272.59,376.29 272.62,376.21 272.61,376.18 272.61,376.18 272.58,376.26 272.58,376.26 272.59,376.29 272.58,376.23 272.61,376.28 272.58,376.23 272.61,376.28 272.61,376.28 272.61,376.28 272.53,376.31 272.61,376.28 272.58,376.37 272.58,376.37 272.58,376.37 272.69,376.26 272.69,376.26 272.57,376.37 272.58,376.37 272.60,376.42 272.69,376.26 272.57,376.37 272.61,376.28 272.60,376.28 272.60,376.28 272.58,376.37 272.57,376.37 272.60,376.28 272.69,376.26 272.61,376.29 272.68,376.24 272.67,376.24 272.68,376.24 272.69,376.26 272.59,376.26 272.60,376.26 272.56,376.35 272.61,376.29 272.57,376.35 272.65,376.32 272.62,376.27 272.61,376.27 272.61,376.28 272.64,376.28 272.63,376.27 272.62,376.27 272.60,376.26 272.62,376.15 272.56,376.08 272.56,375.94 272.48,375.83 272.67,375.67 275.39,377.11 276.12,377.67 277.77,378.28 283.74,379.18 284.55,379.24 285.82,379.29 286.91,379.11 286.57,379.02 286.30,378.90 285.97,378.83 285.23,378.15 285.18,378.21 285.16,378.19 285.10,378.24 285.62,378.50 285.77,378.61 285.99,378.66 286.27,378.80 286.43,378.88 287.02,379.16 287.60,379.32 288.18,379.47 289.02,379.73 289.98,380.02 291.38,380.26 292.71,380.63 294.26,380.96 297.77,381.76 299.65,382.29 301.74,382.70 303.84,383.28 306.15,383.86 318.85,386.66 321.47,387.15 324.14,387.72 326.76,388.24 342.95,390.85 345.63,391.25 348.19,391.76 350.79,392.34 366.00,395.07 368.47,395.63 371.07,396.25 373.74,396.80 393.08,401.01 398.60,402.25 401.25,402.92 416.98,406.43 419.38,407.16 422.00,407.66 424.45,408.32 438.73,411.94 441.05,412.42 443.41,412.93 445.76,413.31 459.44,416.33 461.65,416.91 463.88,417.39 466.10,417.85 479.17,418.91 481.41,418.69 483.59,418.56 485.78,418.28 492.09,417.77 494.10,417.66 498.39,417.41 500.53,417.34 502.74,417.39 504.99,417.35 507.15,417.48 511.50,417.89 513.71,418.17 515.79,418.56 517.84,418.87 519.91,419.39 522.07,419.63 524.18,420.07 526.26,420.34 530.50,421.00 532.56,421.25 534.56,421.67 548.51,423.64 550.42,423.80 552.42,424.08 554.29,424.31 565.49,425.82 567.37,426.07 569.27,426.34 571.12,426.55 582.11,428.41 583.91,428.55 585.75,429.01 587.49,429.20 589.31,429.62 600.66,431.48 602.72,431.57 604.55,431.60 606.51,431.56 618.56,429.18 620.70,428.56 622.85,427.97 625.07,427.19 639.70,422.91 642.08,422.53 644.29,422.27 646.56,422.24 658.54,424.03 660.41,424.40 662.39,424.80 664.26,425.16 675.82,427.34 677.74,427.64 679.74,428.05 681.59,428.40 683.42,428.74 687.08,429.11 688.95,429.02 690.84,428.98 692.71,428.91 694.52,428.90 696.33,428.77 698.03,428.76 699.65,428.92 702.90,428.96 704.59,428.94 706.25,429.13 707.96,429.13 715.09,429.80 718.97,430.48 720.97,430.76 723.09,431.08 725.33,431.46 741.76,432.94 744.99,433.19 748.27,433.38 751.40,433.80 771.39,436.07 774.80,436.63 781.84,437.45 807.91,440.78 811.62,441.34 815.30,442.00 818.86,442.73 838.25,447.31 841.20,447.86 844.19,448.48 847.04,449.17 863.04,453.08 865.47,453.98 870.09,456.24 882.14,463.91 883.85,465.33 885.54,466.88 887.18,468.32 894.45,478.52 895.40,480.32 896.40,482.10 897.18,483.98 898.77,487.78 899.48,489.59 900.00,491.41 900.62,493.30 901.23,495.03 901.84,496.77 902.43,498.44 903.13,500.18 903.71,501.99 904.97,505.47 905.54,507.27 906.11,509.02 906.68,510.76 907.24,512.56 907.88,514.30 908.52,516.17 910.25,521.65 910.79,523.59 911.32,525.53 911.86,527.46 914.40,539.72 914.78,541.79 915.10,544.00 915.42,546.21 916.87,559.64 916.96,562.00 916.91,564.27 916.78,566.65 914.64,580.52 914.01,582.73 913.32,584.83 912.46,587.12 911.73,589.38 905.44,603.21 904.17,605.45 902.92,607.73 901.58,610.01 892.49,623.04 890.72,625.05 888.87,626.93 886.89,628.75 874.10,638.29 871.74,639.71 869.39,641.00 867.04,642.27 851.86,648.31 849.32,649.14 846.70,649.82 844.17,650.51 836.20,652.42 833.62,652.95 831.04,653.35 828.37,653.74 825.80,654.12 823.17,654.50 820.53,654.72 817.87,654.83 812.66,655.01 810.19,655.08 807.63,655.02 805.15,655.12 797.93,655.33 795.66,655.43 791.04,655.50 788.86,655.45 786.61,655.56 784.53,655.51 769.79,654.98 767.76,654.88 765.82,654.64 754.52,653.13 752.69,652.87 751.00,652.51 749.22,652.29 738.86,651.70 737.29,651.77 735.87,651.76 734.19,651.94 723.65,655.55 722.31,656.08 721.02,656.55 719.79,657.10 712.74,660.41 711.57,661.04 710.57,661.49 709.58,662.10 702.95,664.87 701.85,664.96 700.76,665.18 690.01,664.78 687.56,664.55 685.07,664.26 682.60,663.98 671.94,663.11 669.13,662.74 666.25,662.56 663.31,662.43 648.03,661.98 644.88,662.07 641.78,662.11 638.60,662.16 619.11,663.36 615.65,663.60 612.35,663.66 608.80,663.89 589.43,664.62 586.44,664.55 583.51,664.30 580.64,663.86 577.75,663.24 563.33,658.98 560.54,658.01 557.50,657.32 554.37,656.68 535.18,654.16 531.97,653.92 528.94,653.80 525.89,653.67 508.24,654.01 506.14,653.99 504.22,654.10 502.32,654.10 492.09,651.82 490.43,651.07 488.81,650.35 487.18,649.63 480.12,647.26 478.19,646.79 476.29,646.37 474.43,646.01 472.57,645.64 470.62,645.42 466.95,644.85 465.09,644.61 463.14,644.49 461.28,644.25 459.36,644.19 457.48,644.03 455.70,643.95 453.81,643.89 450.48,643.87 448.86,643.86 447.32,643.94 446.00,643.98 438.42,645.17 437.28,645.45 436.30,645.64 435.33,645.85 427.34,646.37 425.92,646.09 424.41,645.58 422.93,645.00 412.74,641.38 411.09,640.83 409.34,640.43 407.60,640.04 397.32,638.82 395.46,638.76 393.78,638.79 391.87,638.79 380.71,639.99 379.02,640.29 377.38,640.66 375.64,641.03 366.05,643.76 364.59,643.93 363.02,644.12 361.52,644.01 350.58,642.78 348.81,642.85 346.91,642.88 345.11,643.04 341.51,643.50 339.79,643.76 338.37,644.02 336.93,644.28 335.70,644.43 334.55,644.58 333.40,644.83 332.40,644.90 330.46,645.27 329.46,645.60 328.35,645.63 327.27,645.70 325.94,645.84 324.62,646.02 323.21,646.19 321.76,646.30 318.78,646.40 317.28,646.42 315.87,646.30 314.33,646.25 303.06,646.07 300.99,645.95 279.69,644.67 277.29,644.78 275.23,644.83 273.29,644.89 264.44,646.70 263.35,646.91 262.34,647.24 261.56,647.21 257.47,646.53 256.68,646.34 255.81,646.18 255.13,646.02 248.40,646.32 247.06,646.45 245.90,646.69 245.00,646.87 240.47,647.08 239.85,646.75 239.04,646.66 238.28,646.38 229.22,644.13 226.95,644.01 224.36,643.92 221.79,643.79 216.39,643.60 213.84,643.66 211.40,643.72 208.97,643.95 204.69,644.26 202.84,644.47 201.23,644.61 198.27,644.85 196.93,644.99 195.69,645.25 194.58,645.30 187.22,643.96 185.66,643.65 183.91,643.34 182.17,643.04 172.75,641.92 171.43,641.95 170.28,641.92 169.35,642.09 164.48,641.88 163.62,641.69 162.57,641.45 161.27,641.19 159.62,641.13 146.93,639.90 144.58,639.81 142.30,639.69 139.92,639.70 127.76,639.02 125.66,638.85 123.46,638.81 121.34,638.62 106.30,637.68 103.35,637.55 100.50,637.33 97.48,637.38 82.59,638.21 80.32,638.50 78.01,638.76 75.88,638.85 70.31,638.32 68.63,637.84 67.04,637.32 65.61,636.91 64.15,636.32 62.85,635.70 61.59,635.12 60.34,634.54 58.37,633.63 57.68,633.33 57.15,633.00 56.63,632.70 56.28,632.34 56.00,632.35 56.05,632.40 56.05,632.39 56.34,632.77 56.60,632.86 56.75,633.00 57.15,633.19 59.62,636.32 59.79,636.75 60.21,637.13 60.72,637.36 65.01,638.29 66.10,638.20 67.02,638.24 68.10,638.02 73.32,637.22 74.15,637.09 74.79,637.14 75.49,637.00 77.90,636.91 79.89,637.73 80.52,638.34 81.11,638.96 81.94,639.75 86.58,642.71 86.88,643.31 87.46,643.51 86.58,644.46 86.05,644.04 84.70,643.31 83.95,642.82 82.17,640.15 82.04,639.51 81.85,638.96 81.67,638.74 81.44,638.73 81.19,638.69 81.15,638.61 81.21,638.68 81.27,638.88 81.36,639.11 81.61,639.32 81.73,639.50 82.28,640.42 82.39,640.84 82.86,641.25 83.54,642.36 86.18,645.45 86.48,645.81 86.70,646.45 87.00,646.80 89.30,649.43 89.72,649.68 90.05,650.23 90.38,650.84 90.96,652.28 90.93,652.38 90.87,652.38 90.72,652.50 88.42,653.55 88.24,653.81 87.91,654.42 87.80,654.77 85.57,657.41 85.35,657.63 85.14,658.01 85.04,658.34 85.00,661.53 85.03,662.09 85.09,662.70 85.23,663.08 84.05,664.31 83.69,664.38 83.38,664.99 83.00,664.88 82.11,664.90 81.70,664.92 81.32,665.29 81.18,665.55 81.06,665.78 80.98,666.17 80.72,666.84 80.35,667.88 79.87,668.62 79.48,669.09 78.93,669.93 77.98,670.26 76.18,672.59 76.09,673.50 76.34,674.02 76.08,675.22" fill="none" stroke="#111827" stroke-width="4" opacity="0.9"/>
  <polyline points="298.21,346.34 298.79,344.08 299.06,343.03 299.21,342.42 299.31,342.02 299.37,341.73 299.43,341.53 299.47,341.36 299.50,341.23 299.52,341.12 299.54,341.02 299.55,340.95 299.56,340.88 299.58,340.82 299.59,340.76 299.60,340.72 299.61,340.68 299.61,340.65 299.62,340.62 299.63,340.59 299.63,340.56 299.63,340.53 299.65,340.52 299.65,340.49 299.66,340.45 299.67,340.43 299.69,340.43 299.69,340.40 299.69,340.36 299.69,340.37 299.69,340.37 299.69,340.37 299.68,340.37 299.67,340.38 299.67,340.41 299.67,340.42 299.67,340.45 299.68,340.45 299.91,340.21 300.31,339.70 300.64,339.04 300.02,337.16 301.40,337.75 302.11,337.71 302.32,337.44 302.33,336.26 301.33,336.38 301.19,336.80 301.46,337.33 302.90,338.92 300.46,338.32 298.92,337.85 298.34,337.04 298.40,336.18 298.24,335.51 298.23,336.12 298.33,336.53 298.47,336.74 298.61,336.77 298.72,336.71 298.77,336.56 298.67,336.45 298.46,337.10 298.12,338.35 297.64,339.96 297.00,341.74 296.26,343.52 294.77,346.70 291.46,350.82 289.61,351.97 287.74,353.11 285.91,354.33 275.77,360.78 274.46,360.66 273.28,361.47 272.51,362.36 272.02,363.27 269.90,367.55 270.37,367.28 270.18,367.36 270.26,367.35 270.29,367.27 270.09,367.64 270.03,367.51 270.06,367.50 270.05,367.54 269.83,367.42 269.87,367.43 269.95,367.53 269.99,367.60 270.04,367.67 270.11,367.75 270.15,367.82 270.16,367.82 270.14,367.82 270.17,367.89 270.16,367.85 270.20,367.90 270.21,367.93 270.22,367.94 270.24,367.98 270.25,368.01 270.24,368.00 270.23,368.00 270.26,368.03 270.26,368.04 270.28,368.07 270.27,368.03 270.26,368.04 270.26,368.06 270.26,368.07 270.23,368.04 270.24,368.05 270.25,368.07 270.26,368.09 270.25,368.06 270.24,368.06 270.22,368.07 270.21,368.07 270.22,368.09 270.23,368.11 270.22,368.11 270.18,368.12 270.14,368.07 270.18,368.11 270.19,368.14 270.16,368.15 270.13,368.11 270.16,368.14 270.18,368.16 270.19,368.17 270.20,368.20 270.24,368.25 270.22,368.19 270.24,368.22 270.26,368.23 270.27,368.23 270.26,368.20 270.28,368.20 270.30,368.22 270.32,368.21 270.36,368.28 270.40,368.32 270.39,368.29 270.36,368.25 270.37,368.26 270.40,368.27 270.39,368.25 270.47,368.33 270.47,368.31 270.51,368.36 270.51,368.34 270.57,368.40 270.64,368.46 270.64,368.46 270.63,368.45 270.63,368.46 270.63,368.46 270.66,368.47 270.66,368.48 270.66,368.50 270.62,368.46 270.58,368.42 270.56,368.39 270.55,368.39 270.56,368.37 270.55,368.35 270.54,368.33 270.53,368.34 270.57,368.36 270.57,368.37 270.59,368.38 270.54,368.33 270.55,368.36 270.53,368.34 270.47,368.24 270.46,368.31 270.47,368.35 270.49,368.34 270.44,368.26 270.37,368.23 270.31,368.06 270.20,368.05 270.29,368.20 272.53,369.17 273.43,368.98 275.45,369.34 281.22,370.36 281.60,370.45 282.85,370.40 285.54,369.31 284.99,369.01 284.75,368.63 284.72,368.40 284.82,366.53 285.28,365.93 285.70,365.60 285.84,365.47 286.95,364.61 287.29,364.74 287.67,365.00 287.94,365.10 288.31,365.18 289.12,365.45 289.81,365.75 290.73,366.07 291.72,366.46 292.97,366.82 294.33,367.16 295.83,367.53 297.43,367.95 300.66,368.87 302.68,369.45 304.87,369.99 307.16,370.58 309.52,371.24 321.35,374.04 324.03,374.85 326.97,375.54 329.81,376.14 345.97,379.49 348.45,380.00 351.16,380.39 353.89,380.72 369.33,384.10 371.98,385.05 374.72,385.83 377.52,386.46 396.37,391.18 401.03,392.64 403.94,393.31 419.49,397.15 421.71,397.87 424.44,398.68 426.96,399.39 441.51,403.03 443.97,403.78 446.37,404.34 448.69,405.00 462.46,408.78 464.53,409.13 466.66,409.51 468.95,410.11 482.30,411.74 484.47,411.61 486.69,411.44 488.70,411.32 495.08,410.92 497.04,410.80 501.23,410.64 503.41,410.56 505.65,410.49 507.89,410.39 510.17,410.48 514.54,410.89 516.74,411.32 518.92,411.76 521.13,412.11 523.30,412.43 525.45,412.66 527.52,412.99 529.54,413.38 533.63,414.06 535.59,414.46 537.65,414.77 551.82,416.74 553.50,417.20 555.43,417.38 557.39,417.73 568.75,419.40 570.46,419.76 572.28,419.98 574.09,420.28 585.05,422.07 586.71,422.33 588.46,422.68 590.37,422.99 592.24,423.31 603.49,425.21 605.48,425.39 606.87,425.41 608.63,425.02 620.00,423.96 622.32,423.10 624.76,422.47 627.13,421.67 640.90,418.12 642.66,418.53 644.79,418.70 646.92,418.89 659.29,419.90 660.98,420.33 662.88,420.82 664.69,421.31 675.92,424.03 677.62,424.57 679.55,425.17 681.40,425.69 683.24,425.86 687.13,426.00 689.16,425.99 690.97,426.21 692.80,426.40 694.24,426.42 695.77,426.40 697.34,426.46 698.90,426.50 702.14,426.67 703.92,426.73 705.70,426.74 707.45,426.81 714.48,427.60 718.34,428.25 720.36,428.70 722.55,429.22 724.91,429.62 739.74,431.70 743.20,432.19 746.52,432.68 749.91,433.28 769.39,436.08 773.16,436.66 780.29,437.65 805.55,441.65 809.19,442.86 812.69,443.77 816.09,444.84 835.75,449.51 838.61,450.06 841.56,450.71 844.14,451.34 859.97,455.93 861.91,457.64 866.35,460.23 878.44,467.96 879.70,469.80 880.94,471.42 882.24,473.13 889.91,483.19 890.47,485.18 891.29,487.23 891.92,489.17 893.23,492.86 893.57,494.64 894.11,496.41 894.74,498.17 895.45,499.80 896.13,501.48 896.71,503.15 897.13,504.87 897.62,506.54 898.75,510.04 899.28,511.89 899.67,513.82 900.06,515.84 900.50,517.66 900.84,519.51 901.23,521.40 902.41,526.85 902.69,528.93 902.92,531.03 903.25,533.03 905.85,545.49 906.13,548.27 906.39,550.65 906.78,553.05 908.46,567.63 907.91,570.51 907.29,573.71 907.02,576.61 904.79,593.40 903.65,595.82 902.89,598.23 902.03,600.48 901.28,602.75 895.03,617.51 893.05,620.07 891.26,622.38 889.53,624.51 879.56,636.73 877.48,637.79 875.45,639.23 873.51,640.57 861.67,648.68 858.82,649.79 855.98,650.83 853.20,652.01 837.62,658.65 834.91,659.39 832.15,660.05 829.51,660.59 821.29,662.48 818.65,662.74 815.88,663.06 812.99,663.42 810.13,663.75 807.50,663.91 804.78,664.13 802.10,664.18 796.77,664.47 794.07,664.59 791.34,664.51 788.80,664.21 781.30,663.97 778.94,664.28 774.20,664.31 771.79,664.32 769.63,664.23 767.58,664.14 752.06,663.58 750.38,663.03 748.58,662.89 736.94,660.96 735.53,660.56 733.71,660.33 731.86,660.17 721.30,658.97 719.95,659.22 719.39,659.61 717.88,660.07 707.60,663.09 706.26,663.86 704.96,664.55 703.60,665.44 696.06,669.94 695.64,671.16 694.66,671.00 694.06,670.87 688.51,672.19 687.39,671.64 686.01,671.48 677.13,670.74 674.39,670.74 671.88,670.59 669.44,670.49 659.83,670.05 656.97,669.91 654.13,669.97 651.26,670.01 637.03,669.66 633.72,669.87 630.74,670.07 627.60,670.24 609.02,671.00 605.28,670.91 602.07,670.98 598.97,671.38 580.46,671.66 577.67,670.97 574.98,670.54 572.16,669.95 569.44,669.38 555.67,666.14 552.50,665.65 549.46,665.23 546.35,664.75 528.28,661.75 525.12,661.92 522.22,661.89 519.39,661.72 500.84,661.16 499.42,661.51 497.55,661.60 495.68,661.40 484.71,659.40 483.06,658.62 481.60,657.81 479.73,657.24 472.55,655.22 471.07,654.85 469.59,654.46 467.99,654.01 466.39,653.57 464.66,653.02 461.24,651.99 459.47,651.63 457.61,651.29 455.86,651.13 454.03,650.94 452.18,650.63 450.35,650.43 448.62,650.24 445.34,649.99 444.01,649.95 442.62,649.96 441.38,650.00 433.54,650.35 432.68,650.52 431.86,650.91 430.95,651.04 422.99,651.57 421.50,650.14 420.16,649.17 418.73,648.58 409.79,645.49 407.70,645.20 405.81,645.12 404.09,644.73 393.49,643.19 391.85,643.43 390.01,643.79 388.25,643.76 377.90,644.29 375.93,644.65 374.01,645.17 372.28,645.80 362.35,647.80 360.98,647.52 359.57,647.35 358.23,647.25 347.39,647.22 345.58,647.63 344.11,647.74 342.34,647.99 339.14,648.41 337.87,648.51 336.64,648.53 335.48,648.54 334.45,648.57 333.52,648.59 332.45,648.81 331.39,649.10 329.32,649.59 328.28,649.60 327.10,649.74 325.79,649.98 324.40,650.40 323.10,650.65 321.74,650.89 320.50,650.89 317.98,650.93 316.70,650.81 315.27,650.81 313.83,650.93 304.12,650.88 302.27,650.66 283.83,650.05 283.92,650.40 282.27,650.23 280.56,650.30 271.64,651.33 270.53,651.74 269.79,651.95 268.86,651.85 263.87,651.72 263.16,651.47 262.29,651.44 261.18,651.35 255.10,651.30 253.92,651.72 252.76,651.79 251.91,651.70 246.59,651.91 245.70,651.68 245.03,651.50 244.21,651.25 235.84,649.72 233.06,649.65 230.50,649.43 227.95,649.17 223.14,649.01 220.58,649.18 218.18,649.36 215.92,649.43 211.68,649.45 210.05,649.55 208.41,649.82 205.32,650.20 204.05,650.56 202.82,650.62 201.80,650.49 194.21,649.99 192.31,649.63 190.62,649.33 188.95,649.08 179.88,647.95 178.87,648.30 177.73,648.33 176.77,648.40 170.97,647.92 169.65,647.65 168.18,647.42 166.62,647.15 164.97,646.86 154.48,645.45 151.96,645.47 149.57,645.52 147.31,645.39 135.16,644.81 133.13,644.88 131.12,644.83 129.13,644.46 115.84,643.01 112.80,643.84 110.25,643.95 107.76,643.81 93.27,644.84 91.29,645.54 89.52,645.84 87.61,645.92 82.12,645.72 80.75,645.13 79.32,644.60 77.82,644.03 76.38,643.50 75.07,642.92 74.01,642.26 73.02,641.74 71.09,640.83 70.50,640.51 69.99,640.18 69.62,639.93 69.30,639.86 69.17,639.84 68.97,639.99 68.95,640.04 68.94,640.02 69.26,640.14 69.60,640.40 70.00,640.98 71.81,643.83 72.31,644.30 73.06,644.95 73.67,645.65 77.55,648.26 78.95,648.35 79.93,648.38 80.85,648.39 86.04,648.61 86.80,648.71 87.53,648.68 88.22,648.77 91.54,649.52 94.44,650.97 95.33,651.64 96.37,652.22 97.29,652.80 102.22,656.23 102.37,656.34 102.58,656.55 102.48,657.48 101.09,656.97 100.14,656.40 99.43,655.83 97.02,653.03 96.88,652.77 96.60,652.46 96.36,652.23 96.22,652.06 95.98,651.81 96.02,651.83 96.08,651.99 96.15,652.20 96.25,652.44 96.44,652.67 96.70,652.99 97.53,654.09 97.96,654.59 98.41,655.16 99.37,656.32 102.05,659.98 102.26,660.75 102.58,661.20 103.01,661.71 105.44,665.14 105.83,665.81 106.14,666.35 106.49,666.89 107.92,669.20 107.80,669.20 107.75,669.37 107.58,669.52 106.32,671.17 105.87,671.58 105.47,671.98 105.04,672.39 102.29,675.15 102.26,675.92 102.13,676.51 102.06,677.04 101.28,681.25 101.52,681.83 101.66,682.33 101.53,682.75 100.77,685.42 100.23,685.70 99.70,685.98 99.24,686.21 98.35,686.68 97.80,686.83 97.34,686.95 97.00,687.11 96.62,687.37 96.25,687.75 95.91,688.16 95.57,688.67 94.78,689.71 94.20,690.31 93.54,690.85 92.90,691.42 89.73,695.43 90.00,696.16 90.31,696.83 90.66,697.21" fill="none" stroke="#2563eb" stroke-width="4" opacity="0.9"/>
  <circle cx="295.97" cy="354.84" r="7" fill="#10b981"/>
  <circle cx="76.08" cy="675.22" r="7" fill="#ef4444"/>
  <g font-family="Arial, sans-serif" font-size="14">
    <rect x="724" y="32" width="220" height="116" fill="#ffffff" stroke="#d1d5db"/>
    <line x1="744" y1="58" x2="794" y2="58" stroke="#111827" stroke-width="4"/><text x="808" y="63" fill="#111827">Ground truth</text>
    <line x1="744" y1="84" x2="794" y2="84" stroke="#2563eb" stroke-width="4"/><text x="808" y="89" fill="#111827">Fused estimate</text>
    <line x1="744" y1="110" x2="794" y2="110" stroke="#f97316" stroke-width="3"/><text x="808" y="115" fill="#111827">GNSS</text>
    <line x1="744" y1="136" x2="794" y2="136" stroke="#16a34a" stroke-width="3"/><text x="808" y="141" fill="#111827">VIO / odom</text>
  </g>
</svg>
